<svg width="720" height="555" viewBox="0 0 720 555" fill="none" xmlns="http://www.w3.org/2000/svg">
<g clip-path="url(#clip0)">
<path opacity="0.1" d="M674.633 313.711C648.103 353.617 654.818 409.084 668.175 453.019C672.673 467.726 677.755 483.268 674.735 499.524C671.041 519.403 655.981 534.714 640.541 543.285C612.406 558.917 579.747 557.632 555.518 539.95C534.579 524.665 520.347 498.586 498.977 484.052C463.26 459.817 415.567 472.783 374.382 493.613C345.245 508.332 313.254 527.107 285.639 515.329C266.21 507.041 253.617 484.72 247.359 460.62C244.339 448.984 242.36 436.307 235.922 427.332C232.067 421.999 226.927 418.336 221.601 415.362C172.956 387.901 108.776 408.198 61.7128 377.319C29.9536 356.502 11.0575 314.649 4.00278 270.219C-3.05195 225.79 0.424011 178.533 5.14001 132.029C8.48748 98.9847 13.287 63.6339 31.7205 37.1433C51.2206 9.1236 82.8513 -2.80776 110.749 0.55255C138.647 3.91286 163.178 20.5538 184.528 40.645C211.211 65.7028 235.524 97.4812 269.403 106.181C292.476 112.124 317.341 106.547 341.589 103.611C382.131 98.7598 422.307 101.458 462.213 104.664C500.423 107.736 538.877 111.34 574.761 124.434C600.153 133.699 619.955 152.152 643.76 164.424C659.277 172.423 676.56 173.824 691.1 184.342C709.013 197.288 724.844 220.765 718.619 249.775C712.701 277.396 688.71 292.508 674.633 313.711Z" fill="#2C7BE5"/>
<path opacity="0.1" d="M592.193 164.752H565.92V204.523H592.193V164.752Z" fill="#2C7BE5"/>
<path opacity="0.1" d="M589.635 168.62H568.471V200.655H589.635V168.62Z" fill="#2C7BE5"/>
<path opacity="0.1" d="M552.942 137.124H512.592V176.895H552.942V137.124Z" fill="#2C7BE5"/>
<path opacity="0.1" d="M549.016 140.992H516.512V173.027H549.016V140.992Z" fill="#2C7BE5"/>
<path opacity="0.1" d="M164.848 77.949H41.5188V81.2322H164.848V77.949Z" fill="#2C7BE5"/>
<path opacity="0.1" d="M164.848 94.0052H41.5188V97.2884H164.848V94.0052Z" fill="#2C7BE5"/>
<path d="M262.169 290.818H249.569V431.617H262.169V290.818Z" fill="#D6D6E3"/>
<path d="M630.197 305.602V175.726C630.198 172.106 631.638 168.635 634.198 166.076C636.758 163.516 640.23 162.079 643.85 162.079C647.466 162.086 650.931 163.526 653.486 166.085C656.04 168.643 657.476 172.11 657.478 175.726V332.909C657.478 336.53 656.039 340.003 653.479 342.563C650.918 345.123 647.445 346.562 643.824 346.562H559.264C555.643 346.562 552.17 345.123 549.61 342.563C547.049 340.003 545.611 336.53 545.611 332.909C545.611 329.288 547.049 325.815 549.61 323.254C552.17 320.694 555.643 319.255 559.264 319.255H616.544C620.165 319.255 623.637 317.817 626.198 315.256C628.758 312.696 630.197 309.223 630.197 305.602Z" fill="#AEBEE1"/>
<path d="M630.197 305.602V175.726C630.198 172.106 631.638 168.635 634.198 166.076C636.758 163.516 640.23 162.079 643.85 162.079C647.466 162.086 650.931 163.526 653.486 166.085C656.04 168.643 657.476 172.11 657.478 175.726V332.909C657.478 336.53 656.039 340.003 653.479 342.563C650.918 345.123 647.445 346.562 643.824 346.562H559.264C555.643 346.562 552.17 345.123 549.61 342.563C547.049 340.003 545.611 336.53 545.611 332.909C545.611 329.288 547.049 325.815 549.61 323.254C552.17 320.694 555.643 319.255 559.264 319.255H616.544C620.165 319.255 623.637 317.817 626.198 315.256C628.758 312.696 630.197 309.223 630.197 305.602Z" fill="#535461"/>
<path d="M545.63 332.176C545.817 328.687 547.336 325.402 549.872 322.999C552.408 320.595 555.77 319.255 559.264 319.255H616.543C620.164 319.255 623.637 317.817 626.198 315.256C628.758 312.696 630.197 309.223 630.197 305.602V175.726C630.194 172.216 631.543 168.841 633.963 166.3C636.384 163.759 639.689 162.247 643.195 162.079V332.176H545.63Z" fill="#D6D6E3"/>
<path d="M123.683 309.984V180.108C123.683 176.492 122.249 173.024 119.695 170.465C117.142 167.905 113.677 166.463 110.062 166.454C106.44 166.454 102.968 167.893 100.407 170.453C97.8467 173.014 96.4082 176.487 96.4082 180.108V337.291C96.404 339.086 96.754 340.865 97.4383 342.525C98.1225 344.186 99.1276 345.694 100.396 346.966C101.664 348.237 103.171 349.246 104.829 349.934C106.488 350.622 108.266 350.976 110.062 350.976H194.615C198.237 350.976 201.709 349.538 204.27 346.977C206.83 344.417 208.269 340.944 208.269 337.323C208.269 333.702 206.83 330.229 204.27 327.668C201.709 325.108 198.237 323.669 194.615 323.669H137.342C135.546 323.67 133.767 323.317 132.108 322.629C130.449 321.941 128.941 320.933 127.673 319.661C126.404 318.39 125.398 316.881 124.713 315.22C124.029 313.56 123.678 311.78 123.683 309.984Z" fill="#AEBEE1"/>
<path d="M123.683 309.984V180.108C123.683 176.492 122.249 173.024 119.695 170.465C117.142 167.905 113.677 166.463 110.062 166.454C106.44 166.454 102.968 167.893 100.407 170.453C97.8467 173.014 96.4082 176.487 96.4082 180.108V337.291C96.404 339.086 96.754 340.865 97.4383 342.525C98.1225 344.186 99.1276 345.694 100.396 346.966C101.664 348.237 103.171 349.246 104.829 349.934C106.488 350.622 108.266 350.976 110.062 350.976H194.615C198.237 350.976 201.709 349.538 204.27 346.977C206.83 344.417 208.269 340.944 208.269 337.323C208.269 333.702 206.83 330.229 204.27 327.668C201.709 325.108 198.237 323.669 194.615 323.669H137.342C135.546 323.67 133.767 323.317 132.108 322.629C130.449 321.941 128.941 320.933 127.673 319.661C126.404 318.39 125.398 316.881 124.713 315.22C124.029 313.56 123.678 311.78 123.683 309.984Z" fill="#535461"/>
<path d="M208.249 336.558C208.062 333.069 206.544 329.784 204.007 327.381C201.471 324.977 198.11 323.637 194.615 323.637H137.342C135.549 323.638 133.773 323.286 132.115 322.6C130.458 321.914 128.952 320.909 127.684 319.641C126.415 318.373 125.409 316.867 124.723 315.21C124.036 313.553 123.683 311.778 123.683 309.984V180.108C123.682 176.604 122.334 173.234 119.918 170.697C117.503 168.159 114.204 166.647 110.704 166.474V336.558H208.249Z" fill="#D6D6E3"/>
<path d="M511.442 290.818H498.843V434.9H511.442V290.818Z" fill="#D6D6E3"/>
<path opacity="0.1" d="M262.169 290.818H249.569V301.227H262.169V290.818Z" fill="black"/>
<path opacity="0.1" d="M511.442 290.818H498.843V301.227H511.442V290.818Z" fill="black"/>
<path opacity="0.1" d="M294.57 205.075C294.369 207.294 294.114 209.543 293.806 211.822H292.026V205.075H294.57Z" fill="black"/>
<path d="M346.196 275.16C346.234 277.441 344.589 279.311 342.553 279.311H304.099V275.301H336.095C337.477 275.301 338.338 273.631 337.644 272.295L308.628 213.28C308.423 212.855 308.105 212.495 307.708 212.238C307.311 211.982 306.852 211.84 306.379 211.828H292.026V205.082H310.151C310.481 205.09 310.803 205.189 311.081 205.368C311.358 205.548 311.581 205.8 311.725 206.097L344.988 270.348C345.754 271.838 346.168 273.485 346.196 275.16Z" fill="#535461"/>
<path d="M275.571 264.456L275.045 265.343L270.116 262.053L285.363 144.815H289.289C289.289 144.815 289.45 145.354 289.713 146.382C292.341 156.515 305.249 213.897 275.571 264.456Z" fill="#535461"/>
<path opacity="0.1" d="M289.707 146.382L275.571 264.456L275.045 265.343L270.116 262.053L285.363 144.815H289.289C289.289 144.815 289.443 145.374 289.707 146.382Z" fill="black"/>
<path d="M280.121 143.602L265.658 264.359L274.908 265.467L289.371 144.71L280.121 143.602Z" fill="#D6D6E3"/>
<path d="M233.956 275.205C233.954 275.496 233.838 275.774 233.633 275.98C233.427 276.186 233.148 276.302 232.857 276.304H231.213C230.921 276.304 230.642 276.188 230.436 275.982C230.23 275.776 230.114 275.497 230.114 275.205C230.109 275.162 230.109 275.119 230.114 275.077C230.147 274.811 230.275 274.567 230.475 274.39C230.675 274.212 230.933 274.114 231.2 274.113H232.845C233.089 274.115 233.325 274.199 233.517 274.35C233.709 274.501 233.845 274.711 233.905 274.948C233.933 275.031 233.95 275.118 233.956 275.205Z" fill="#E3EDF9"/>
<path d="M238.884 275.205C238.882 275.496 238.766 275.774 238.561 275.98C238.355 276.186 238.076 276.302 237.785 276.304H236.141C235.849 276.304 235.57 276.188 235.364 275.982C235.158 275.776 235.042 275.497 235.042 275.205C235.043 275.103 235.058 275.001 235.087 274.903C235.136 274.725 235.231 274.563 235.363 274.434C235.464 274.332 235.584 274.251 235.716 274.195C235.849 274.14 235.991 274.112 236.134 274.113H237.779C237.991 274.112 238.199 274.172 238.378 274.286C238.557 274.4 238.699 274.563 238.788 274.755C238.85 274.897 238.883 275.05 238.884 275.205Z" fill="#E3EDF9"/>
<path d="M243.266 275.205C243.264 275.496 243.148 275.774 242.942 275.98C242.737 276.186 242.458 276.302 242.167 276.304H240.523C240.231 276.304 239.952 276.188 239.746 275.982C239.54 275.776 239.424 275.497 239.424 275.205C239.421 275.048 239.454 274.892 239.52 274.749C239.609 274.559 239.75 274.398 239.926 274.285C240.102 274.171 240.307 274.109 240.516 274.106H242.161C242.305 274.106 242.449 274.133 242.582 274.188C242.716 274.243 242.838 274.324 242.94 274.426C243.042 274.529 243.123 274.65 243.178 274.784C243.233 274.917 243.261 275.061 243.26 275.205H243.266Z" fill="#E3EDF9"/>
<path d="M248.201 275.205C248.199 275.496 248.083 275.774 247.877 275.98C247.671 276.186 247.393 276.302 247.102 276.304H245.457C245.256 276.304 245.059 276.248 244.888 276.144C244.716 276.04 244.576 275.891 244.483 275.712C244.391 275.534 244.349 275.334 244.362 275.134C244.375 274.933 244.442 274.74 244.558 274.575L244.686 274.434C244.787 274.332 244.907 274.251 245.039 274.195C245.171 274.14 245.314 274.112 245.457 274.113H247.102C247.252 274.115 247.4 274.147 247.537 274.208C247.674 274.268 247.797 274.356 247.899 274.466C248.092 274.664 248.2 274.929 248.201 275.205Z" fill="#E3EDF9"/>
<path opacity="0.1" d="M233.924 274.942C233.946 275.028 233.957 275.116 233.956 275.205C233.954 275.496 233.838 275.774 233.633 275.98C233.427 276.186 233.148 276.302 232.857 276.304H231.213C230.921 276.304 230.642 276.188 230.436 275.982C230.23 275.776 230.114 275.497 230.114 275.205C230.109 275.162 230.109 275.119 230.114 275.077L233.924 274.942Z" fill="black"/>
<path opacity="0.1" d="M238.794 274.768C238.852 274.904 238.883 275.051 238.884 275.199C238.882 275.49 238.766 275.768 238.561 275.974C238.355 276.179 238.076 276.296 237.785 276.297H236.141C235.849 276.297 235.57 276.182 235.364 275.976C235.158 275.77 235.042 275.49 235.042 275.199C235.043 275.096 235.058 274.995 235.087 274.897L238.794 274.768Z" fill="black"/>
<path opacity="0.1" d="M243.105 274.62C243.214 274.794 243.271 274.994 243.273 275.199C243.271 275.49 243.155 275.768 242.949 275.974C242.743 276.179 242.465 276.296 242.174 276.297H240.529C240.238 276.297 239.958 276.182 239.752 275.976C239.546 275.77 239.43 275.49 239.43 275.199C239.428 275.041 239.461 274.885 239.527 274.743L243.105 274.62Z" fill="black"/>
<path opacity="0.1" d="M248.201 275.205C248.199 275.496 248.083 275.774 247.877 275.98C247.671 276.186 247.393 276.302 247.102 276.304H245.457C245.256 276.304 245.059 276.248 244.888 276.144C244.716 276.04 244.576 275.891 244.483 275.712C244.391 275.534 244.349 275.334 244.362 275.134C244.375 274.933 244.442 274.74 244.558 274.575L247.899 274.46C248.093 274.659 248.202 274.927 248.201 275.205Z" fill="black"/>
<path d="M258.057 279.587H226.285V278.141C226.284 277.5 226.533 276.883 226.979 276.421C227.425 275.96 228.033 275.689 228.675 275.668L254.157 274.787C254.663 274.77 255.167 274.855 255.64 275.037C256.113 275.218 256.545 275.493 256.909 275.845C257.274 276.197 257.564 276.619 257.762 277.085C257.96 277.551 258.062 278.052 258.063 278.559L258.057 279.587Z" fill="#D6D6E3"/>
<path d="M414.809 275.16C414.77 277.441 416.415 279.311 418.452 279.311H456.925V275.301H424.89C423.509 275.301 422.648 273.631 423.342 272.295L452.357 213.28C452.562 212.855 452.881 212.495 453.278 212.238C453.674 211.982 454.134 211.84 454.606 211.828H468.966V205.082H450.854C450.528 205.094 450.213 205.195 449.94 205.372C449.667 205.55 449.448 205.798 449.305 206.091L416.043 270.341C415.266 271.831 414.844 273.48 414.809 275.16Z" fill="#535461"/>
<path d="M485.44 264.456L485.967 265.343L490.895 262.053L475.648 144.815H471.722C471.722 144.815 471.562 145.354 471.298 146.382C468.664 156.515 455.73 213.897 485.44 264.456Z" fill="#535461"/>
<path opacity="0.1" d="M471.298 146.382L485.433 264.456L485.96 265.343L490.888 262.053L475.648 144.815H471.722C471.722 144.815 471.562 145.374 471.298 146.382Z" fill="black"/>
<path d="M480.896 143.59L471.645 144.698L486.109 265.455L495.359 264.347L480.896 143.59Z" fill="#D6D6E3"/>
<path d="M527.049 275.205C527.05 275.496 527.167 275.774 527.372 275.98C527.578 276.186 527.856 276.302 528.147 276.304H529.792C530.083 276.304 530.363 276.188 530.569 275.982C530.775 275.776 530.891 275.497 530.891 275.205C530.896 275.162 530.896 275.119 530.891 275.077C530.858 274.811 530.73 274.567 530.53 274.39C530.33 274.212 530.072 274.114 529.805 274.113H528.16C527.916 274.115 527.68 274.199 527.488 274.35C527.296 274.501 527.16 274.711 527.1 274.948C527.072 275.031 527.055 275.118 527.049 275.205Z" fill="#E3EDF9"/>
<path d="M522.121 275.205C522.122 275.496 522.239 275.774 522.444 275.98C522.65 276.186 522.929 276.302 523.219 276.304H524.864C525.008 276.304 525.151 276.275 525.285 276.22C525.418 276.165 525.539 276.084 525.641 275.982C525.743 275.88 525.824 275.759 525.879 275.626C525.934 275.492 525.963 275.349 525.963 275.205C525.962 275.103 525.947 275.001 525.918 274.903C525.869 274.725 525.774 274.563 525.642 274.434C525.541 274.332 525.421 274.251 525.289 274.195C525.156 274.14 525.014 274.112 524.871 274.113H523.194C522.982 274.112 522.774 274.172 522.595 274.286C522.416 274.4 522.274 274.563 522.185 274.755C522.133 274.899 522.111 275.052 522.121 275.205Z" fill="#E3EDF9"/>
<path d="M517.739 275.205C517.74 275.496 517.857 275.774 518.062 275.98C518.268 276.186 518.547 276.302 518.837 276.304H520.482C520.774 276.304 521.053 276.188 521.259 275.982C521.465 275.776 521.581 275.497 521.581 275.205C521.584 275.048 521.551 274.892 521.485 274.749C521.396 274.559 521.255 274.398 521.079 274.285C520.903 274.171 520.698 274.109 520.489 274.106H518.844C518.699 274.106 518.556 274.133 518.422 274.188C518.289 274.243 518.167 274.324 518.065 274.426C517.963 274.529 517.882 274.65 517.827 274.784C517.772 274.917 517.744 275.061 517.745 275.205H517.739Z" fill="#E3EDF9"/>
<path d="M512.804 275.205C512.806 275.496 512.922 275.774 513.128 275.98C513.334 276.186 513.612 276.302 513.903 276.304H515.548C515.749 276.304 515.946 276.248 516.117 276.144C516.289 276.04 516.429 275.891 516.522 275.712C516.614 275.534 516.656 275.334 516.643 275.134C516.63 274.933 516.562 274.74 516.447 274.575L516.319 274.434C516.218 274.332 516.098 274.251 515.966 274.195C515.833 274.14 515.691 274.112 515.548 274.113H513.903C513.753 274.115 513.605 274.147 513.468 274.208C513.331 274.268 513.208 274.356 513.106 274.466C512.913 274.664 512.805 274.929 512.804 275.205Z" fill="#E3EDF9"/>
<path opacity="0.1" d="M527.081 274.942C527.059 275.028 527.048 275.116 527.049 275.205C527.05 275.496 527.167 275.774 527.372 275.98C527.578 276.186 527.856 276.302 528.147 276.304H529.792C530.084 276.304 530.363 276.188 530.569 275.982C530.775 275.776 530.891 275.497 530.891 275.205C530.896 275.162 530.896 275.119 530.891 275.077L527.081 274.942Z" fill="black"/>
<path opacity="0.1" d="M522.211 274.768C522.153 274.904 522.122 275.051 522.121 275.199C522.122 275.49 522.239 275.768 522.444 275.974C522.65 276.179 522.928 276.296 523.219 276.297H524.864C525.008 276.297 525.151 276.269 525.285 276.214C525.418 276.159 525.539 276.078 525.641 275.976C525.743 275.874 525.824 275.752 525.879 275.619C525.934 275.486 525.963 275.343 525.963 275.199C525.962 275.096 525.947 274.995 525.918 274.897L522.211 274.768Z" fill="black"/>
<path opacity="0.1" d="M517.899 274.62C517.791 274.794 517.733 274.994 517.732 275.199C517.734 275.49 517.85 275.768 518.056 275.974C518.262 276.179 518.54 276.296 518.831 276.297H520.476C520.767 276.297 521.047 276.182 521.253 275.976C521.459 275.77 521.574 275.49 521.574 275.199C521.577 275.041 521.544 274.885 521.478 274.743L517.899 274.62Z" fill="black"/>
<path opacity="0.1" d="M512.804 275.205C512.806 275.496 512.922 275.774 513.128 275.98C513.334 276.186 513.612 276.302 513.903 276.304H515.548C515.749 276.304 515.946 276.248 516.117 276.144C516.289 276.04 516.429 275.891 516.522 275.712C516.614 275.534 516.656 275.334 516.643 275.134C516.63 274.933 516.562 274.74 516.447 274.575L513.106 274.46C512.912 274.659 512.803 274.927 512.804 275.205Z" fill="black"/>
<path d="M502.948 279.587H534.72V278.141C534.721 277.5 534.471 276.883 534.025 276.421C533.579 275.96 532.972 275.689 532.33 275.668L506.848 274.787C506.342 274.77 505.837 274.855 505.364 275.037C504.892 275.218 504.46 275.493 504.096 275.845C503.731 276.197 503.441 276.619 503.243 277.085C503.045 277.551 502.942 278.052 502.942 278.559L502.948 279.587Z" fill="#D6D6E3"/>
<path d="M635.934 297.005C650.757 271.864 645.386 221.151 645.983 220.181C646.516 219.326 644.473 195.444 630.852 189.61C628.391 184.734 625.969 179.24 625.969 179.24C625.731 179.464 625.468 179.66 625.185 179.825C625.078 179.534 624.973 179.238 624.87 178.938C624.697 178.431 624.536 177.91 624.376 177.39C624.757 177.512 625.145 177.61 625.539 177.685C626.577 177.939 627.671 177.842 628.648 177.409C628.982 177.23 629.283 176.998 629.541 176.722C630.614 176.008 631.206 174.723 631.707 173.509L635.671 164.013C637.457 159.727 639.256 155.416 640.207 150.874C641.622 144.038 641.074 136.941 638.627 130.403C637.688 127.91 636.391 125.417 634.187 123.927C629.773 120.933 623.63 123.002 618.587 121.248C616.929 120.669 615.432 119.693 613.774 119.102C610.196 117.817 606.154 118.504 602.71 120.104C599.267 121.704 596.478 124.248 593.465 126.529C591.98 127.666 589.61 128.842 587.862 130.384C586.166 131.708 584.861 133.307 585.112 135.415C585.395 137.824 587.933 139.27 590.297 139.835C590.689 139.925 591.094 139.996 591.492 140.067C588.686 142.91 586.664 146.431 585.623 150.287C584.581 154.144 584.557 158.205 585.551 162.074C586.546 165.942 588.525 169.488 591.297 172.365C594.069 175.241 597.538 177.351 601.368 178.489C602.573 180.753 603.617 183.099 604.49 185.511C604.606 185.841 604.719 186.173 604.831 186.507C600.937 187.612 597.892 188.531 597.281 189.038C595.437 190.568 599.299 203.957 599.299 203.957C598.316 205.204 597.313 206.624 596.298 208.147C588.6 219.84 583.725 233.163 582.06 247.063C581.418 252.146 580.582 257.343 579.522 262.284L533.474 253.051L533.377 254.189L532.279 253.919L528.822 253.064L528.687 253.842L528.16 253.591C519.596 249.575 505.165 244.448 495.392 249.736C485.08 255.287 507.337 262.663 521.62 266.589C516.884 266.82 512.355 267.958 508.769 270.618C498.412 278.379 527.704 282.42 541.537 283.853L542.096 283.911V284.207L546.889 284.65L548.014 284.753L548.123 286.462C548.123 286.462 554.985 287.586 564.153 288.948C553.687 291.563 540.753 293.375 531.771 294.435C522.249 295.553 514.141 302.184 511.584 311.43C510.757 314.081 510.677 316.909 511.352 319.602C514.025 328.938 510.761 397.616 510.022 412.406L493.092 422.153C493.092 422.153 466.749 425.365 484.296 431.54C485.877 432.08 487.494 432.509 489.134 432.825C486.821 434.316 487.021 436.262 493.838 438.653C511.397 444.808 552.216 438.383 552.216 438.383C552.216 438.383 551.323 431.148 549.871 425.134L550.32 425.173C550.32 425.173 546.105 409.489 552.498 401.58C558.891 393.671 551.425 333.474 551.425 333.474C551.425 333.474 562.618 328.842 596.073 328.54C623.059 335.466 636.211 310.672 636.024 297.854C635.967 297.564 635.954 297.269 635.934 297.005Z" fill="url(#paint0_linear)"/>
<path d="M536.204 258.044L533.345 269.609C533.345 269.609 530.775 269.031 526.92 268.041C513.864 264.662 486.327 256.547 497.365 250.591C506.88 245.451 520.894 250.449 529.214 254.349C532.259 255.782 534.547 257.067 535.568 257.671C535.999 257.915 536.204 258.044 536.204 258.044Z" fill="#F8B9BF"/>
<path opacity="0.1" d="M535.401 261.308L533.345 269.66C533.345 269.66 530.775 269.082 526.92 268.093L529.24 254.401C532.285 255.834 534.572 257.119 535.594 257.723L535.401 261.308Z" fill="black"/>
<path d="M535.408 270.451L527.428 268.478L529.908 253.855L536.288 255.429L535.408 270.451Z" fill="#D9DFE8"/>
<path opacity="0.1" d="M535.408 270.451L531.964 269.602L533.262 254.683L536.288 255.429L535.408 270.451Z" fill="black"/>
<path d="M612.406 209.881C612.406 209.881 597.082 201.028 590.271 226.426C583.461 251.824 582.818 263.524 582.818 263.524L534.425 253.848L532.889 271.524C532.889 271.524 584.63 288.229 591.139 287.014C597.647 285.8 618.767 250.391 618.767 250.391C618.767 250.391 637.965 222.95 612.406 209.881Z" fill="#2C7BE5"/>
<g opacity="0.1">
<path opacity="0.1" d="M536.204 258.044L533.345 269.609C533.345 269.609 530.775 269.031 526.92 268.041C513.864 264.662 486.327 256.547 497.365 250.591C506.88 245.451 520.894 250.449 529.214 254.349C532.259 255.782 534.547 257.067 535.568 257.671C535.999 257.915 536.204 258.044 536.204 258.044Z" fill="black"/>
<path opacity="0.1" d="M535.401 261.308L533.345 269.66C533.345 269.66 530.775 269.082 526.92 268.093L529.24 254.401C532.285 255.834 534.573 257.119 535.594 257.723L535.401 261.308Z" fill="black"/>
<path opacity="0.1" d="M535.408 270.451L527.428 268.478L529.908 253.855L536.288 255.429L535.408 270.451Z" fill="black"/>
<path opacity="0.1" d="M535.408 270.451L531.964 269.602L533.262 254.683L536.288 255.429L535.408 270.451Z" fill="black"/>
<path opacity="0.1" d="M612.406 210.524C612.406 210.524 597.082 201.67 590.271 227.068C583.461 252.467 582.818 264.167 582.818 264.167L534.425 254.491L532.889 272.166C532.889 272.166 584.63 288.871 591.139 287.657C597.647 286.443 618.767 251.034 618.767 251.034C618.767 251.034 637.965 223.593 612.406 210.524Z" fill="black"/>
</g>
<path d="M514.937 406.681L495.18 418.06C495.18 418.06 469.583 421.196 486.635 427.171C503.687 433.146 543.33 426.908 543.33 426.908C543.33 426.908 541.126 409.097 538.055 406.611C534.984 404.124 514.937 406.681 514.937 406.681Z" fill="#68739D"/>
<path d="M591.942 279.015C591.942 279.015 582.112 284.155 564.648 288.595C554.413 291.165 541.601 292.99 532.748 294.031C528.215 294.524 523.932 296.352 520.44 299.284C516.949 302.216 514.408 306.119 513.138 310.498C512.33 313.082 512.252 315.84 512.913 318.465C515.824 328.636 511.481 411.314 511.481 411.314L541.486 414.089C541.486 414.089 537.393 398.856 543.606 391.178C549.819 383.5 542.565 325.057 542.565 325.057C542.565 325.057 553.436 320.56 585.922 320.264C616.017 327.974 628.417 295.033 623.772 285.8C619.126 276.567 591.942 279.015 591.942 279.015Z" fill="#6394E2"/>
<g opacity="0.1">
<path opacity="0.1" d="M514.937 406.681L495.18 418.06C495.18 418.06 469.583 421.196 486.635 427.171C503.687 433.146 543.33 426.908 543.33 426.908C543.33 426.908 541.126 409.097 538.055 406.611C534.984 404.124 514.937 406.681 514.937 406.681Z" fill="black"/>
<path opacity="0.1" d="M591.942 279.015C591.942 279.015 582.112 284.155 564.648 288.595C554.413 291.165 541.602 292.99 532.748 294.031C528.216 294.524 523.932 296.352 520.441 299.284C516.949 302.216 514.408 306.119 513.138 310.498C512.33 313.082 512.252 315.84 512.914 318.465C515.824 328.636 511.481 411.314 511.481 411.314L541.486 414.089C541.486 414.089 537.393 398.856 543.606 391.178C549.819 383.5 542.565 325.057 542.565 325.057C542.565 325.057 553.437 320.56 585.922 320.264C616.017 327.974 628.417 295.033 623.772 285.8C619.126 276.567 591.942 279.015 591.942 279.015Z" fill="black"/>
</g>
<path d="M524.202 413.588L504.445 424.967C504.445 424.967 478.861 428.077 495.9 434.078C512.939 440.079 552.595 433.814 552.595 433.814C552.595 433.814 550.391 416.004 547.32 413.518C544.249 411.031 524.202 413.588 524.202 413.588Z" fill="#68739D"/>
<path d="M595.154 327.171C562.669 327.467 551.798 331.964 551.798 331.964C551.798 331.964 559.052 390.432 552.839 398.085C546.626 405.737 550.719 420.996 550.719 420.996L520.714 418.221C520.714 418.221 520.765 417.244 520.849 415.497C521.568 401.13 524.736 334.438 522.134 325.372C521.477 322.755 521.555 320.007 522.358 317.431C523.622 313.046 526.16 309.136 529.65 306.197C533.14 303.258 537.426 301.423 541.961 300.925C550.809 299.89 563.62 298.091 573.855 295.489L574.357 295.361C591.511 290.953 601.149 285.909 601.149 285.909C601.149 285.909 628.333 283.468 632.979 292.701C633.634 294.165 633.959 295.755 633.93 297.359C634.161 309.817 621.375 333.898 595.154 327.171Z" fill="#6394E2"/>
<path d="M549.903 272.455L548.804 284.342C548.804 284.342 546.163 284.155 542.237 283.744C528.828 282.35 500.385 278.431 510.44 270.894C519.088 264.417 533.686 267.244 542.494 269.866C545.707 270.83 548.174 271.761 549.273 272.205C549.678 272.359 549.903 272.455 549.903 272.455Z" fill="#F8B9BF"/>
<path d="M629.708 194.744C629.708 194.744 625.686 197.892 620.771 201.349C615.38 202.57 609.122 203.578 604.612 204.234C606.225 199.094 605.255 193.311 603.436 188.242C601.458 182.945 598.744 177.952 595.373 173.413L622.564 164.925C620.431 170.329 621.394 176.49 623.206 181.849C624.806 186.411 626.992 190.745 629.708 194.744Z" fill="#F8B9BF"/>
<path opacity="0.1" d="M549.594 275.803L548.804 284.342C548.804 284.342 546.163 284.155 542.238 283.744L542.495 269.859C545.707 270.823 548.174 271.755 549.273 272.198L549.594 275.803Z" fill="black"/>
<path d="M550.963 284.843L542.777 284.085L543.047 269.256L549.594 269.859L550.963 284.843Z" fill="#D9DFE8"/>
<path opacity="0.1" d="M629.708 194.744C629.708 194.744 625.686 197.892 620.771 201.349C615.38 202.57 609.122 203.578 604.612 204.234C606.225 199.094 605.255 193.311 603.436 188.242C610.08 186.314 619.582 183.821 623.213 181.817C624.808 186.389 626.991 190.735 629.708 194.744Z" fill="black"/>
<path d="M624.273 182.138C624.273 182.138 628.822 192.463 631.687 197.128C634.553 201.792 598.393 206.123 598.393 206.123C598.393 206.123 594.64 193.125 596.433 191.634C598.226 190.144 621.247 185.158 624.273 182.138Z" fill="#D9DFE8"/>
<path opacity="0.1" d="M633.981 297.365C632.46 300.048 630.565 302.502 628.353 304.651C612.38 319.827 586.198 304.009 574.382 295.361C591.537 290.953 601.175 285.909 601.175 285.909C601.175 285.909 628.359 283.468 633.004 292.701C633.669 294.165 634.003 295.757 633.981 297.365Z" fill="black"/>
<path d="M628.456 303.565C610.298 320.81 578.983 297.976 570.54 291.249C569.171 290.156 568.407 289.482 568.407 289.482C571.741 286.359 574.671 279.741 576.991 271.646C579.152 263.9 580.714 256 581.662 248.014C583.278 234.513 588.012 221.573 595.489 210.216C596.472 208.738 597.416 207.356 598.399 206.148C605.255 197.43 616.775 191.891 616.775 191.891C641.087 184.785 644.358 220.849 643.709 221.89C643.06 222.931 649.562 283.513 628.456 303.565Z" fill="#2C7BE5"/>
<path opacity="0.1" d="M630.807 254.266C630.807 254.266 615.175 292.431 608.923 294.609C605.345 295.849 586.23 293.497 570.54 291.255C569.171 290.163 568.407 289.488 568.407 289.488C571.741 286.365 574.671 279.748 576.991 271.652L597.198 272.616C597.198 272.616 596.073 260.961 599.042 234.824C602.01 208.686 618.465 215.163 618.465 215.163C645.688 224.28 630.807 254.266 630.807 254.266Z" fill="black"/>
<path opacity="0.1" d="M550.963 284.843L547.429 284.515L546.491 269.577L549.594 269.859L550.963 284.843Z" fill="black"/>
<path d="M618.073 213.479C618.073 213.479 601.618 207.009 598.65 233.14C595.681 259.271 596.806 270.932 596.806 270.932L547.506 268.574L548.618 286.282C548.618 286.282 602.273 295.091 608.525 292.919C614.777 290.747 630.409 252.576 630.409 252.576C630.409 252.576 645.27 222.59 618.073 213.479Z" fill="#2C7BE5"/>
<path opacity="0.1" d="M619.178 174.788C618.458 170.881 622.538 170.933 624.003 167.257L596.812 175.745C598.7 178.279 600.384 180.958 601.849 183.757C603.26 184.176 604.708 184.456 606.173 184.592C612.656 185.209 614.68 178.829 619.178 174.788Z" fill="black"/>
<path d="M629.148 161.949C630.29 149.596 621.201 138.656 608.848 137.515C596.496 136.373 585.556 145.462 584.415 157.815C583.273 170.167 592.362 181.107 604.714 182.248C617.067 183.39 628.007 174.301 629.148 161.949Z" fill="#F8B9BF"/>
<path opacity="0.1" d="M584.617 139.591C584.893 141.93 587.361 143.356 589.654 143.883C591.948 144.41 594.435 144.436 596.446 145.663C599.658 147.642 600.526 152.036 600.121 155.814C599.896 157.948 599.575 160.563 601.322 161.803C601.871 162.139 602.484 162.358 603.121 162.445C604.944 162.814 606.816 162.879 608.66 162.638C609.739 162.497 610.851 162.252 611.872 162.554C613.556 163.043 614.552 164.816 614.879 166.531C615.207 168.247 615.027 170.033 615.29 171.761C615.658 173.926 616.672 175.928 618.2 177.504C619.727 179.08 621.697 180.155 623.849 180.59C624.857 180.835 625.919 180.74 626.868 180.32C628.089 179.677 628.712 178.309 629.239 177.03L633.094 167.804C634.829 163.647 636.577 159.451 637.502 155.043C638.876 148.405 638.343 141.513 635.966 135.164C635.054 132.748 633.795 130.326 631.655 128.874C627.37 125.964 621.375 127.975 616.505 126.304C614.892 125.745 613.44 124.794 611.834 124.222C608.358 122.982 604.432 123.638 601.085 125.199C597.737 126.76 595.032 129.221 592.089 131.463C589.539 133.449 584.135 135.55 584.617 139.591Z" fill="black"/>
<path d="M585.208 139.096C585.485 141.435 587.952 142.861 590.246 143.388C592.539 143.915 595.026 143.941 597.037 145.168C600.249 147.147 601.117 151.542 600.712 155.32C600.487 157.453 600.166 160.068 601.914 161.308C602.462 161.644 603.075 161.863 603.713 161.95C605.535 162.319 607.407 162.385 609.251 162.143C610.33 162.002 611.442 161.758 612.464 162.06C614.147 162.548 615.143 164.321 615.47 166.037C615.798 167.752 615.618 169.538 615.882 171.267C616.249 173.431 617.263 175.433 618.791 177.009C620.319 178.585 622.288 179.661 624.44 180.095C625.449 180.34 626.51 180.245 627.46 179.825C628.68 179.182 629.304 177.814 629.83 176.535L633.686 167.309C635.42 163.152 637.168 158.956 638.093 154.549C639.467 147.91 638.935 141.018 636.558 134.67C635.645 132.254 634.386 129.831 632.246 128.379C627.961 125.469 621.966 127.48 617.096 125.809C615.483 125.25 614.031 124.299 612.425 123.728C608.949 122.488 605.023 123.143 601.676 124.704C598.328 126.266 595.623 128.726 592.681 130.969C590.136 132.954 584.733 135.055 585.208 139.096Z" fill="#B96B6B"/>
<path opacity="0.1" d="M603.815 227.833C603.815 227.833 595.238 261.153 586.699 264.238C578.16 267.322 581.932 268.195 581.932 268.195" fill="black"/>
<path d="M604.22 349.897H594.897V411.173H604.22V349.897Z" fill="#D6D6E3"/>
<path opacity="0.1" d="M604.22 349.897H594.897V354.439H604.22V349.897Z" fill="black"/>
<path d="M576.245 349.575V350.86C576.245 351.256 576.323 351.648 576.475 352.014C576.626 352.379 576.848 352.711 577.128 352.991C577.408 353.271 577.74 353.493 578.106 353.644C578.471 353.796 578.863 353.874 579.259 353.874H619.852C620.248 353.874 620.64 353.796 621.005 353.644C621.371 353.493 621.703 353.271 621.983 352.991C622.263 352.711 622.485 352.379 622.636 352.014C622.788 351.648 622.866 351.256 622.866 350.86V349.575C622.866 349.18 622.788 348.788 622.636 348.422C622.485 348.057 622.263 347.724 621.983 347.445C621.703 347.165 621.371 346.943 621.005 346.791C620.64 346.64 620.248 346.562 619.852 346.562H579.259C578.863 346.562 578.471 346.64 578.106 346.791C577.74 346.943 577.408 347.165 577.128 347.445C576.848 347.724 576.626 348.057 576.475 348.422C576.323 348.788 576.245 349.18 576.245 349.575Z" fill="#D6D6E3"/>
<path opacity="0.1" d="M576.939 347.661H622.178C621.896 347.317 621.541 347.039 621.139 346.849C620.737 346.659 620.297 346.561 619.852 346.562H579.259C578.815 346.562 578.377 346.661 577.976 346.851C577.575 347.041 577.221 347.317 576.939 347.661Z" fill="black"/>
<path d="M634.328 407.838H564.802C562.851 407.838 561.269 409.42 561.269 411.372V411.629C561.269 413.58 562.851 415.162 564.802 415.162H634.328C636.28 415.162 637.862 413.58 637.862 411.629V411.372C637.862 409.42 636.28 407.838 634.328 407.838Z" fill="#D6D6E3"/>
<path d="M633.531 424.492C636.107 424.492 638.196 422.403 638.196 419.827C638.196 417.251 636.107 415.162 633.531 415.162C630.955 415.162 628.867 417.251 628.867 419.827C628.867 422.403 630.955 424.492 633.531 424.492Z" fill="#535461"/>
<path d="M565.593 424.492C568.169 424.492 570.257 422.403 570.257 419.827C570.257 417.251 568.169 415.162 565.593 415.162C563.016 415.162 560.928 417.251 560.928 419.827C560.928 422.403 563.016 424.492 565.593 424.492Z" fill="#535461"/>
<path d="M599.562 424.492C602.138 424.492 604.227 422.403 604.227 419.827C604.227 417.251 602.138 415.162 599.562 415.162C596.986 415.162 594.897 417.251 594.897 419.827C594.897 422.403 596.986 424.492 599.562 424.492Z" fill="#535461"/>
<path d="M657.458 274.633H595.116C592.1 274.633 589.655 277.078 589.655 280.095V280.493C589.655 283.509 592.1 285.954 595.116 285.954H657.458C660.475 285.954 662.92 283.509 662.92 280.493V280.095C662.92 277.078 660.475 274.633 657.458 274.633Z" fill="#D6D6E3"/>
<path opacity="0.1" d="M604.22 407.838C604.22 407.838 600.558 411.455 594.897 407.838H604.22Z" fill="black"/>
<path opacity="0.1" d="M662.92 280.409V281.303C662.92 282.538 662.429 283.723 661.555 284.596C660.682 285.47 659.497 285.961 658.261 285.961H594.313C593.077 285.961 591.892 285.47 591.019 284.596C590.145 283.723 589.655 282.538 589.655 281.303V280.409H662.92Z" fill="black"/>
<path d="M541.023 290.818H528.424V451.355H541.023V290.818Z" fill="#D6D6E3"/>
<path opacity="0.1" d="M541.023 290.818H528.424V301.227H541.023V290.818Z" fill="black"/>
<path d="M158.988 354.279H149.666V415.554H158.988V354.279Z" fill="#D6D6E3"/>
<path opacity="0.1" d="M158.988 354.279H149.666V358.821H158.988V354.279Z" fill="black"/>
<path d="M177.634 353.964V355.249C177.634 356.048 177.316 356.814 176.751 357.379C176.186 357.945 175.42 358.262 174.621 358.262H134.027C133.228 358.262 132.461 357.945 131.896 357.379C131.331 356.814 131.014 356.048 131.014 355.249V353.964C131.02 353.169 131.341 352.409 131.905 351.85C132.47 351.29 133.232 350.976 134.027 350.976H174.621C175.016 350.976 175.408 351.054 175.774 351.205C176.139 351.357 176.472 351.579 176.751 351.859C177.031 352.138 177.253 352.471 177.405 352.836C177.556 353.202 177.634 353.594 177.634 353.989V353.964Z" fill="#D6D6E3"/>
<path opacity="0.1" d="M176.947 352.043H131.701C131.986 351.704 132.343 351.433 132.745 351.249C133.147 351.065 133.585 350.971 134.027 350.976H174.621C175.063 350.971 175.501 351.065 175.903 351.249C176.305 351.433 176.661 351.704 176.947 352.043Z" fill="black"/>
<path d="M189.09 412.22H119.564C117.613 412.22 116.03 413.802 116.03 415.754V416.011C116.03 417.962 117.613 419.544 119.564 419.544H189.09C191.042 419.544 192.624 417.962 192.624 416.011V415.754C192.624 413.802 191.042 412.22 189.09 412.22Z" fill="#D6D6E3"/>
<path d="M120.361 428.874C122.937 428.874 125.025 426.785 125.025 424.209C125.025 421.633 122.937 419.544 120.361 419.544C117.785 419.544 115.696 421.633 115.696 424.209C115.696 426.785 117.785 428.874 120.361 428.874Z" fill="#535461"/>
<path d="M188.293 428.874C190.869 428.874 192.958 426.785 192.958 424.209C192.958 421.633 190.869 419.544 188.293 419.544C185.717 419.544 183.629 421.633 183.629 424.209C183.629 426.785 185.717 428.874 188.293 428.874Z" fill="#535461"/>
<path d="M154.324 428.874C156.9 428.874 158.988 426.785 158.988 424.209C158.988 421.633 156.9 419.544 154.324 419.544C151.748 419.544 149.659 421.633 149.659 424.209C149.659 426.785 151.748 428.874 154.324 428.874Z" fill="#535461"/>
<path opacity="0.1" d="M149.666 412.22C149.666 412.22 153.328 415.837 158.988 412.22H149.666Z" fill="black"/>
<path d="M387.503 227.756C387.503 227.756 377.043 208.744 380.865 192.219C382.512 185.298 381.87 178.029 379.034 171.504C377.673 168.418 376.032 165.463 374.132 162.676" stroke="#535461" stroke-width="2" stroke-miterlimit="10"/>
<path d="M376.451 152.242C376.998 154.735 374.074 162.953 374.074 162.953C374.074 162.953 367.977 156.72 367.424 154.227C367.239 153.618 367.182 152.977 367.257 152.345C367.332 151.712 367.536 151.102 367.858 150.553C368.179 150.003 368.611 149.526 369.126 149.151C369.641 148.776 370.227 148.512 370.849 148.375C371.471 148.238 372.114 148.23 372.739 148.354C373.364 148.477 373.956 148.728 374.479 149.091C375.002 149.454 375.445 149.922 375.779 150.464C376.112 151.006 376.331 151.612 376.419 152.242H376.451Z" fill="#2C7BE5"/>
<path d="M386.944 164.405C386.05 166.795 379.131 172.115 379.131 172.115C379.131 172.115 377.396 163.569 378.295 161.192C378.488 160.6 378.798 160.053 379.208 159.584C379.617 159.115 380.117 158.734 380.677 158.463C381.238 158.192 381.847 158.037 382.469 158.008C383.091 157.978 383.712 158.074 384.296 158.291C384.879 158.508 385.413 158.84 385.865 159.268C386.317 159.696 386.678 160.211 386.926 160.782C387.174 161.353 387.304 161.969 387.308 162.591C387.312 163.214 387.19 163.83 386.95 164.405H386.944Z" fill="#2C7BE5"/>
<path d="M391.801 188.062C389.822 189.675 381.167 190.76 381.167 190.76C381.167 190.76 383.988 182.511 385.967 180.898C386.437 180.509 386.979 180.216 387.562 180.038C388.145 179.859 388.758 179.798 389.365 179.857C389.972 179.916 390.562 180.096 391.099 180.384C391.637 180.672 392.112 181.065 392.497 181.538C392.882 182.011 393.17 182.555 393.344 183.14C393.517 183.725 393.573 184.338 393.508 184.945C393.444 185.551 393.26 186.139 392.966 186.674C392.673 187.209 392.277 187.681 391.801 188.062Z" fill="#2C7BE5"/>
<path d="M391.447 206.785C389.771 208.712 381.424 211.244 381.424 211.244C381.424 211.244 382.806 202.634 384.483 200.713C384.875 200.235 385.359 199.84 385.907 199.552C386.454 199.265 387.054 199.09 387.671 199.039C388.287 198.987 388.907 199.06 389.495 199.253C390.083 199.446 390.626 199.755 391.092 200.162C391.558 200.568 391.938 201.064 392.208 201.62C392.479 202.177 392.635 202.781 392.668 203.399C392.7 204.017 392.609 204.635 392.398 205.216C392.187 205.798 391.862 206.331 391.441 206.785H391.447Z" fill="#2C7BE5"/>
<path d="M369.763 174.666C371.935 176.008 380.653 175.951 380.653 175.951C380.653 175.951 376.798 168.131 374.627 166.788C374.111 166.449 373.533 166.217 372.926 166.105C372.319 165.993 371.695 166.004 371.093 166.137C370.49 166.27 369.92 166.523 369.417 166.88C368.913 167.237 368.486 167.691 368.161 168.216C367.836 168.74 367.62 169.325 367.524 169.935C367.429 170.544 367.457 171.167 367.606 171.766C367.755 172.365 368.023 172.927 368.394 173.421C368.764 173.915 369.23 174.329 369.763 174.64V174.666Z" fill="#2C7BE5"/>
<path d="M369.634 196.575C372.108 197.218 380.416 194.57 380.416 194.57C380.416 194.57 374.395 188.261 371.922 187.631C370.755 187.383 369.538 187.596 368.525 188.225C367.511 188.854 366.781 189.85 366.485 191.005C366.19 192.161 366.352 193.386 366.939 194.424C367.526 195.462 368.492 196.233 369.634 196.575Z" fill="#2C7BE5"/>
<path d="M372.416 217.881C374.742 218.922 383.384 217.726 383.384 217.726C383.384 217.726 378.514 210.492 376.188 209.451C375.069 208.951 373.798 208.916 372.653 209.353C371.508 209.79 370.584 210.665 370.084 211.783C369.584 212.902 369.549 214.173 369.986 215.318C370.424 216.463 371.298 217.387 372.416 217.887V217.881Z" fill="#2C7BE5"/>
<path d="M376.451 152.242C376.998 154.735 374.074 162.953 374.074 162.953C374.074 162.953 367.977 156.72 367.424 154.227C367.239 153.618 367.182 152.977 367.257 152.345C367.332 151.712 367.536 151.102 367.858 150.553C368.179 150.003 368.611 149.526 369.126 149.151C369.641 148.776 370.227 148.512 370.849 148.375C371.471 148.238 372.114 148.23 372.739 148.354C373.364 148.477 373.956 148.728 374.479 149.091C375.002 149.454 375.445 149.922 375.779 150.464C376.112 151.006 376.331 151.612 376.419 152.242H376.451Z" fill="#2C7BE5"/>
<path d="M386.944 164.405C386.05 166.795 379.131 172.115 379.131 172.115C379.131 172.115 377.396 163.569 378.295 161.192C378.488 160.6 378.798 160.053 379.208 159.584C379.617 159.115 380.117 158.734 380.677 158.463C381.238 158.192 381.847 158.037 382.469 158.008C383.091 157.978 383.712 158.074 384.296 158.291C384.879 158.508 385.413 158.84 385.865 159.268C386.317 159.696 386.678 160.211 386.926 160.782C387.174 161.353 387.304 161.969 387.308 162.591C387.312 163.214 387.19 163.83 386.95 164.405H386.944Z" fill="#2C7BE5"/>
<path d="M391.801 188.062C389.822 189.675 381.167 190.76 381.167 190.76C381.167 190.76 383.988 182.511 385.967 180.898C386.437 180.509 386.979 180.216 387.562 180.038C388.145 179.859 388.758 179.798 389.365 179.857C389.972 179.916 390.562 180.096 391.099 180.384C391.637 180.672 392.112 181.065 392.497 181.538C392.882 182.011 393.17 182.555 393.344 183.14C393.517 183.725 393.573 184.338 393.508 184.945C393.444 185.551 393.26 186.139 392.966 186.674C392.673 187.209 392.277 187.681 391.801 188.062Z" fill="#2C7BE5"/>
<path d="M391.447 206.785C389.771 208.712 381.424 211.244 381.424 211.244C381.424 211.244 382.806 202.634 384.483 200.713C384.875 200.235 385.359 199.84 385.907 199.552C386.454 199.265 387.054 199.09 387.671 199.039C388.287 198.987 388.907 199.06 389.495 199.253C390.083 199.446 390.626 199.755 391.092 200.162C391.558 200.568 391.938 201.064 392.208 201.62C392.479 202.177 392.635 202.781 392.668 203.399C392.7 204.017 392.609 204.635 392.398 205.216C392.187 205.798 391.862 206.331 391.441 206.785H391.447Z" fill="#2C7BE5"/>
<path d="M369.763 174.666C371.935 176.008 380.653 175.951 380.653 175.951C380.653 175.951 376.798 168.131 374.627 166.788C374.111 166.449 373.533 166.217 372.926 166.105C372.319 165.993 371.695 166.004 371.093 166.137C370.49 166.27 369.92 166.523 369.417 166.88C368.913 167.237 368.486 167.691 368.161 168.216C367.836 168.74 367.62 169.325 367.524 169.935C367.429 170.544 367.457 171.167 367.606 171.766C367.755 172.365 368.023 172.927 368.394 173.421C368.764 173.915 369.23 174.329 369.763 174.64V174.666Z" fill="#2C7BE5"/>
<path d="M369.634 196.575C372.108 197.218 380.416 194.57 380.416 194.57C380.416 194.57 374.395 188.261 371.922 187.631C370.755 187.383 369.538 187.596 368.525 188.225C367.511 188.854 366.781 189.85 366.485 191.005C366.19 192.161 366.352 193.386 366.939 194.424C367.526 195.462 368.492 196.233 369.634 196.575Z" fill="#2C7BE5"/>
<path d="M372.416 217.881C374.742 218.922 383.384 217.726 383.384 217.726C383.384 217.726 378.514 210.492 376.188 209.451C375.069 208.951 373.798 208.916 372.653 209.353C371.508 209.79 370.584 210.665 370.084 211.783C369.584 212.902 369.549 214.173 369.986 215.318C370.424 216.463 371.298 217.387 372.416 217.887V217.881Z" fill="#2C7BE5"/>
<path d="M383.249 280.487C381.744 280.487 380.255 280.179 378.874 279.581C377.493 278.984 376.249 278.11 375.219 277.013C374.189 275.916 373.394 274.619 372.885 273.203C372.375 271.787 372.161 270.282 372.256 268.78L375.333 220.014H391.165L394.242 268.78C394.337 270.282 394.123 271.787 393.614 273.203C393.104 274.619 392.31 275.916 391.279 277.013C390.249 278.11 389.005 278.984 387.624 279.581C386.243 280.179 384.754 280.487 383.249 280.487Z" fill="#2C7BE5"/>
<path opacity="0.1" d="M62.7087 40.7478H53.7136V78.0132H62.7087V40.7478Z" fill="#2C7BE5"/>
<path opacity="0.1" d="M74.2738 40.7478H65.2787V78.0132H74.2738V40.7478Z" fill="#2C7BE5"/>
<path opacity="0.1" d="M85.839 40.7478H76.8439V78.0132H85.839V40.7478Z" fill="#2C7BE5"/>
<path opacity="0.1" d="M97.4042 40.7478H88.4091V78.0132H97.4042V40.7478Z" fill="#2C7BE5"/>
<path opacity="0.1" d="M120.534 40.7478H111.539V78.0132H120.534V40.7478Z" fill="#2C7BE5"/>
<path opacity="0.1" d="M132.099 40.7478H123.104V78.0132H132.099V40.7478Z" fill="#2C7BE5"/>
<path opacity="0.1" d="M62.7087 47.8154H53.7136V49.7429H62.7087V47.8154Z" fill="#2C7BE5"/>
<path opacity="0.1" d="M62.7087 70.9456H53.7136V72.8732H62.7087V70.9456Z" fill="#2C7BE5"/>
<path opacity="0.1" d="M74.2738 47.8154H65.2787V49.7429H74.2738V47.8154Z" fill="#2C7BE5"/>
<path opacity="0.1" d="M74.2738 70.9456H65.2787V72.8732H74.2738V70.9456Z" fill="#2C7BE5"/>
<path opacity="0.1" d="M85.839 47.8154H76.8439V49.7429H85.839V47.8154Z" fill="#2C7BE5"/>
<path opacity="0.1" d="M85.839 70.9456H76.8439V72.8732H85.839V70.9456Z" fill="#2C7BE5"/>
<path opacity="0.1" d="M97.4042 47.8154H88.4091V49.7429H97.4042V47.8154Z" fill="#2C7BE5"/>
<path opacity="0.1" d="M97.4042 70.9456H88.4091V72.8732H97.4042V70.9456Z" fill="#2C7BE5"/>
<path opacity="0.1" d="M108.969 47.8154H99.9741V49.7429H108.969V47.8154Z" fill="#2C7BE5"/>
<path opacity="0.1" d="M108.969 70.9456H99.9741V72.8732H108.969V70.9456Z" fill="#2C7BE5"/>
<path opacity="0.1" d="M120.534 47.8154H111.539V49.7429H120.534V47.8154Z" fill="#2C7BE5"/>
<path opacity="0.1" d="M120.534 70.9456H111.539V72.8732H120.534V70.9456Z" fill="#2C7BE5"/>
<path opacity="0.1" d="M132.099 47.8154H123.104V49.7429H132.099V47.8154Z" fill="#2C7BE5"/>
<path opacity="0.1" d="M132.099 70.9456H123.104V72.8732H132.099V70.9456Z" fill="#2C7BE5"/>
<path opacity="0.1" d="M108.969 40.7478H99.9741V78.0132H108.969V40.7478Z" fill="#2C7BE5"/>
<path opacity="0.1" d="M140.559 40.5768L132.396 44.3555L148.05 78.1733L156.213 74.3946L140.559 40.5768Z" fill="#2C7BE5"/>
<path opacity="0.1" d="M143.53 46.9967L135.367 50.7755L136.177 52.5246L144.34 48.7459L143.53 46.9967Z" fill="#2C7BE5"/>
<path opacity="0.1" d="M153.242 67.9848L145.079 71.7635L145.889 73.5127L154.052 69.7339L153.242 67.9848Z" fill="#2C7BE5"/>
<path d="M250.025 424.999L233.699 414.584C233.616 399.916 233.384 331.816 236.436 322.706C237.223 320.068 237.268 317.265 236.565 314.604C234.444 305.345 226.709 298.432 217.334 296.909C208.494 295.47 195.772 293.112 185.53 290.066C194.66 289.122 201.503 288.306 201.503 288.306L201.683 286.616L207.562 286.333V286.083L208.121 286.051C221.851 285.235 251.008 282.517 241.101 274.383C237.702 271.594 233.269 270.277 228.591 269.834C242.893 266.57 265.246 260.248 255.281 254.304C245.81 248.663 231.309 253.096 222.654 256.701L222.121 256.926L222.025 256.148L218.568 256.842L217.469 257.061L217.418 255.93L168.915 263.422C168.535 257.864 167.874 252.329 166.936 246.838C168.022 239.604 173.072 229.054 171.292 223.393C169.224 216.82 160.73 214.668 157.157 208.731C156.219 207.183 155.288 205.731 154.375 204.459C152.378 201.745 150.083 199.264 147.532 197.063C147.687 193.246 148.541 189.489 150.051 185.98C151.019 183.633 152.153 181.357 153.444 179.17C159.097 177.767 164.002 174.261 167.159 169.366C170.316 164.47 171.486 158.555 170.431 152.827C173.503 154.144 177.236 154.279 179.157 151.709L178.244 151.355C178.334 151.259 178.424 151.163 178.501 151.053C176.632 150.34 174.646 149.531 173.181 148.233C172.81 147.816 172.497 147.352 172.25 146.851C171.363 145.052 171.466 142.894 170.618 141.069C170.219 140.238 169.652 139.499 168.954 138.897C167.466 137.376 165.584 136.299 163.518 135.787C161.199 135.113 158.757 134.772 156.534 133.86C153.504 130.342 149.505 127.795 145.035 126.538C140.566 125.281 135.825 125.369 131.406 126.792L130.602 127.069C131.16 124.379 130.64 121.579 129.154 119.269C127.667 116.96 125.334 115.326 122.655 114.72C119.976 114.113 117.167 114.583 114.831 116.027C112.495 117.472 110.819 119.775 110.164 122.443C110.368 120.101 111.355 117.896 112.966 116.185C112.799 116.326 112.625 116.461 112.464 116.609C111.461 117.552 110.654 118.684 110.088 119.939C109.522 121.194 109.209 122.549 109.166 123.925C109.124 125.302 109.353 126.673 109.841 127.961C110.328 129.249 111.065 130.428 112.008 131.431L112.195 131.611C112.936 132.519 113.825 133.296 114.822 133.911C112.986 133.263 111.366 132.116 110.145 130.598C108.924 129.081 108.15 127.254 107.909 125.321C107.909 125.539 107.909 125.758 107.909 125.964C107.989 127.344 108.342 128.695 108.946 129.939C109.551 131.183 110.396 132.295 111.432 133.211C112.468 134.128 113.675 134.83 114.984 135.277C116.292 135.725 117.676 135.909 119.057 135.82L119.346 135.787L119.191 135.999C116.204 140.394 114.787 145.669 115.172 150.969C115.557 156.27 117.72 161.285 121.312 165.201C121.738 166.178 122.305 167.087 122.995 167.9C123.238 168.177 123.497 168.439 123.773 168.684C125.532 170.54 127.939 171.649 130.493 171.781C130.922 172.29 131.378 172.781 131.862 173.252C131.438 175.055 130.884 176.824 130.204 178.546C128.835 181.976 127.13 185.262 125.115 188.357C111.237 192.302 110.016 215.87 110.518 216.763C111.115 217.829 108.449 254.838 118.729 299.543C118.305 312.323 125.758 333.455 152.216 327.884C185.305 329.651 196.157 334.721 196.157 334.721C196.157 334.721 193.016 392.27 197.5 400.648C200.308 405.897 198.316 413.608 196.215 419.05C195.436 420.396 194.815 421.827 194.365 423.316C193.722 424.672 193.253 425.494 193.253 425.494H193.703C192.007 431.386 190.805 438.498 190.805 438.498C190.805 438.498 230.917 446.639 248.56 441.312C255.409 439.244 255.692 437.329 253.469 435.748C255.106 435.508 256.725 435.153 258.314 434.688C275.97 429.362 250.025 424.999 250.025 424.999Z" fill="url(#paint1_linear)"/>
<path d="M162.747 151.799C162.747 156.373 161.391 160.845 158.849 164.649C156.307 168.453 152.695 171.418 148.468 173.168C144.242 174.919 139.591 175.377 135.104 174.485C130.618 173.592 126.496 171.389 123.261 168.154C120.026 164.919 117.824 160.798 116.931 156.311C116.039 151.824 116.497 147.174 118.247 142.947C119.998 138.721 122.963 135.108 126.766 132.567C130.57 130.025 135.042 128.669 139.617 128.669C142.654 128.669 145.662 129.267 148.468 130.429C151.275 131.592 153.825 133.295 155.972 135.443C158.12 137.591 159.824 140.141 160.986 142.947C162.149 145.753 162.747 148.761 162.747 151.799Z" fill="#FA595F"/>
<path d="M214.848 260.466L217.193 272.173C217.193 272.173 219.802 271.703 223.663 270.888C236.854 268.093 264.726 261.192 253.932 254.754C244.647 249.222 230.429 253.572 221.948 257.106C218.838 258.391 216.499 259.586 215.452 260.145C215.06 260.344 214.848 260.466 214.848 260.466Z" fill="#F8B9BF"/>
<path opacity="0.1" d="M215.51 263.768L217.193 272.173C217.193 272.173 219.802 271.703 223.663 270.887L221.948 257.106C218.838 258.391 216.499 259.586 215.452 260.145L215.51 263.768Z" fill="black"/>
<path d="M215.105 272.899L223.162 271.286L221.337 256.566L214.887 257.857L215.105 272.899Z" fill="#D9DFE8"/>
<path opacity="0.1" d="M215.105 272.899L218.581 272.198L217.945 257.247L214.887 257.857L215.105 272.899Z" fill="black"/>
<path d="M140.844 208.982C140.844 208.982 156.528 200.809 162.227 226.49C167.926 252.171 168.009 263.878 168.009 263.878L216.788 256.341L217.547 274.068C217.547 274.068 165.118 288.479 158.674 286.976C152.229 285.472 132.665 249.164 132.665 249.164C132.665 249.164 114.739 220.926 140.844 208.982Z" fill="#2C7BE5"/>
<g opacity="0.1">
<path opacity="0.1" d="M214.848 260.466L217.193 272.173C217.193 272.173 219.802 271.703 223.663 270.888C236.854 268.093 264.726 261.192 253.932 254.754C244.648 249.222 230.429 253.572 221.948 257.106C218.838 258.391 216.499 259.586 215.452 260.145C215.06 260.344 214.848 260.466 214.848 260.466Z" fill="black"/>
<path opacity="0.1" d="M215.51 263.768L217.193 272.173C217.193 272.173 219.802 271.703 223.663 270.887L221.948 257.106C218.838 258.391 216.499 259.586 215.452 260.145L215.51 263.768Z" fill="black"/>
<path opacity="0.1" d="M215.105 272.899L223.162 271.286L221.337 256.566L214.887 257.857L215.105 272.899Z" fill="black"/>
<path opacity="0.1" d="M215.105 272.899L218.581 272.198L217.945 257.247L214.887 257.857L215.105 272.899Z" fill="black"/>
<path opacity="0.1" d="M142.129 210.267C142.129 210.267 157.813 202.094 163.512 227.775C169.211 253.456 169.294 265.163 169.294 265.163L218.073 257.626L218.832 275.353C218.832 275.353 166.403 289.764 159.959 288.261C153.514 286.757 133.95 250.449 133.95 250.449C133.95 250.449 116.024 222.211 142.129 210.267Z" fill="black"/>
</g>
<path d="M229.568 409.9L248.804 422.108C248.804 422.108 274.241 426.368 256.939 431.591C239.636 436.815 200.314 428.829 200.314 428.829C200.314 428.829 203.302 411.134 206.483 408.789C209.663 406.444 229.568 409.9 229.568 409.9Z" fill="#F37291"/>
<path d="M158.249 278.951C158.249 278.951 167.842 284.521 185.093 289.726C195.207 292.778 207.928 295.136 216.718 296.568C221.227 297.265 225.427 299.285 228.785 302.374C232.143 305.463 234.506 309.481 235.575 313.916C236.265 316.524 236.223 319.272 235.453 321.858C232.099 331.894 232.78 414.681 232.78 414.681L202.685 416.126C202.685 416.126 207.446 401.085 201.58 393.144C195.714 385.202 205.538 327.139 205.538 327.139C205.538 327.139 194.879 322.166 162.432 320.438C132.022 326.863 121.093 293.356 126.143 284.335C131.194 275.314 158.249 278.951 158.249 278.951Z" fill="#96A2D0"/>
<g opacity="0.1">
<path opacity="0.1" d="M229.568 409.9L248.804 422.108C248.804 422.108 274.241 426.368 256.939 431.591C239.636 436.815 200.314 428.829 200.314 428.829C200.314 428.829 203.302 411.134 206.483 408.789C209.663 406.444 229.568 409.9 229.568 409.9Z" fill="black"/>
<path opacity="0.1" d="M158.249 278.951C158.249 278.951 167.842 284.521 185.093 289.726C195.207 292.778 207.928 295.136 216.718 296.568C221.227 297.265 225.427 299.285 228.785 302.374C232.143 305.463 234.506 309.481 235.575 313.916C236.265 316.524 236.223 319.272 235.453 321.858C232.099 331.894 232.78 414.681 232.78 414.681L202.685 416.126C202.685 416.126 207.446 401.085 201.58 393.144C195.714 385.202 205.538 327.139 205.538 327.139C205.538 327.139 194.879 322.166 162.432 320.438C132.022 326.863 121.093 293.356 126.143 284.335C131.194 275.314 158.249 278.951 158.249 278.951Z" fill="black"/>
</g>
<path d="M219.982 416.396L239.218 428.604C239.218 428.604 264.655 432.864 247.352 438.087C230.05 443.311 190.728 435.324 190.728 435.324C190.728 435.324 193.716 417.63 196.896 415.285C200.077 412.939 219.982 416.396 219.982 416.396Z" fill="#F37291"/>
<path d="M152.878 326.927C185.325 328.655 195.984 333.628 195.984 333.628C195.984 333.628 192.906 390.053 197.269 398.265C201.927 406.977 193.105 422.616 193.105 422.616L223.201 421.17C223.201 421.17 223.201 420.193 223.201 418.446C223.111 404.066 222.892 337.297 225.88 328.347C226.65 325.761 226.692 323.014 226.002 320.405C224.932 315.97 222.568 311.953 219.211 308.865C215.853 305.776 211.653 303.755 207.144 303.058C198.348 301.631 185.633 299.273 175.52 296.222L175.025 296.067C158.082 290.927 148.683 285.447 148.683 285.447C148.683 285.447 128.643 284.059 123.625 293.08C122.982 294.249 120.213 296.549 120.097 298.406C119.346 310.832 126.42 332.497 152.878 326.927Z" fill="#96A2D0"/>
<path d="M200.533 274.261L201.105 286.186C201.105 286.186 203.752 286.115 207.697 285.877C221.157 285.074 249.749 282.414 240.034 274.441C231.682 267.585 216.968 269.77 208.057 271.999C204.786 272.821 202.274 273.644 201.182 274.036C200.758 274.177 200.533 274.261 200.533 274.261Z" fill="#F8B9BF"/>
<path d="M124.197 193.106C124.197 193.106 128.052 196.427 132.832 200.102C138.165 201.555 144.397 202.846 148.85 203.701C147.468 198.464 148.695 192.778 150.732 187.773C152.942 182.566 155.875 177.698 159.445 173.31L132.652 163.627C134.547 169.121 133.295 175.257 131.258 180.506C129.46 184.994 127.086 189.229 124.197 193.106Z" fill="#F8B9BF"/>
<path opacity="0.1" d="M200.694 277.621L201.105 286.186C201.105 286.186 203.752 286.115 207.697 285.877L208.057 271.993C204.786 272.815 202.274 273.637 201.182 274.029L200.694 277.621Z" fill="black"/>
<path d="M198.933 286.59L207.138 286.198L207.523 271.369L200.957 271.684L198.933 286.59Z" fill="#D9DFE8"/>
<path d="M120.682 301.876C138.03 319.911 170.38 298.477 179.08 292.129C180.493 291.094 181.283 290.458 181.283 290.458C178.071 287.188 172.931 284.162 170.958 275.97C169.076 267.609 167.801 259.123 167.142 250.578C166.609 243.799 173.612 230.891 171.588 224.453C169.564 218.016 161.231 215.902 157.729 210.074C156.81 208.558 155.898 207.131 154.998 205.885C148.535 196.89 137.272 190.831 137.272 190.831C113.274 182.639 111.391 216.91 111.989 217.977C112.587 219.044 109.843 256.823 120.682 301.876Z" fill="#2C7BE5"/>
<path opacity="0.1" d="M120.502 252.518C120.502 252.518 134.438 291.339 140.587 293.786C144.108 295.187 163.313 293.677 179.08 292.129C180.493 291.094 181.283 290.458 181.283 290.458C178.071 287.188 175.456 280.448 173.49 272.262L153.257 272.333C153.257 272.333 154.896 260.768 153.084 234.496C151.272 208.224 134.547 214 134.547 214C106.965 221.909 120.502 252.518 120.502 252.518Z" fill="black"/>
<path opacity="0.1" d="M198.933 286.59L202.473 286.423L204.073 271.536L200.957 271.684L198.933 286.59Z" fill="black"/>
<path d="M135.023 212.329C135.023 212.329 151.728 206.592 153.559 232.825C155.39 259.059 153.752 270.663 153.752 270.663L203.109 270.483L201.214 288.126C201.214 288.126 147.243 294.551 141.075 292.116C134.907 289.681 120.984 250.854 120.984 250.854C120.984 250.854 107.434 220.239 135.023 212.329Z" fill="#2C7BE5"/>
<path opacity="0.1" d="M135.633 173.644C136.526 169.789 132.421 169.667 131.136 165.934L157.941 175.572C155.944 178.019 154.144 180.621 152.557 183.352C151.129 183.708 149.67 183.923 148.201 183.995C141.686 184.316 139.945 177.872 135.633 173.644Z" fill="black"/>
<path d="M149.729 181.744C162.121 181.149 171.683 170.622 171.088 158.23C170.493 145.839 159.965 136.277 147.574 136.872C135.183 137.467 125.62 147.995 126.216 160.386C126.811 172.777 137.338 182.339 149.729 181.744Z" fill="#F8B9BF"/>
<path opacity="0.1" d="M137.047 228.99C137.047 228.99 144.153 262.651 152.544 266.088C160.935 269.525 157.132 270.258 157.132 270.258" fill="black"/>
<path opacity="0.1" d="M166.332 248.001C166.332 248.001 160.396 249.858 153.482 240.985L166.332 248.001Z" fill="black"/>
<path d="M121.627 138.306C127.304 138.306 131.907 133.704 131.907 128.026C131.907 122.348 127.304 117.746 121.627 117.746C115.949 117.746 111.346 122.348 111.346 128.026C111.346 133.704 115.949 138.306 121.627 138.306Z" fill="#FA595F"/>
<path d="M114.405 133.455C112.618 131.55 111.623 129.035 111.623 126.423C111.623 123.811 112.618 121.296 114.405 119.391C114.238 119.526 114.071 119.661 113.917 119.808C111.93 121.676 110.766 124.256 110.682 126.982C110.597 129.707 111.599 132.355 113.467 134.342C115.334 136.329 117.915 137.492 120.64 137.577C123.366 137.661 126.013 136.659 128 134.792C128.161 134.644 128.302 134.483 128.444 134.329C126.431 135.995 123.859 136.831 121.251 136.669C118.644 136.507 116.196 135.358 114.405 133.455Z" fill="#FA595F"/>
<path d="M120.277 137.336C117.668 137.493 115.097 136.65 113.087 134.98C111.077 133.309 109.78 130.935 109.458 128.341C109.458 128.553 109.458 128.765 109.458 128.983C109.628 131.705 110.872 134.247 112.917 136.051C113.93 136.944 115.108 137.629 116.385 138.066C117.662 138.504 119.013 138.686 120.361 138.602C121.708 138.517 123.026 138.168 124.239 137.575C125.451 136.981 126.535 136.154 127.428 135.142C128.321 134.13 129.006 132.951 129.444 131.674C129.882 130.397 130.064 129.046 129.979 127.698C129.979 127.48 129.934 127.274 129.909 127.056C129.914 129.673 128.92 132.195 127.13 134.105C125.341 136.015 122.89 137.171 120.277 137.336Z" fill="#FA595F"/>
<path opacity="0.1" d="M156.932 136.963C159.329 138.145 162.072 138.473 164.643 139.218C167.213 139.964 169.834 141.326 170.965 143.755C171.794 145.541 171.697 147.655 172.565 149.421C173.811 151.992 176.69 153.174 179.337 154.182C177.062 157.234 172.179 156.406 168.992 154.33C165.805 152.255 163.062 149.19 159.355 148.387C157.526 148.026 155.63 148.239 153.926 148.997C152.223 149.755 150.796 151.021 149.839 152.621C148.824 154.401 148.464 156.476 147.963 158.455C146.678 163.672 144.108 168.864 139.61 171.826C135.113 174.788 128.412 174.768 124.884 170.714C122.828 168.35 122.141 165.131 121.53 162.06C121.183 160.628 121.016 159.158 121.036 157.684C121.241 153.996 123.696 150.854 126.176 148.117C129.099 144.905 132.209 141.821 135.318 138.756C138.004 136.109 141.101 131.624 145.149 131.309C149.813 130.937 153.109 135.094 156.932 136.963Z" fill="black"/>
<path d="M156.29 136.321C158.686 137.503 161.43 137.831 164 138.576C166.57 139.321 169.191 140.683 170.322 143.112C171.151 144.898 171.055 147.012 171.922 148.779C173.169 151.349 176.047 152.531 178.694 153.54C176.42 156.592 171.537 155.763 168.35 153.688C165.163 151.612 162.419 148.548 158.712 147.745C156.883 147.384 154.987 147.597 153.284 148.355C151.581 149.113 150.153 150.378 149.197 151.979C148.181 153.758 147.822 155.834 147.321 157.813C146.036 163.03 143.465 168.221 138.968 171.183C134.47 174.145 127.769 174.126 124.242 170.072C122.186 167.707 121.498 164.488 120.888 161.417C120.54 159.985 120.374 158.515 120.393 157.042C120.599 153.354 123.053 150.212 125.533 147.475C128.457 144.262 131.566 141.178 134.676 138.113C137.362 135.466 140.459 130.982 144.506 130.667C149.171 130.294 152.467 134.451 156.29 136.321Z" fill="#FA595F"/>
<path d="M158.77 279.015H96.4275C93.4113 279.015 90.9662 281.46 90.9662 284.476V284.875C90.9662 287.891 93.4113 290.336 96.4275 290.336H158.77C161.786 290.336 164.231 287.891 164.231 284.875V284.476C164.231 281.46 161.786 279.015 158.77 279.015Z" fill="#D6D6E3"/>
<path opacity="0.1" d="M90.9662 284.798V285.691C90.9662 286.926 91.457 288.111 92.3305 288.985C93.2041 289.858 94.3889 290.349 95.6244 290.349H159.573C160.809 290.349 161.993 289.858 162.867 288.985C163.741 288.111 164.231 286.926 164.231 285.691V284.798H90.9662Z" fill="black"/>
<path d="M232.588 290.818H219.988V451.336H232.588V290.818Z" fill="#D6D6E3"/>
<path opacity="0.1" d="M232.588 290.818H219.988V301.227H232.588V290.818Z" fill="black"/>
<path d="M547.05 279.311H213.961V300.128H547.05V279.311Z" fill="#D6D6E3"/>
</g>
<defs>
<linearGradient id="paint0_linear" x1="555.187" y1="445.891" x2="584.956" y2="115.122" gradientUnits="userSpaceOnUse">
<stop stop-color="#808080" stop-opacity="0.25"/>
<stop offset="0.54" stop-color="#808080" stop-opacity="0.12"/>
<stop offset="1" stop-color="#808080" stop-opacity="0.1"/>
</linearGradient>
<linearGradient id="paint1_linear" x1="51694.2" y1="232930" x2="51694.2" y2="64860.3" gradientUnits="userSpaceOnUse">
<stop stop-color="#808080" stop-opacity="0.25"/>
<stop offset="0.54" stop-color="#808080" stop-opacity="0.12"/>
<stop offset="1" stop-color="#808080" stop-opacity="0.1"/>
</linearGradient>
<clipPath id="clip0">
<rect width="720" height="554.175" fill="white"/>
</clipPath>
</defs>
</svg>
