<svg width="1098" height="811" viewBox="0 0 1098 811" fill="none" xmlns="http://www.w3.org/2000/svg">
<g clip-path="url(#clip0)">
<path opacity="0.1" d="M12.07 429.97C29.43 504.17 66.18 568.31 124.26 599.4C244.96 664.01 517.17 630.69 720.33 592.4C822.982 573.128 916.162 519.874 984.87 441.21L12.07 429.97Z" fill="#4E47FF" fill-opacity="0.3"/>
<path d="M799.31 649.72C799.31 649.72 731.66 690.52 856.34 753.31C856.34 753.31 883.8 702.31 853.44 660.74C847.546 652.634 838.882 646.972 829.092 644.826C819.301 642.681 809.064 644.202 800.32 649.1L799.31 649.72Z" fill="#1CA0DE"/>
<path d="M800.09 648.86C800.09 648.86 857.97 693.14 856.34 753.31" stroke="#535461" stroke-miterlimit="10"/>
<path d="M18.31 661.72C18.31 661.72 -49.34 702.52 75.34 765.31C75.34 765.31 102.8 714.31 72.44 672.74C66.5455 664.634 57.8822 658.972 48.0918 656.826C38.3014 654.681 28.0641 656.202 19.32 661.1L18.31 661.72Z" fill="#1CA0DE"/>
<path d="M19.09 660.86C19.09 660.86 76.97 705.14 75.34 765.31" stroke="#535461" stroke-miterlimit="10"/>
<path d="M859.66 759.08C859.66 759.08 838.47 687.08 863.66 634.17C874.357 612.024 877.582 587.005 872.85 562.87C870.483 551.429 867.072 540.228 862.66 529.41" stroke="#535461" stroke-width="2" stroke-miterlimit="10"/>
<path d="M878.35 495.95C878.35 504.77 862.35 530.34 862.35 530.34C862.35 530.34 846.35 504.77 846.35 495.95C846.618 491.899 848.417 488.101 851.382 485.326C854.346 482.551 858.255 481.008 862.315 481.008C866.375 481.008 870.284 482.551 873.248 485.326C876.213 488.101 878.012 491.899 878.28 495.95H878.35Z" fill="#1CA0DE"/>
<path d="M904.74 544.79C899.95 552.19 872.65 564.98 872.65 564.98C872.65 564.98 873.15 534.84 877.94 527.44C880.367 524.183 883.942 521.97 887.94 521.252C891.938 520.533 896.06 521.362 899.469 523.571C902.878 525.779 905.32 529.201 906.299 533.144C907.278 537.086 906.72 541.253 904.74 544.8V544.79Z" fill="#1CA0DE"/>
<path d="M903.59 628.26C895.72 632.26 865.7 629.49 865.7 629.49C865.7 629.49 881.34 603.72 889.22 599.75C892.959 598.162 897.162 598.056 900.976 599.453C904.79 600.85 907.93 603.645 909.76 607.272C911.589 610.898 911.97 615.085 910.826 618.983C909.683 622.88 907.099 626.197 903.6 628.26H903.59Z" fill="#1CA0DE"/>
<path d="M888.49 691.22C881.4 696.46 851.35 698.83 851.35 698.83C851.35 698.83 862.41 670.83 869.5 665.54C872.917 663.33 877.047 662.504 881.051 663.231C885.054 663.959 888.631 666.184 891.052 669.455C893.472 672.726 894.556 676.796 894.082 680.838C893.608 684.879 891.612 688.588 888.5 691.21L888.49 691.22Z" fill="#1CA0DE"/>
<path d="M839.12 566.69C845.44 572.83 874.91 579.2 874.91 579.2C874.91 579.2 867.69 549.93 861.37 543.79C858.277 541.161 854.3 539.806 850.246 540C846.191 540.193 842.361 541.92 839.533 544.832C836.704 547.743 835.087 551.621 835.011 555.679C834.934 559.738 836.403 563.674 839.12 566.69Z" fill="#1CA0DE"/>
<path d="M822.41 640.54C830.28 644.54 860.3 641.77 860.3 641.77C860.3 641.77 844.66 616 836.78 612.03C834.894 610.918 832.8 610.205 830.627 609.935C828.454 609.665 826.249 609.844 824.148 610.46C822.047 611.077 820.095 612.118 818.413 613.52C816.731 614.921 815.354 616.653 814.368 618.607C813.382 620.562 812.808 622.699 812.681 624.885C812.554 627.07 812.877 629.259 813.63 631.315C814.383 633.371 815.549 635.25 817.058 636.837C818.567 638.424 820.385 639.684 822.4 640.54H822.41Z" fill="#1CA0DE"/>
<path d="M816.01 714.55C823.1 719.79 853.15 722.16 853.15 722.16C853.15 722.16 842.09 694.16 835 688.87C833.328 687.462 831.386 686.411 829.292 685.782C827.199 685.153 824.998 684.961 822.827 685.215C820.656 685.47 818.56 686.167 816.669 687.263C814.778 688.359 813.131 689.83 811.831 691.587C810.53 693.344 809.603 695.349 809.108 697.478C808.612 699.607 808.558 701.815 808.949 703.966C809.339 706.117 810.167 708.164 811.379 709.983C812.592 711.802 814.165 713.353 816 714.54L816.01 714.55Z" fill="#1CA0DE"/>
<path opacity="0.25" d="M878.35 495.95C878.35 504.77 862.35 530.34 862.35 530.34C862.35 530.34 846.35 504.77 846.35 495.95C846.618 491.899 848.417 488.101 851.382 485.326C854.346 482.551 858.255 481.008 862.315 481.008C866.375 481.008 870.284 482.551 873.248 485.326C876.213 488.101 878.012 491.899 878.28 495.95H878.35Z" fill="#2C4251"/>
<path opacity="0.25" d="M904.74 544.79C899.95 552.19 872.65 564.98 872.65 564.98C872.65 564.98 873.15 534.84 877.94 527.44C880.367 524.183 883.942 521.97 887.94 521.252C891.938 520.533 896.06 521.362 899.469 523.571C902.878 525.779 905.32 529.201 906.299 533.144C907.278 537.086 906.72 541.253 904.74 544.8V544.79Z" fill="#2C4251"/>
<path opacity="0.25" d="M903.59 628.26C895.72 632.26 865.7 629.49 865.7 629.49C865.7 629.49 881.34 603.72 889.22 599.75C892.959 598.162 897.162 598.056 900.976 599.453C904.79 600.85 907.93 603.645 909.76 607.272C911.589 610.898 911.97 615.085 910.826 618.983C909.683 622.88 907.099 626.197 903.6 628.26H903.59Z" fill="#2C4251"/>
<path opacity="0.25" d="M888.49 691.22C881.4 696.46 851.35 698.83 851.35 698.83C851.35 698.83 862.41 670.83 869.5 665.54C872.917 663.33 877.047 662.504 881.051 663.231C885.054 663.959 888.631 666.184 891.052 669.455C893.472 672.726 894.556 676.796 894.082 680.838C893.608 684.879 891.612 688.588 888.5 691.21L888.49 691.22Z" fill="#2C4251"/>
<path opacity="0.25" d="M839.12 566.69C845.44 572.83 874.91 579.2 874.91 579.2C874.91 579.2 867.69 549.93 861.37 543.79C858.277 541.161 854.3 539.806 850.246 540C846.191 540.193 842.361 541.92 839.533 544.832C836.704 547.743 835.087 551.621 835.011 555.679C834.934 559.738 836.403 563.674 839.12 566.69Z" fill="#2C4251"/>
<path opacity="0.25" d="M822.41 640.54C830.28 644.54 860.3 641.77 860.3 641.77C860.3 641.77 844.66 616 836.78 612.03C834.894 610.918 832.8 610.205 830.627 609.935C828.454 609.665 826.249 609.844 824.148 610.46C822.047 611.077 820.095 612.118 818.413 613.52C816.731 614.921 815.354 616.653 814.368 618.607C813.382 620.562 812.808 622.699 812.681 624.885C812.554 627.07 812.877 629.259 813.63 631.315C814.383 633.371 815.549 635.25 817.058 636.837C818.567 638.424 820.385 639.684 822.4 640.54H822.41Z" fill="#2C4251"/>
<path opacity="0.25" d="M816.01 714.55C823.1 719.79 853.15 722.16 853.15 722.16C853.15 722.16 842.09 694.16 835 688.87C833.328 687.462 831.386 686.411 829.292 685.782C827.199 685.153 824.998 684.961 822.827 685.215C820.656 685.47 818.56 686.167 816.669 687.263C814.778 688.359 813.131 689.83 811.831 691.587C810.53 693.344 809.603 695.349 809.108 697.478C808.612 699.607 808.558 701.815 808.949 703.966C809.339 706.117 810.167 708.164 811.379 709.983C812.592 711.802 814.165 713.353 816 714.54L816.01 714.55Z" fill="#2C4251"/>
<path d="M908.66 760.45C908.66 760.45 887.47 688.45 912.66 635.54C923.357 613.394 926.582 588.375 921.85 564.24C919.516 552.802 916.138 541.602 911.76 530.78" stroke="#535461" stroke-width="2" stroke-miterlimit="10"/>
<path d="M927.39 497.31C927.39 506.13 911.39 531.7 911.39 531.7C911.39 531.7 895.39 506.13 895.39 497.31C895.658 493.259 897.457 489.461 900.422 486.686C903.386 483.911 907.295 482.368 911.355 482.368C915.415 482.368 919.324 483.911 922.288 486.686C925.253 489.461 927.052 493.259 927.32 497.31H927.39Z" fill="#1CA0DE"/>
<path d="M953.78 546.16C948.99 553.56 921.66 566.31 921.66 566.31C921.66 566.31 922.16 536.17 926.95 528.77C929.377 525.513 932.952 523.3 936.95 522.582C940.948 521.863 945.07 522.692 948.479 524.901C951.888 527.109 954.33 530.531 955.309 534.474C956.288 538.416 955.73 542.583 953.75 546.13L953.78 546.16Z" fill="#1CA0DE"/>
<path d="M952.66 629.63C944.79 633.63 914.77 630.86 914.77 630.86C914.77 630.86 930.41 605.09 938.29 601.12C942.027 599.543 946.224 599.445 950.031 600.845C953.838 602.245 956.971 605.038 958.796 608.661C960.622 612.283 961.004 616.463 959.865 620.356C958.726 624.249 956.15 627.564 952.66 629.63Z" fill="#1CA0DE"/>
<path d="M937.53 692.59C930.44 697.83 900.39 700.2 900.39 700.2C900.39 700.2 911.45 672.2 918.54 666.91C921.957 664.7 926.087 663.874 930.091 664.601C934.094 665.329 937.671 667.554 940.092 670.825C942.512 674.096 943.596 678.166 943.122 682.208C942.648 686.249 940.652 689.958 937.54 692.58L937.53 692.59Z" fill="#1CA0DE"/>
<path d="M888.16 568.06C894.48 574.2 923.95 580.57 923.95 580.57C923.95 580.57 916.73 551.3 910.41 545.16C907.317 542.531 903.34 541.176 899.286 541.37C895.231 541.563 891.401 543.29 888.573 546.202C885.744 549.113 884.127 552.991 884.051 557.049C883.974 561.108 885.443 565.044 888.16 568.06Z" fill="#1CA0DE"/>
<path d="M871.44 641.91C879.31 645.91 909.33 643.14 909.33 643.14C909.33 643.14 893.66 617.37 885.82 613.4C882.081 611.812 877.878 611.706 874.064 613.103C870.25 614.5 867.11 617.295 865.28 620.922C863.451 624.548 863.07 628.735 864.213 632.633C865.357 636.53 867.941 639.847 871.44 641.91Z" fill="#1CA0DE"/>
<path d="M865.04 715.92C872.13 721.16 902.18 723.53 902.18 723.53C902.18 723.53 891.12 695.53 884.03 690.24C882.358 688.832 880.416 687.781 878.322 687.152C876.228 686.523 874.028 686.331 871.857 686.585C869.686 686.84 867.59 687.537 865.699 688.633C863.808 689.729 862.161 691.2 860.861 692.957C859.56 694.714 858.633 696.719 858.138 698.848C857.642 700.977 857.588 703.185 857.979 705.336C858.369 707.487 859.197 709.534 860.409 711.353C861.622 713.172 863.195 714.723 865.03 715.91L865.04 715.92Z" fill="#1CA0DE"/>
<path opacity="0.1" d="M1077.43 80.72H965.96C963.405 80.72 960.954 79.7049 959.147 77.898C957.34 76.0911 956.325 73.6404 956.325 71.085C956.325 68.5296 957.34 66.0789 959.147 64.272C960.954 62.4651 963.405 61.45 965.96 61.45H985.23C982.675 61.45 980.224 60.4349 978.417 58.628C976.61 56.8211 975.595 54.3704 975.595 51.815C975.595 49.2596 976.61 46.8089 978.417 45.002C980.224 43.1951 982.675 42.18 985.23 42.18H971.46C968.905 42.18 966.454 41.1649 964.647 39.358C962.84 37.5511 961.825 35.1004 961.825 32.545C961.825 29.9896 962.84 27.5389 964.647 25.732C966.454 23.9251 968.905 22.91 971.46 22.91H1029.66C1016.75 16.91 1001.66 12.64 984.28 10.4C825.64 -9.98 769 3.5 749.02 17.4C724.37 34.5 696.87 47.08 667.48 53.14C569.58 73.31 386.53 97.6 220.66 45.31C138.2 19.31 76.91 63.23 40.18 136.59H1096.79C1095.41 115.27 1091.28 95.59 1083.7 78.35C1081.96 79.8692 1079.74 80.7108 1077.43 80.72Z" fill="#4E47FF" fill-opacity="0.3"/>
<path opacity="0.1" d="M2.65999 275.1C-1.6195 318.255 -0.163499 361.787 6.98999 404.56L985.66 440.31C1012.9 408.971 1035.78 374.087 1053.66 336.61L2.65999 275.1ZM389.66 367.45H370.43C372.985 367.45 375.436 368.465 377.243 370.272C379.05 372.079 380.065 374.53 380.065 377.085C380.065 379.64 379.05 382.091 377.243 383.898C375.436 385.705 372.985 386.72 370.43 386.72H258.96C256.405 386.72 253.954 385.705 252.147 383.898C250.34 382.091 249.325 379.64 249.325 377.085C249.325 374.53 250.34 372.079 252.147 370.272C253.954 368.465 256.405 367.45 258.96 367.45H278.23C275.675 367.45 273.224 366.435 271.417 364.628C269.61 362.821 268.595 360.37 268.595 357.815C268.595 355.26 269.61 352.809 271.417 351.002C273.224 349.195 275.675 348.18 278.23 348.18H264.46C261.905 348.18 259.454 347.165 257.647 345.358C255.84 343.551 254.825 341.1 254.825 338.545C254.825 335.99 255.84 333.539 257.647 331.732C259.454 329.925 261.905 328.91 264.46 328.91H375.93C378.485 328.91 380.936 329.925 382.743 331.732C384.55 333.539 385.565 335.99 385.565 338.545C385.565 341.1 384.55 343.551 382.743 345.358C380.936 347.165 378.485 348.18 375.93 348.18H389.66C392.215 348.18 394.666 349.195 396.473 351.002C398.28 352.809 399.295 355.26 399.295 357.815C399.295 360.37 398.28 362.821 396.473 364.628C394.666 366.435 392.215 367.45 389.66 367.45V367.45Z" fill="#4E47FF" fill-opacity="0.3"/>
<path opacity="0.1" d="M1096.83 137.31L28.34 163.31C15.34 196.72 6.73 234.5 2.75 273.65H1078.11C1085.14 250.65 1090.34 227.13 1093.66 203.31C1096.83 180.31 1098.12 158.02 1096.83 137.31ZM219.66 222.45H200.43C202.985 222.45 205.436 223.465 207.243 225.272C209.05 227.079 210.065 229.53 210.065 232.085C210.065 234.64 209.05 237.091 207.243 238.898C205.436 240.705 202.985 241.72 200.43 241.72H88.96C86.4046 241.72 83.9539 240.705 82.147 238.898C80.3401 237.091 79.325 234.64 79.325 232.085C79.325 229.53 80.3401 227.079 82.147 225.272C83.9539 223.465 86.4046 222.45 88.96 222.45H108.23C105.675 222.45 103.224 221.435 101.417 219.628C99.6101 217.821 98.595 215.37 98.595 212.815C98.595 210.26 99.6101 207.809 101.417 206.002C103.224 204.195 105.675 203.18 108.23 203.18H94.46C91.9046 203.18 89.4539 202.165 87.647 200.358C85.8401 198.551 84.825 196.1 84.825 193.545C84.825 190.99 85.8401 188.539 87.647 186.732C89.4539 184.925 91.9046 183.91 94.46 183.91H205.93C208.485 183.91 210.936 184.925 212.743 186.732C214.55 188.539 215.565 190.99 215.565 193.545C215.565 196.1 214.55 198.551 212.743 200.358C210.936 202.165 208.485 203.18 205.93 203.18H219.66C222.215 203.18 224.666 204.195 226.473 206.002C228.28 207.809 229.295 210.26 229.295 212.815C229.295 215.37 228.28 217.821 226.473 219.628C224.666 221.435 222.215 222.45 219.66 222.45Z" fill="#4E47FF" fill-opacity="0.3"/>
<path d="M550.33 810.62C844.698 810.62 1083.33 795.845 1083.33 777.62C1083.33 759.395 844.698 744.62 550.33 744.62C255.962 744.62 17.33 759.395 17.33 777.62C17.33 795.845 255.962 810.62 550.33 810.62Z" fill="#1CA0DE"/>
<path d="M723.1 269.11C723.1 269.11 661.29 210.94 652.36 202.24C649.25 199.24 646.31 196.24 643.8 193.71C638.972 188.882 632.787 185.642 626.07 184.42C602.91 180.03 579.22 165.79 579.22 165.79C579.09 165.62 578.96 165.47 578.84 165.29C576.833 162.483 575.358 159.33 574.49 155.99C574.36 155.5 574.23 154.99 574.12 154.47C574.493 153.99 574.857 153.5 575.21 153C575.615 152.859 576.007 152.681 576.38 152.47C579.31 150.8 580.96 147.71 582.07 144.67C583.07 141.98 583.87 139.01 586.25 137.26C587.102 136.787 587.87 136.176 588.52 135.45C589.002 134.496 589.187 133.42 589.05 132.36C589.05 125.53 587.96 120.29 589.55 113.63C592.09 102.97 594.42 89.63 586.37 81.72C582.213 77.7047 576.919 75.0683 571.21 74.17C566.04 73.35 558.39 80.39 553.15 80.17C539.8 79.66 528.55 67.62 515.86 71.51C510.337 73.1862 505.521 76.638 502.16 81.33C495.9 90.25 496.5 101.79 497.4 112.43C497.387 113.24 497.628 114.034 498.09 114.7C498.56 115.25 499.31 115.54 499.77 116.09C500.262 116.82 500.449 117.714 500.29 118.58C500.144 120.302 499.725 121.989 499.05 123.58C498.877 123.845 498.77 124.147 498.737 124.462C498.704 124.777 498.746 125.095 498.86 125.39C499.11 125.72 499.461 125.959 499.86 126.07C500.397 126.251 500.949 126.382 501.51 126.46C501.42 127.34 501.34 128.22 501.31 129.11C501.31 129.61 501.31 130.11 501.31 130.62C501.334 137.118 502.975 143.509 506.087 149.214C509.198 154.919 513.68 159.76 519.13 163.3C519.24 164.02 519.36 164.76 519.47 165.53C519.81 167.9 520.12 170.53 520.35 173.39C520.35 173.91 520.43 174.39 520.47 174.96L520.2 174.41L477.2 195.49C474.023 196.225 471.057 197.679 468.53 199.74L467.68 200.16V200.41C467.327 200.703 466.967 201.017 466.6 201.35L429.29 159.21L342.29 234.73L390.13 286.24L443.89 281.76C441.24 299.96 439.43 313.91 439.43 313.91C439.43 313.91 429.6 356.04 477.22 347.98C476.91 374.55 465.53 418.89 465.53 418.89C466.853 420.621 468.412 422.159 470.16 423.46L469.89 425.27L466.89 445.64C466.89 445.64 449.03 495.12 446.29 539.25C443.55 583.38 440.11 608.12 440.11 608.12L433.93 696.39L425.24 736.75C410.926 752.404 394.26 765.731 375.84 776.25C375.027 776.682 374.308 777.271 373.726 777.984C373.144 778.697 372.709 779.519 372.448 780.402C372.188 781.285 372.106 782.211 372.207 783.125C372.309 784.04 372.592 784.926 373.04 785.73C376.56 791.79 387.39 798.08 420.19 788C472.39 772 467.58 772.62 467.58 772.62C467.58 772.62 468.35 751.2 466.13 738.5C466.06 738.12 465.99 737.75 465.92 737.38C478.42 723.29 472.38 700.38 472.38 700.38C472.38 700.38 497.1 652.24 485.38 620.81C485.38 620.81 482.63 594.06 497.06 581.36C497.26 581.18 497.47 580.98 497.68 580.77L497.87 580.57L498.34 580.07L498.55 579.84L499.1 579.2L499.22 579.06C499.44 578.79 499.67 578.5 499.9 578.2L500.08 577.96L500.66 577.31L500.88 576.99L501.42 576.2L501.6 575.94L502.33 574.83L502.47 574.61L503.08 573.61L503.31 573.23L503.87 572.29L504.08 571.93L504.85 570.59L505.62 569.21L505.84 568.8L506.43 567.71L506.66 567.27L507.37 565.92L507.46 565.75L508.28 564.15L508.48 563.76L509.12 562.49L509.36 562.01L510.03 560.65L510.2 560.31L511.04 558.56L511.18 558.27L511.88 556.78L512.12 556.27L512.77 554.88L512.98 554.43L513.84 552.56L514.67 550.71L514.9 550.2L515.55 548.73L515.77 548.22L516.66 546.31V546.23L517.53 544.23L517.72 543.8L518.4 542.22L518.63 541.69L519.34 540L519.48 539.68L520.34 537.68L520.48 537.35L521.19 535.65L521.42 535.1L522.07 533.51L522.26 533.05L523.09 531.05L523.16 530.88L523.91 529.03L524.14 528.46L524.75 526.94L524.97 526.39L525.69 524.57L525.76 524.38L526.54 522.38L526.77 521.8L527.33 520.37L527.57 519.74L528.16 518.22L528.33 517.77L529.06 515.88L529.26 515.36L529.79 513.98L530.06 513.28L530.53 512.06L530.78 511.4L531.44 509.65L531.63 509.14L532.11 507.86L532.38 507.15L532.78 506.08L533.05 505.35L533.5 504.14L533.79 503.36L534.24 502.14L534.53 501.36L534.84 500.52L535.13 499.72L535.38 499.03L536.05 497.21L536.16 496.9L536.47 496.04L536.68 495.47L537 494.6L537.15 494.19C540.02 486.28 541.78 481.19 541.78 481.19C541.78 481.19 554.78 526.66 552.78 540.7C550.78 554.74 565.14 606.9 565.14 606.9C565.14 606.9 556.9 659.06 561.71 671.76C566.52 684.46 554.84 731.94 554.84 731.94C554.84 731.94 555.73 732.43 557.24 733.18L557.15 734.47C556.4 744.91 554.77 764.97 552.78 772.73C550.03 783.43 551.41 794.8 573.38 793.46C595.35 792.12 596.04 778.75 596.04 778.75C596.04 778.75 588.79 755.37 587.9 741.58C587.9 741.13 587.9 740.69 587.84 740.26L588.46 740.03L588.64 739.96C588.89 739.85 589.13 739.74 589.36 739.62C589.58 739.5 589.78 739.38 589.99 739.25L590.17 739.13C590.343 739.01 590.513 738.883 590.68 738.75L590.8 738.65C591 738.483 591.19 738.31 591.37 738.13L591.5 738C591.64 737.847 591.777 737.69 591.91 737.53L592.05 737.35C592.21 737.14 592.37 736.92 592.52 736.68C600.07 724.68 600.76 699.23 600.76 699.23C600.76 699.23 615.87 613.64 610.38 602.23C604.89 590.82 607.63 564.12 607.63 564.12C607.63 564.12 601.45 524 608.32 504.61C613.46 490.09 616.68 439.95 616.53 415.96C616.53 415.46 616.53 414.97 616.53 414.49C616.53 414.32 616.53 414.15 616.53 413.98C621.65 407.62 625.53 396.46 622.77 376.9C622.61 375.79 622.49 374.67 622.37 373.53C630.17 367.7 637.87 360.85 637.87 360.85L640.53 358.11L641.38 357.23C642.12 357.54 642.9 357.82 643.71 358.07C646.71 359.43 648.85 360.19 648.85 360.19C648.85 360.19 688 328.09 717.53 312.71C747.06 297.33 723.1 269.11 723.1 269.11ZM676.4 297.19C676.4 297.19 635.19 323.31 627.66 336.65C627.225 337.397 626.889 338.197 626.66 339.03L625.66 339.45L624.4 339.93C630.71 303.93 647.6 268.44 647.6 268.44C647.6 268.44 660.6 279.81 669.6 284.44C678.6 289.07 676.4 297.2 676.4 297.2V297.19Z" fill="url(#paint0_linear)"/>
<path d="M424.39 783.86C392.75 793.86 382.3 787.62 378.91 781.61C378.047 780.002 377.846 778.12 378.351 776.366C378.855 774.612 380.025 773.124 381.61 772.22C399.592 761.65 415.792 748.305 429.61 732.68C433.13 728.68 434.98 726.23 434.98 726.23C434.98 726.23 459.49 721.59 465.45 726.23C466.94 727.39 467.98 730.63 468.69 734.83C470.83 747.41 470.09 768.63 470.09 768.63C470.09 768.63 474.73 767.96 424.39 783.86Z" fill="#5B5877"/>
<path d="M593.96 774.58C593.96 774.58 593.3 787.83 572.1 789.15C550.9 790.47 549.58 779.21 552.23 768.62C554.15 760.94 555.72 741.07 556.44 730.72C556.71 726.79 556.86 724.24 556.86 724.24C556.86 724.24 589.98 720.93 586.67 730.24C586.018 732.704 585.829 735.267 586.11 737.8C586.97 751.43 593.96 774.58 593.96 774.58Z" fill="#5B5877"/>
<path opacity="0.1" d="M468.66 734.83L468.07 735.51C455.48 749.42 428.99 735.51 428.99 735.51L429.58 732.69C433.1 728.69 434.95 726.24 434.95 726.24C434.95 726.24 459.46 721.6 465.42 726.24C466.95 727.39 467.99 730.63 468.66 734.83Z" fill="#2C4251"/>
<path opacity="0.1" d="M586.66 730.2C586.008 732.664 585.819 735.227 586.1 737.76C577.44 740.76 562.1 733.66 556.43 730.76C556.7 726.83 556.85 724.28 556.85 724.28C556.85 724.28 589.99 720.93 586.66 730.2Z" fill="#2C4251"/>
<path d="M607.87 599.71C613.17 610.97 598.6 695.71 598.6 695.71C598.6 695.71 597.94 720.88 590.65 732.8C583.36 744.72 554.22 728.16 554.22 728.16C554.22 728.16 565.48 681.16 560.84 668.54C556.2 655.92 564.15 604.31 564.15 604.31C564.15 604.31 550.24 552.64 552.23 538.73C554.22 524.82 541.63 479.73 541.63 479.73C541.63 479.73 512.48 566.51 498.57 579.09C484.66 591.67 487.31 618.17 487.31 618.17C498.57 649.3 474.72 697 474.72 697C474.72 697 480.72 720.18 468.1 734.09C455.48 748 429.02 734.09 429.02 734.09L437.66 693.11L443.66 605.67C443.66 605.67 446.97 581.16 449.66 537.44C452.35 493.72 469.53 444.7 469.53 444.7L472.41 424.52L474.83 407.6C474.83 407.6 609.3 402.96 612.61 402.3C613.44 402.13 613.86 407.19 613.9 415.16C614.05 438.93 610.9 488.59 605.98 502.98C599.36 522.19 605.32 561.98 605.32 561.98C605.32 561.98 602.57 588.45 607.87 599.71Z" fill="#4E47FF"/>
<g opacity="0.05">
<path opacity="0.05" d="M534.35 479.81C534.35 479.81 505.2 566.59 491.29 579.17C477.38 591.75 480.03 618.25 480.03 618.25C491.29 649.38 467.44 697.08 467.44 697.08C467.44 697.08 473.44 720.26 460.82 734.17C457.628 737.611 453.275 739.748 448.6 740.17C455.6 740.9 462.99 739.84 468.1 734.17C480.69 720.26 474.72 697.08 474.72 697.08C474.72 697.08 498.57 649.39 487.31 618.25C487.31 618.25 484.66 591.75 498.57 579.17C509.26 569.5 528.93 516.06 537.48 491.8C535.72 484.72 534.35 479.81 534.35 479.81Z" fill="#2C4251"/>
<path opacity="0.05" d="M605.22 561.95C605.22 561.95 599.22 522.21 605.88 502.95C610.88 488.56 613.94 438.9 613.8 415.13C613.8 407.13 613.34 402.13 612.51 402.27C612.1 402.35 609.63 402.5 605.64 402.69C606.2 404.05 606.48 408.61 606.52 415.14C606.67 438.91 603.52 488.57 598.6 502.96C591.98 522.17 597.94 561.96 597.94 561.96C597.94 561.96 595.29 588.46 600.59 599.72C605.89 610.98 591.32 695.72 591.32 695.72C591.32 695.72 590.66 720.89 583.37 732.81C582.699 733.87 581.809 734.775 580.761 735.465C579.712 736.154 578.529 736.613 577.29 736.81C582.96 737.65 588.12 736.95 590.65 732.81C597.94 720.89 598.6 695.72 598.6 695.72C598.6 695.72 613.17 610.93 607.87 599.72C602.57 588.51 605.22 561.95 605.22 561.95Z" fill="#2C4251"/>
</g>
<path d="M588 175.11L583.36 220.81C583.36 220.81 509.83 236.71 517.78 210.87C521.54 198.64 521.78 185.51 520.91 175.08C520.68 172.26 520.39 169.64 520.06 167.29C519.522 163.231 518.761 159.205 517.78 155.23C517.78 155.23 574.78 112.17 572.1 141.32C571.485 146.829 571.841 152.403 573.15 157.79C573.984 161.088 575.407 164.208 577.35 167C582.04 173.62 588 175.11 588 175.11Z" fill="#FDC2CC"/>
<path opacity="0.1" d="M573.16 157.8C572.63 158.52 572.07 159.23 571.5 159.91C565.322 167.233 556.671 172.032 547.188 173.396C537.705 174.76 528.051 172.595 520.06 167.31C519.522 163.251 518.761 159.225 517.78 155.25C517.78 155.25 574.78 112.19 572.1 141.34C571.49 146.846 571.849 152.417 573.16 157.8V157.8Z" fill="#2C4251"/>
<path d="M580.71 132.71C580.71 143.075 576.593 153.015 569.264 160.344C561.935 167.673 551.995 171.79 541.63 171.79C531.265 171.79 521.325 167.673 513.996 160.344C506.667 153.015 502.55 143.075 502.55 132.71C502.55 132.21 502.55 131.71 502.55 131.21C502.951 120.988 507.343 111.331 514.785 104.312C522.226 97.2931 532.123 93.4715 542.35 93.6679C552.578 93.8642 562.321 98.0629 569.487 105.362C576.653 112.662 580.672 122.481 580.68 132.71H580.71Z" fill="#FDC2CC"/>
<path opacity="0.1" d="M613.8 415.18C610.45 419.675 605.463 422.668 599.92 423.51L569.48 434.16H569.41L560.18 437.39L556.31 427.87L551.57 416.19V437.39C551.57 437.39 493.41 441.39 472.31 424.5L474.73 407.58C474.73 407.58 609.2 402.94 612.51 402.28C613.34 402.15 613.76 407.2 613.8 415.18Z" fill="#2C4251"/>
<path opacity="0.1" d="M588 175.11L583.36 220.81C583.36 220.81 509.83 236.71 517.78 210.87C521.54 198.64 521.78 185.51 520.91 175.08C522.18 177.74 531.53 196.56 543.62 199.83C545.125 200.251 546.693 200.4 548.25 200.27C550.821 199.965 553.274 199.016 555.38 197.51C566.26 190.28 575.38 171.25 577.38 167.01C582.04 173.62 588 175.11 588 175.11Z" fill="#2C4251"/>
<path d="M711.21 312.89C682.73 328.13 644.97 359.89 644.97 359.89C644.97 359.89 617.15 349.95 624.44 336.71C631.73 323.47 671.44 297.63 671.44 297.63C671.44 297.63 673.44 289.68 664.82 285.04C656.2 280.4 643.62 269.14 643.62 269.14C643.62 269.14 613.81 333.39 619.77 376.45C625.73 419.51 599.9 421.45 599.9 421.45L569.46 432.1H569.39L560.16 435.33L556.29 425.81L551.55 414.13V435.33C551.55 435.33 483.98 439.97 468.09 418.11C468.09 418.11 482.66 359.82 478.69 337.3C474.72 314.78 470.08 201.51 470.08 201.51L520.75 176.01C520.75 176.01 530.66 197.64 543.66 201.17C545.165 201.591 546.733 201.74 548.29 201.61C550.861 201.305 553.314 200.356 555.42 198.85C567.69 190.7 577.77 167.5 577.77 167.5C577.77 167.5 600.62 181.6 622.96 185.95C629.473 187.178 635.446 190.392 640.06 195.15C642.48 197.68 645.32 200.59 648.32 203.6C656.93 212.21 716.55 269.84 716.55 269.84C716.55 269.84 739.66 297.65 711.21 312.89Z" fill="#1CA0DE"/>
<path d="M645.66 348.66L636.96 357.87L634.4 360.59C634.4 360.59 611.22 381.79 605.25 381.12C599.28 380.45 589.35 340.05 601.25 342.7C608.49 344.31 616.96 341.77 622.48 339.52C624.506 338.709 626.482 337.781 628.4 336.74L645.66 348.66Z" fill="#FDC2CC"/>
<path opacity="0.1" d="M580.71 132.71C580.725 141.941 577.457 150.877 571.49 157.92C570.469 158.018 569.441 157.837 568.516 157.394C567.591 156.952 566.804 156.266 566.24 155.41C565.14 153.48 565.6 151.06 564.87 148.98C564.14 146.9 562.48 145.47 561.43 143.62C558.77 138.96 559.89 131.9 555.02 129.4C552.78 128.26 550.07 128.64 547.57 129.06C542.66 129.87 537.72 131.48 532.88 132.15C527.36 132.93 522.39 129.34 516.94 129.26C512.08 129.18 507.2 132.03 502.59 131.21C502.991 120.988 507.383 111.331 514.824 104.312C522.266 97.2931 532.163 93.4715 542.39 93.6679C552.618 93.8642 562.361 98.0629 569.527 105.362C576.693 112.662 580.712 122.481 580.72 132.71H580.71Z" fill="#2C4251"/>
<path d="M547.57 126.41C550.07 126 552.78 125.61 555.02 126.76C559.89 129.25 558.77 136.31 561.43 140.97C562.48 142.82 564.18 144.33 564.88 146.33C565.58 148.33 565.15 150.83 566.25 152.76C567.84 155.55 572.15 155.96 574.98 154.3C577.81 152.64 579.39 149.59 580.46 146.57C581.4 143.91 582.19 140.97 584.46 139.23C585.285 138.76 586.025 138.155 586.65 137.44C587.119 136.493 587.3 135.429 587.17 134.38C587.17 127.62 586.12 122.38 587.65 115.83C590.1 105.27 592.34 92.05 584.58 84.22C580.607 80.2609 575.495 77.6452 569.96 76.74C564.96 75.92 557.6 82.9 552.54 82.74C539.67 82.23 528.81 70.31 516.54 74.16C511.175 75.8453 506.524 79.2686 503.32 83.89C497.32 92.73 497.86 104.15 498.73 114.7C498.717 115.501 498.951 116.287 499.4 116.95C499.85 117.49 500.58 117.78 501.02 118.33C501.493 119.057 501.672 119.936 501.52 120.79C501.386 122.508 500.985 124.195 500.33 125.79C500.165 126.057 500.063 126.357 500.032 126.669C500.001 126.981 500.041 127.296 500.15 127.59C500.396 127.924 500.749 128.164 501.15 128.27C506.15 130.07 511.55 126.6 516.9 126.69C522.25 126.78 527.33 130.36 532.85 129.58C537.72 128.83 542.66 127.22 547.57 126.41Z" fill="#865A61"/>
<path opacity="0.05" d="M569.49 432.17H569.42L559.85 435.73L556.31 425.88L541.31 384.06L543.66 201.17C545.165 201.591 546.733 201.74 548.29 201.61C550.861 201.305 553.314 200.356 555.42 198.85V198.85L552.58 378.85L569.49 432.17Z" fill="#2C4251"/>
<path d="M550.91 210.22C552.009 210.22 552.9 209.329 552.9 208.23C552.9 207.131 552.009 206.24 550.91 206.24C549.811 206.24 548.92 207.131 548.92 208.23C548.92 209.329 549.811 210.22 550.91 210.22Z" fill="white"/>
<path d="M546.93 277.78C548.029 277.78 548.92 276.889 548.92 275.79C548.92 274.691 548.029 273.8 546.93 273.8C545.831 273.8 544.94 274.691 544.94 275.79C544.94 276.889 545.831 277.78 546.93 277.78Z" fill="white"/>
<path d="M543.62 348C544.719 348 545.61 347.109 545.61 346.01C545.61 344.911 544.719 344.02 543.62 344.02C542.521 344.02 541.63 344.911 541.63 346.01C541.63 347.109 542.521 348 543.62 348Z" fill="white"/>
<path d="M547.6 383.1C548.699 383.1 549.59 382.209 549.59 381.11C549.59 380.011 548.699 379.12 547.6 379.12C546.501 379.12 545.61 380.011 545.61 381.11C545.61 382.209 546.501 383.1 547.6 383.1Z" fill="white"/>
<path opacity="0.05" d="M615.83 283.74H573.43V241.35L594.63 235.38L615.83 241.35V283.74Z" fill="#2C4251"/>
<path d="M548.92 241.35C550.019 241.35 550.91 240.459 550.91 239.36C550.91 238.261 550.019 237.37 548.92 237.37C547.821 237.37 546.93 238.261 546.93 239.36C546.93 240.459 547.821 241.35 548.92 241.35Z" fill="white"/>
<path d="M595.95 243.34C597.049 243.34 597.94 242.449 597.94 241.35C597.94 240.251 597.049 239.36 595.95 239.36C594.851 239.36 593.96 240.251 593.96 241.35C593.96 242.449 594.851 243.34 595.95 243.34Z" fill="white"/>
<path d="M544.95 314.21C546.049 314.21 546.94 313.319 546.94 312.22C546.94 311.121 546.049 310.23 544.95 310.23C543.851 310.23 542.96 311.121 542.96 312.22C542.96 313.319 543.851 314.21 544.95 314.21Z" fill="white"/>
<path d="M479.37 196.97C479.37 196.97 460.82 199.62 454.86 233.4C448.9 267.18 442.94 314.21 442.94 314.21C442.94 314.21 433 357.93 482.66 347.31L485.31 332.07C485.31 332.07 480.31 349.62 481.67 314.52C483.03 279.42 483.33 256.52 483.33 256.52L479.37 196.97Z" fill="#1CA0DE"/>
<path opacity="0.05" d="M479.37 196.97C479.37 196.97 460.82 199.62 454.86 233.4C448.9 267.18 442.94 314.21 442.94 314.21C442.94 314.21 433 357.93 482.66 347.31L485.31 332.07C485.31 332.07 477.69 348.96 479.02 313.85C480.35 278.74 483.33 256.55 483.33 256.55L479.37 196.97Z" fill="#2C4251"/>
<path opacity="0.1" d="M645.66 348.66L636.96 357.87C624.59 352.87 622.19 339.76 622.19 339.76L622.51 339.52C624.536 338.709 626.512 337.781 628.43 336.74L645.66 348.66Z" fill="#2C4251"/>
<path d="M633.38 331.77L623.49 339.1C623.49 339.1 626.76 356.94 645.3 358.93L653.25 345.02L633.38 331.77Z" fill="#1CA0DE"/>
<path d="M349.25 235.77L433.13 160.96L471.52 205.63L537.4 202.23L557.37 243.53L494.65 325.45L465.27 280.82L395.39 286.8L349.25 235.77Z" fill="#F2F5FB"/>
<path d="M550.42 243.63L528.35 272.3L504.8 302.9L493.92 317.05L468.75 277.89L442.35 280.21L399.37 283.98L367.35 248.57L356.34 236.4L401.01 196.56L434.57 166.64L451.86 186.76L470.36 208.29L488.84 207.34L531.8 205.12L548.57 239.8L550.42 243.63Z" fill="#DDE0ED"/>
<path d="M411.67 213.48L367.35 248.57L356.34 236.4L401.01 196.56L411.67 213.48Z" fill="#ABB1D1"/>
<path d="M462.23 239.33L458.74 217.34L435.42 189.97L451.86 186.76L470.36 208.29L488.84 207.34L495.62 233.53L462.69 242.2L462.23 239.33Z" fill="#ABB1D1"/>
<path d="M550.42 243.63L528.35 272.3L516.89 255.02L548.57 239.8L550.42 243.63Z" fill="#ABB1D1"/>
<path d="M504.8 302.9L493.92 317.05L468.75 277.89L442.35 280.21L437.56 247.1L462.23 239.33L465.19 261.95L481.88 264.54L504.8 302.9Z" fill="#ABB1D1"/>
<path d="M457.54 248.31C457.422 248.333 457.301 248.324 457.188 248.284C457.075 248.243 456.976 248.173 456.9 248.08C453.83 244.317 450.074 241.171 445.83 238.81C445.676 238.725 445.562 238.583 445.514 238.414C445.465 238.245 445.485 238.064 445.57 237.91C445.655 237.756 445.797 237.642 445.966 237.594C446.135 237.545 446.316 237.565 446.47 237.65C450.859 240.093 454.745 243.347 457.92 247.24C457.993 247.329 458.042 247.435 458.062 247.549C458.081 247.662 458.071 247.779 458.032 247.887C457.992 247.995 457.925 248.091 457.837 248.165C457.749 248.239 457.643 248.289 457.53 248.31H457.54Z" fill="#D7666F"/>
<path d="M449.66 250.15C449.533 250.176 449.401 250.164 449.281 250.116C449.161 250.068 449.058 249.985 448.984 249.878C448.911 249.772 448.87 249.646 448.867 249.516C448.865 249.387 448.901 249.259 448.97 249.15L457.55 234.98C457.642 234.83 457.789 234.723 457.959 234.682C458.13 234.64 458.31 234.669 458.46 234.76C458.61 234.852 458.717 234.999 458.758 235.169C458.8 235.34 458.771 235.52 458.68 235.67L450.1 249.84C450.053 249.92 449.989 249.988 449.913 250.042C449.837 250.095 449.751 250.132 449.66 250.15V250.15Z" fill="#D7666F"/>
<path opacity="0.1" d="M399.39 283.1L470.21 208.14L531.67 205.15L468.92 277.63L399.39 283.1Z" fill="white"/>
<path d="M460.82 319.47C460.82 319.47 477.38 278.84 485.33 283.06C493.28 287.28 516.46 312.61 500.57 323.69C484.68 334.77 473.41 340.05 473.41 340.05L460.82 338.47V319.47Z" fill="#FDC2CC"/>
<path d="M451.88 319.84C451.88 319.84 467.07 307.92 479.34 344.02L467.77 345.68L454.52 337.73L451.88 319.84Z" fill="#1CA0DE"/>
<path opacity="0.05" d="M451.88 319.84C451.88 319.84 467.07 307.92 479.34 344.02L467.77 345.68L454.52 337.73L451.88 319.84Z" fill="#2C4251"/>
</g>
<defs>
<linearGradient id="paint0_linear" x1="537.33" y1="793.46" x2="537.33" y2="70.78" gradientUnits="userSpaceOnUse">
<stop stop-color="#808080" stop-opacity="0.25"/>
<stop offset="0.54" stop-color="#808080" stop-opacity="0.12"/>
<stop offset="1" stop-color="#808080" stop-opacity="0.1"/>
</linearGradient>
<clipPath id="clip0">
<rect width="1097.33" height="810.62" fill="white"/>
</clipPath>
</defs>
</svg>
