<svg width="720" height="501" viewBox="0 0 720 501" fill="none" xmlns="http://www.w3.org/2000/svg">
<g clip-path="url(#clip0)">
<path d="M72.1244 85.1903C91.5874 85.1903 107.366 69.4289 107.366 49.986C107.366 30.5431 91.5874 14.7815 72.1244 14.7815C52.6611 14.7815 36.8831 30.5431 36.8831 49.986C36.8831 69.4289 52.6611 85.1903 72.1244 85.1903Z" fill="#2C7BE5"/>
<path opacity="0.1" d="M67.821 121.652C82.6177 155.039 63.7426 193.484 41.5245 222.434C34.0881 232.142 25.8785 242.319 24.8476 254.496C23.6044 269.391 33.7015 283.083 45.6785 292.033C67.5253 308.344 97.3616 313.387 123.362 305.155C145.831 298.044 164.721 281.983 187.386 275.508C225.288 264.666 265.464 282.643 297.923 305.041C320.899 320.877 345.506 340.172 373.205 336.779C392.693 334.394 409.234 320.723 420.461 304.633C425.882 296.865 430.596 288.156 438.487 282.916C443.18 279.797 448.691 278.145 454.2 276.963C504.529 266.219 557.938 292.441 607.597 278.954C641.141 269.868 667.884 243.364 684.515 212.87C701.147 182.375 708.911 147.943 715.375 113.829C719.97 89.5972 723.782 63.4193 713.223 41.1334C702.049 17.5376 676.185 3.23321 650.191 0.552558C624.199 -2.1281 598.131 5.2702 574.183 15.7051C544.263 28.7753 514.934 47.0702 482.28 47.1309C460.037 47.1763 438.829 38.6498 417.565 32.145C382.012 21.2784 345.043 15.8792 308.201 10.8966C272.931 6.1259 237.311 1.68843 201.827 4.50539C176.721 6.49695 154.548 16.0837 130.185 20.5212C114.304 23.4139 98.3471 21.2784 82.7617 26.1248C63.5682 32.1222 43.8289 46.0178 42.7677 67.9021C41.767 88.734 59.9751 103.94 67.821 121.652Z" fill="#2C7BE5"/>
<path d="M456.281 151.382C453.044 142.953 444.698 123.144 439.202 127.074C432.259 132.042 446.146 153.987 446.146 153.987C446.54 158.015 438.732 166.398 434.548 170.578C434.548 170.245 434.548 170.055 434.548 170.055C434.508 170.214 434.447 170.367 434.366 170.51L434.017 170.32C433.924 170.654 433.755 170.963 433.524 171.221C433.524 170.654 433.487 170.32 433.487 170.32C432.683 173.72 418.659 178.029 418.659 178.029C418.659 178.029 418.28 178.029 417.629 178.029C413.732 178.029 403.59 177.151 398.89 169.639C396.459 165.569 393.349 161.945 389.695 158.924C388.443 157.944 386.923 157.368 385.336 157.273C372.351 156.44 361.837 149.875 359.737 148.474L359.35 148.209L359.267 148.451C358.774 147.747 358.297 146.997 357.85 146.225L357.622 145.808C360.765 144.232 363.41 141.817 365.263 138.831C367.116 135.845 368.106 132.405 368.121 128.891C368.121 128.763 368.121 128.626 368.121 128.497C369.263 126.525 369.865 124.287 369.865 122.008V119.736L372.828 117.101C374.185 115.897 375.588 114.625 376.278 112.966C376.554 112.295 376.679 111.571 376.641 110.846C376.708 110.225 376.615 109.597 376.37 109.022C376.126 108.447 375.74 107.944 375.247 107.56C372.972 105.992 369.182 107.56 367.537 105.379C366.779 104.394 366.916 103.054 366.544 101.895C365.786 99.5404 363.057 98.2682 360.533 98.2304C358.009 98.1925 355.591 99.1088 353.165 99.7979C348.068 101.243 342.75 101.741 337.474 101.267C336.046 101.013 334.581 101.065 333.175 101.418C332.317 101.773 331.554 102.324 330.948 103.028C330.342 103.732 329.911 104.568 329.688 105.47C329.501 106.147 329.389 106.843 329.355 107.545C327.24 109.927 326.07 113 326.065 116.185V122.008C326.069 125.117 327.185 128.122 329.211 130.482C329.45 133.222 330.284 135.877 331.654 138.262C333.025 140.647 334.9 142.706 337.147 144.294C337.147 144.445 337.147 144.599 337.147 144.756L337.246 144.816C337.123 146.621 336.844 148.413 336.412 150.17V149.784C336.412 149.784 325.8 155.425 314.429 155.562H313.178C310.935 155.486 308.754 156.303 307.114 157.833C303.748 160.999 297.851 166.004 294.227 166.004C293.469 166.004 274.336 169.737 271.168 170.358L265.247 164.565L265.065 164.906L264.717 164.565C264.069 164.615 263.426 164.709 262.791 164.845C259.759 161.256 253.695 152.911 252.293 141.711C252.293 141.711 265.384 126.816 260.57 112.936C256.462 101.108 245.144 126.461 241.93 134.101C241.368 135.435 241.298 136.924 241.733 138.304L252.368 172.547C251.356 175.2 251.065 178.074 251.527 180.876H251.406L259.153 190.804C259.153 190.804 264.982 193.288 274.101 193.242C280.785 193.253 287.409 191.983 293.613 189.501H295.41L295.069 189.63H304.294L310.161 207.357C309.964 208.97 307.129 231.483 304.855 236.519C304.18 238.201 303.875 240.009 303.96 241.82C304.08 245.298 304.648 248.747 305.651 252.08L310.79 251.891L310.593 252.292C306.242 261.205 298.973 277.085 294.675 291.927L287.193 307.072L292.802 374.996H293.03L293.462 375.065C294.068 375.155 294.978 375.293 296.175 375.444L295.736 376.2L283.372 396.647C283.372 396.647 274.556 414.678 294.06 411.277C294.06 411.277 301.269 409.186 304.211 396.888L317.037 384.872C317.037 384.872 317.635 376.889 314.004 373.703C313.777 370.014 313.201 359.246 314.088 356.656C315.157 353.521 309.54 317.469 309.54 317.469C309.54 317.469 329.84 275.404 342.135 274.359C343.037 274.295 343.942 274.414 344.796 274.707C354.901 277.993 367.143 302.4 370.744 309.995L370.911 310.343V310.411L371.047 310.706V310.79L371.168 311.047V311.115L371.274 311.35V311.403L371.365 311.592V311.668L371.434 311.812V311.873L371.479 311.979V312.039V312.107L371.517 312.198L373.116 359.489L373.276 359.572H373.351L373.215 360.549L372.518 365.434C372.518 365.434 381.333 383.986 380.795 386.332C380.257 388.68 386.67 398.092 395.751 395.481C404.833 392.868 399.428 378.14 399.428 378.14L390.68 360.132L390.294 359.33C391.165 358.795 391.987 358.185 392.75 357.504C392.75 357.504 390.081 338.172 392.75 333.992C395.418 329.812 396.222 310.737 396.222 310.737C396.222 310.737 394.349 297.674 391.143 291.927L377.71 244.031C381.735 247.772 384.866 249.233 387.481 249.135H387.913C389.063 249.156 390.198 248.874 391.203 248.317C391.743 248.013 392.251 247.655 392.719 247.249C392.809 247.172 392.892 247.089 392.969 246.999C396.706 243.864 388.694 231.582 384.153 224.282C379.78 217.239 385.806 198.104 386.261 196.68C386.665 196.383 387.1 196.13 387.557 195.923C388.497 195.52 389.506 195.302 390.529 195.279C394.88 195.431 400.232 197.93 406.857 199.187C411.461 199.969 416.127 200.331 420.797 200.27H421.07C422.927 200.27 424.61 200.232 425.974 200.179C427.219 200.13 428.437 199.801 429.537 199.217C430.48 198.668 431.334 197.978 432.069 197.172L443.698 184.049L443.394 184.193C443.958 182.705 443.958 181.062 443.394 179.574L455.682 158.371C456.302 157.326 456.679 156.155 456.782 154.945C456.886 153.735 456.715 152.516 456.281 151.382Z" fill="url(#paint0_linear)"/>
<path d="M318.229 383.077L305.85 394.928C303.015 407.044 296.049 409.096 296.049 409.096C277.226 412.443 285.732 394.709 285.732 394.709L297.671 374.528L299.141 372.037C299.141 372.037 307.654 369.462 313.324 371.007C314.04 371.203 314.702 371.56 315.257 372.052C318.812 375.134 318.229 383.077 318.229 383.077Z" fill="#444176"/>
<path d="M394.555 393.639C385.784 396.214 379.599 386.945 380.152 384.62C380.705 382.296 372.139 364.038 372.139 364.038L372.807 359.222L373.428 354.762L387.831 355.792L389.188 358.639L397.632 376.397C397.632 376.397 403.325 391.065 394.555 393.639Z" fill="#444176"/>
<path opacity="0.1" d="M315.396 374.064C314.039 376.389 303.04 375.215 297.68 374.488L299.151 371.997C299.151 371.997 307.664 369.422 313.334 370.967C314.05 371.163 314.711 371.521 315.267 372.012C315.343 373.269 315.396 374.064 315.396 374.064Z" fill="black"/>
<path opacity="0.1" d="M389.202 358.626C381.826 363.533 373.973 359.822 372.791 359.209L373.412 354.749L387.815 355.779L389.202 358.626Z" fill="black"/>
<path d="M391.196 332.848C388.619 336.967 391.196 356.035 391.196 356.035C382.683 363.766 372.632 358.095 372.632 358.095L371.116 311.471C371.116 311.471 354.356 273.086 342.492 274.116C330.629 275.146 311.034 316.62 311.034 316.62C311.034 316.62 316.446 352.165 315.415 355.24C314.384 358.314 315.415 373.27 315.415 373.27C313.611 376.36 294.789 373.27 294.789 373.27L289.376 306.291L296.563 291.343C300.694 276.713 307.713 261.053 311.913 252.269C313.998 247.9 315.392 245.234 315.392 245.234L329.113 242.38L373.648 233.156L389.65 291.343C392.743 297.007 394.547 309.888 394.547 309.888C394.547 309.888 393.774 328.729 391.196 332.848Z" fill="#565387"/>
<g opacity="0.1">
<path opacity="0.1" d="M376.751 358.095L375.235 311.471C375.235 311.471 358.475 273.086 346.611 274.116C346.081 274.168 345.559 274.285 345.057 274.464C356.625 278.304 371.111 311.471 371.111 311.471L372.627 358.095C375.79 359.704 379.355 360.354 382.884 359.965C380.745 359.708 378.669 359.075 376.751 358.095Z" fill="black"/>
<path opacity="0.1" d="M298.884 373.293L293.471 306.314L300.688 291.343C304.819 276.713 311.838 261.053 316.038 252.269C318.123 247.9 319.517 245.235 319.517 245.235L333.238 242.38L373.892 233.936L373.672 233.126L329.114 242.38L315.394 245.235C315.394 245.235 313.999 247.9 311.914 252.269C307.7 261.053 300.695 276.744 296.564 291.343L289.347 306.284L294.76 373.262C294.76 373.262 305.039 374.951 311.133 374.58C307.031 374.358 302.942 373.928 298.884 373.293Z" fill="black"/>
</g>
<path d="M267.532 165.799C267.532 165.799 252.833 166.556 254.895 182.027L259.019 182.542L265.204 175.848L268.297 170.184V168.896L267.532 165.799Z" fill="#CED2DF"/>
<path opacity="0.1" d="M267.532 165.799C267.532 165.799 252.833 166.556 254.895 182.027L259.019 182.542L265.204 175.848L268.297 170.184V168.896L267.532 165.799Z" fill="black"/>
<path d="M431.043 171.464C431.043 171.464 443.172 177.9 440.071 185.374L436.205 186.889L431.051 184.057L430.293 177.363L430.808 172.728L431.043 171.464Z" fill="#CED2DF"/>
<path opacity="0.1" d="M431.043 171.464C431.043 171.464 443.172 177.9 440.071 185.374L436.205 186.889L431.051 184.057L430.293 177.363L430.808 172.728L431.043 171.464Z" fill="black"/>
<path d="M353.173 105H342.856C334.027 105 326.869 112.15 326.869 120.97C326.869 129.791 334.027 136.941 342.856 136.941H353.173C362.003 136.941 369.16 129.791 369.16 120.97C369.16 112.15 362.003 105 353.173 105Z" fill="#88455E"/>
<path d="M267.425 167.988L258.397 182.375L257.639 179.816L245.373 139.894C244.954 138.533 245.021 137.069 245.563 135.752C248.663 128.225 259.594 103.19 263.559 114.889C268.198 128.52 255.562 143.226 255.562 143.226C257.002 155.16 263.71 163.808 266.348 166.806C267.015 167.586 267.425 167.988 267.425 167.988Z" fill="#EC8C9C"/>
<path d="M429.112 174.167C429.112 174.167 443.295 160.772 442.757 155.365C442.757 155.365 429.347 133.73 436.056 128.861C441.362 124.984 449.42 144.521 452.543 152.828C452.956 153.934 453.122 155.118 453.029 156.295C452.936 157.472 452.586 158.615 452.005 159.643L435.055 189.623L429.112 174.167Z" fill="#EC8C9C"/>
<path d="M337.303 136.819C337.303 136.819 339.881 153.304 332.406 159.491C324.932 165.678 353.813 165.64 353.813 165.64L364.13 156.106C364.13 156.106 352.267 145.028 355.875 136.789L337.303 136.819Z" fill="#EC8C9C"/>
<path opacity="0.1" d="M336.787 155.622C336.787 155.622 347.877 163.868 358.96 154.592L377.009 191.947L375.978 237.541C375.978 237.541 338.584 256.858 323.112 245.015C307.641 233.172 320.535 226.985 320.535 226.985L316.927 191.955L320.793 169.283C320.793 169.283 327.751 158.462 328.274 158.462C328.797 158.462 336.787 155.622 336.787 155.622Z" fill="black"/>
<path d="M336.788 155.107C336.788 155.107 347.878 163.369 358.968 154.077L377.017 191.432L375.986 237.026C375.986 237.026 338.592 256.343 323.12 244.5C307.649 232.657 320.543 226.47 320.543 226.47L316.935 191.44L320.801 168.768C320.801 168.768 327.759 157.947 328.282 157.947C328.805 157.947 336.788 155.107 336.788 155.107Z" fill="#EBF1F6"/>
<path opacity="0.1" d="M336.786 151.253C336.786 151.253 326.272 157.235 314.855 156.94C313.785 156.906 312.718 157.086 311.717 157.468C310.716 157.85 309.802 158.427 309.026 159.166C305.774 162.286 300.081 167.223 296.556 167.223C295.799 167.223 273.861 171.6 273.861 171.6L268.062 165.807C268.062 165.807 259.42 182.679 255.296 181.906L262.778 191.697C262.778 191.697 276.961 197.876 295.526 190.41H306.358L312.028 207.925C312.028 207.925 309.193 231.627 306.873 236.776C304.554 241.925 307.631 251.974 307.631 251.974L328 251.217C328 251.217 329.031 241.168 330.577 239.858C332.124 238.548 325.165 194.264 325.165 194.264C325.165 194.264 320.526 169.275 337.544 160.264L336.786 151.253Z" fill="black"/>
<path opacity="0.1" d="M329.111 242.41C328.361 245.466 327.827 248.571 327.512 251.702L311.919 252.292C314.003 247.923 315.398 245.257 315.398 245.257L329.111 242.41Z" fill="black"/>
<path opacity="0.1" d="M267.43 167.988L258.402 182.376L257.644 179.816C260.956 176.53 264.837 169.661 266.384 166.799C267.02 167.586 267.43 167.988 267.43 167.988Z" fill="black"/>
<path d="M336.786 151.253C336.786 151.253 325.749 157.235 314.341 156.94C313.27 156.906 312.203 157.086 311.202 157.468C310.201 157.85 309.287 158.427 308.511 159.166C305.259 162.286 299.567 167.223 296.041 167.223C295.284 167.223 273.346 171.6 273.346 171.6L267.524 165.799C267.524 165.799 258.882 182.671 254.759 181.899L262.241 191.69C262.241 191.69 276.423 197.869 294.988 190.402H305.82L311.49 207.91C311.49 207.91 308.655 231.612 306.336 236.761C304.016 241.91 307.094 251.959 307.094 251.959L327.462 251.202C327.462 251.202 328.493 241.153 330.039 239.843C331.586 238.533 324.627 194.249 324.627 194.249C324.627 194.249 319.988 169.26 337.006 160.249L336.786 151.253Z" fill="#CED2DF"/>
<path opacity="0.1" d="M358.965 149.693C358.965 149.693 369.487 157.704 383.533 158.628C385.07 158.724 386.54 159.293 387.74 160.256C391.283 163.258 394.285 166.844 396.617 170.858C402.287 180.134 416.212 179.104 416.212 179.104C416.212 179.104 429.751 174.856 430.524 171.532C430.524 171.532 430.911 189.706 439.423 185.314L428.227 198.202C427.521 199.016 426.656 199.677 425.685 200.145C424.714 200.612 423.657 200.876 422.58 200.921C418.373 201.087 411.065 201.14 404.895 199.944C395.609 198.141 388.908 193.765 384.011 197.626C384.011 197.626 377.568 217.716 381.949 224.933C386.331 232.149 394.078 244.25 390.462 247.347C386.846 250.444 382.465 250.179 375.248 242.713C368.031 235.246 367.251 222.623 367.251 222.623L369.055 190.167C369.055 190.167 362.096 165.693 355.41 160.801L358.965 149.693Z" fill="black"/>
<path opacity="0.1" d="M440.449 184.988L429.223 197.929C428.477 198.788 427.554 199.475 426.517 199.943C425.595 200.359 424.601 200.593 423.591 200.633C419.384 200.807 412.076 200.86 405.906 199.656C397.218 197.967 390.79 194.029 385.984 196.687C385.644 196.875 385.319 197.09 385.014 197.331C385.014 197.331 378.571 217.421 382.952 224.637C387.334 231.854 395.081 243.955 391.465 247.052C390.86 247.583 390.181 248.025 389.449 248.362C386.204 249.823 382.179 248.559 376.251 242.417C369.035 234.943 368.254 222.328 368.254 222.328L370.058 189.872C370.058 189.872 363.099 165.398 356.413 160.506L359.362 149.942C361.394 151.321 371.536 157.795 384.074 158.62C385.611 158.717 387.081 159.285 388.281 160.249C391.823 163.251 394.826 166.837 397.158 170.85C402.828 180.126 416.753 179.096 416.753 179.096C420.091 178.033 423.352 176.737 426.509 175.219C428.488 174.25 430.231 173.19 431.057 172.19C431.289 171.929 431.458 171.618 431.55 171.282C431.55 171.282 431.944 189.365 440.449 184.988Z" fill="black"/>
<path d="M439.932 185.246L428.713 198.202C428.096 198.913 427.357 199.508 426.53 199.959C425.471 200.534 424.293 200.858 423.089 200.905C418.881 201.08 411.574 201.133 405.403 199.929C397.027 198.301 390.743 194.575 386.005 196.703C385.464 196.938 384.955 197.241 384.489 197.604C384.489 197.604 378.046 217.694 382.427 224.91C386.809 232.127 394.556 244.228 390.94 247.325C390.472 247.727 389.964 248.08 389.424 248.377C386.089 250.217 381.965 249.135 375.711 242.69C368.495 235.216 367.714 222.601 367.714 222.601L369.518 190.145C369.518 190.145 362.559 165.671 355.873 160.779L358.966 149.7L359.337 149.958C361.369 151.336 371.512 157.811 384.05 158.636C385.586 158.732 387.056 159.301 388.257 160.264C391.799 163.267 394.801 166.852 397.133 170.866C402.803 180.142 416.729 179.112 416.729 179.112C420.067 178.048 423.327 176.752 426.485 175.235C428.827 174.038 430.737 172.728 431.033 171.532C431.033 171.532 431.033 171.767 431.033 172.183C431.26 175.311 432.397 189.115 439.932 185.246Z" fill="#CED2DF"/>
<path opacity="0.1" d="M356.099 137.206H337.148C337.565 140.216 337.684 143.259 337.504 146.293C340.397 148.326 343.79 149.535 347.318 149.788C350.846 150.042 354.377 149.331 357.532 147.732C355.712 144.369 354.606 140.553 356.099 137.206Z" fill="black"/>
<path d="M348.651 149.435C359.046 149.435 367.473 141.017 367.473 130.633C367.473 120.248 359.046 111.83 348.651 111.83C338.256 111.83 329.829 120.248 329.829 130.633C329.829 141.017 338.256 149.435 348.651 149.435Z" fill="#EC8C9C"/>
<path opacity="0.1" d="M344.745 127.285C346.845 127.035 348.945 126.293 351.014 126.71C352.894 127.088 354.494 128.383 356.374 128.777C359.997 129.534 363.363 126.869 366.099 124.385L372.012 119.009C373.323 117.82 374.673 116.57 375.347 114.935C376.022 113.299 375.787 111.148 374.347 110.119C372.186 108.604 368.464 110.119 366.903 107.968C366.198 106.999 366.304 105.696 365.94 104.538C365.182 102.22 362.574 100.956 360.133 100.926C357.693 100.895 355.358 101.789 353.023 102.44C348.105 103.865 342.962 104.356 337.862 103.886C336.486 103.635 335.071 103.684 333.716 104.03C332.881 104.386 332.142 104.933 331.558 105.626C330.973 106.319 330.56 107.139 330.35 108.021C329.183 112.14 331.176 118.781 333.178 122.469C335.179 126.157 340.75 127.778 344.745 127.285Z" fill="black"/>
<path d="M344.745 126.77C346.845 126.521 348.945 125.778 351.014 126.195C352.894 126.574 354.494 127.868 356.374 128.262C359.997 129.02 363.363 126.354 366.099 123.87L372.012 118.494C373.323 117.305 374.673 116.055 375.347 114.42C376.022 112.784 375.787 110.634 374.347 109.604C372.186 108.089 368.464 109.604 366.903 107.453C366.198 106.484 366.304 105.181 365.94 104.023C365.182 101.706 362.574 100.441 360.133 100.411C357.693 100.38 355.358 101.274 353.023 101.925C348.105 103.35 342.962 103.841 337.862 103.372C336.486 103.12 335.071 103.169 333.716 103.515C332.881 103.871 332.142 104.418 331.558 105.111C330.973 105.804 330.56 106.624 330.35 107.506C329.183 111.626 331.176 118.267 333.178 121.954C335.179 125.642 340.75 127.225 344.745 126.77Z" fill="#88455E"/>
<path opacity="0.1" d="M311.908 208.046C311.908 208.046 316.032 208.561 318.094 211.136C320.156 213.71 323.764 214.483 323.764 214.483" fill="black"/>
<path opacity="0.1" d="M274.769 174.038C274.769 174.038 278.134 181.542 276.057 182.299C273.98 183.056 274.769 188.478 274.769 188.478" fill="black"/>
<g opacity="0.1">
<path opacity="0.1" d="M275.931 171.464C275.931 171.464 297.846 167.087 298.604 167.087C302.137 167.087 307.822 162.15 311.074 159.03C312.063 158.083 313.28 157.408 314.607 157.069H314.326C313.255 157.035 312.188 157.215 311.188 157.597C310.187 157.979 309.272 158.556 308.497 159.295C305.245 162.415 299.552 167.352 296.027 167.352C295.413 167.352 281.389 170.131 275.696 171.259L275.931 171.464Z" fill="black"/>
<path opacity="0.1" d="M336.814 152.335V151.374C331.542 154.059 325.869 155.872 320.016 156.743C325.824 156.226 331.502 154.736 336.814 152.335Z" fill="black"/>
<path opacity="0.1" d="M309.717 251.83C309.717 251.83 306.624 241.782 308.959 236.632C311.294 231.483 314.114 207.781 314.114 207.781L308.459 190.266H297.596L296.936 190.523H305.843L311.491 208.046C311.491 208.046 308.656 231.748 306.336 236.897C304.017 242.047 307.094 252.095 307.094 252.095L327.463 251.338V251.179L309.717 251.83Z" fill="black"/>
</g>
<g opacity="0.1">
<path opacity="0.1" d="M391.199 243.205C390.732 243.607 390.224 243.96 389.683 244.257C386.348 246.097 382.224 245.015 375.97 238.57C370.239 232.641 368.572 223.425 368.125 219.935L367.973 222.6C367.973 222.6 368.731 235.223 375.97 242.69C382.224 249.157 386.348 250.217 389.683 248.377C390.224 248.079 390.732 247.726 391.199 247.324C392.283 246.393 392.344 244.644 391.775 242.463C391.635 242.746 391.439 242.998 391.199 243.205Z" fill="black"/>
<path opacity="0.1" d="M436.292 185.631L428.992 194.06C428.375 194.771 427.635 195.366 426.809 195.816C425.749 196.391 424.572 196.715 423.367 196.763C419.16 196.937 411.852 196.99 405.682 195.786C397.306 194.158 391.021 190.432 386.284 192.56C385.742 192.796 385.233 193.098 384.768 193.461C384.768 193.461 380.606 206.441 381.243 215.278C381.735 207.016 384.768 197.581 384.768 197.581C385.233 197.218 385.742 196.915 386.284 196.68C391.029 194.552 397.306 198.277 405.682 199.906C411.852 201.102 419.152 201.049 423.367 200.882C424.572 200.834 425.749 200.511 426.809 199.936C427.633 199.492 428.373 198.905 428.992 198.202L440.218 185.26C439.637 185.622 438.98 185.843 438.299 185.908C437.617 185.972 436.93 185.878 436.292 185.631Z" fill="black"/>
</g>
<path d="M106.627 278.386C106.717 278.474 106.833 278.53 106.958 278.547C107.082 278.563 107.209 278.539 107.319 278.478C107.085 278.482 106.852 278.451 106.627 278.386Z" fill="url(#paint1_linear)"/>
<path d="M183.878 152.949C182.513 152.555 180.565 151.911 178.223 151.094C180.657 147.965 182.438 144.381 183.461 140.553L183.264 140.628C183.332 140.394 183.4 140.167 183.461 139.924C178.966 141.749 173.993 138.66 170.824 134.692C167.656 130.724 165.518 125.802 162.046 122.152C160.6 120.7 159.043 119.36 157.392 118.146C156.369 117.388 155.27 116.533 154.019 116.495C151.995 116.434 150.411 118.418 148.462 119.001C147.18 119.29 145.846 119.24 144.589 118.858C139.563 117.707 134.734 115.579 129.602 115.018C126.857 114.68 124.07 114.993 121.468 115.935C118.891 116.911 117.716 118.858 115.632 120.417C113.358 122.091 108.915 122.053 106.27 122.348C103.06 122.715 99.8269 122.849 96.5973 122.75C94.7414 122.589 92.8726 122.658 91.0334 122.954C87.1901 123.795 84.1047 126.847 81.2242 129.769C80.438 130.431 79.8721 131.316 79.6021 132.306C79.565 132.585 79.565 132.868 79.6021 133.147C79.573 133.91 79.7048 134.671 79.9886 135.381C80.8753 138.009 82.1284 140.5 83.7106 142.779C84.8856 144.46 86.2576 146.043 86.9246 148.034C87.241 149.013 87.4069 150.035 87.4175 151.063C87.3847 152.156 87.2706 153.244 87.0763 154.319C86.5678 157.293 85.7313 160.201 84.5825 162.99C83.8691 164.422 83.3784 165.954 83.1269 167.533C83.1052 167.856 83.1052 168.18 83.1269 168.503C82.9374 173.5 87.9861 177.098 88.9639 182.065C89.0441 182.477 89.0923 182.895 89.1079 183.314C89.0018 186.412 87.2354 189.441 84.6278 190.645C84.8552 190.736 85.0902 190.811 85.3253 190.887C85.1011 191.028 84.8681 191.154 84.6278 191.266C85.1053 191.447 85.5905 191.606 86.0834 191.735C83.1198 194.314 80.6289 197.389 78.7227 200.822C69.9522 217.133 10.5523 249.081 10.5523 249.081L11.4316 249.581L10.7191 250.043C5.57955 253.458 -6.48087 263.416 4.41974 276.009C4.41974 276.009 12.9325 262.591 18.8983 256.874C19.1636 256.616 19.4289 256.381 19.6563 256.162C19.7874 256.363 19.8753 256.59 19.9144 256.827C19.9535 257.064 19.9431 257.307 19.8837 257.54L58.9378 235.618C58.9378 235.618 72.8177 225.91 76.6911 223.721C79.4176 222.024 82.3847 220.748 85.4921 219.935L85.0373 220.124C86.4974 219.723 88.0028 219.509 89.5172 219.488C96.4305 219.594 103.92 224.653 106.384 244.682C109.689 271.504 108.157 276.342 107.096 277.001C106.965 276.991 106.836 276.969 106.71 276.933C106.742 276.962 106.778 276.987 106.816 277.009C106.672 276.999 106.53 276.973 106.391 276.933C106.468 277.003 106.561 277.052 106.661 277.076C106.762 277.1 106.868 277.098 106.967 277.069C107.039 277.091 107.115 277.098 107.189 277.088C107.263 277.079 107.335 277.055 107.399 277.016C107.574 277.026 107.748 277.026 107.922 277.016C107.922 277.264 107.905 277.516 107.869 277.774C107.816 277.774 107.558 277.917 107.869 277.933C107.786 279.447 107.794 281.09 107.869 282.809C104.435 282.999 101.001 283.203 98.0148 283.385L98.2803 281.969L98.4015 281.333C101.039 281.121 103.541 280.348 103.837 278.213C104.481 273.518 98.0301 271.011 92.5417 270.701C87.0536 270.39 54.1395 272.579 54.1395 272.579C54.1395 272.579 49.2046 278.963 64.8582 280.909C65.3231 281.151 65.8059 281.403 66.3062 281.666C72.4386 285.157 80.7544 291.586 84.7416 294.751L85.2948 295.19L83.506 296.644C93.1863 298.833 102.548 335.786 107.71 352.681C112.872 369.575 124.167 368.962 133.529 366.455C142.3 364.107 143.383 338.664 143.527 335.468V335.143L159.128 354.392L160.31 355.853C160.765 356.091 161.215 356.313 161.66 356.52C173.47 362.131 186.516 351.371 182.809 339.103C179.057 326.737 173.235 308.45 169.354 300.718C166.102 294.244 161.902 283.491 159.355 276.759C159.686 276.626 160.008 276.472 160.318 276.297C160.318 276.297 160.257 275.994 160.159 275.441L160.318 275.358C160.318 275.358 156.528 255.882 156.361 242.039C156.361 241.797 156.361 241.544 156.361 241.282C156.361 241.13 156.361 240.979 156.361 240.835C159.181 240.191 160.97 239.941 160.97 239.941L161.023 239.336L160.697 239.404L162.266 221.465C162.266 221.465 168.027 209.22 163.615 204.124C162.274 202.633 161.379 200.797 161.031 198.823C160.273 194.136 161.031 186.313 171.302 179.816C187.115 169.798 193.285 161.642 193.285 161.642C193.285 161.642 193.558 155.796 183.878 152.949ZM152.472 165.398V157.106C155.406 156.962 158.4 157.303 161.349 157.106C162.796 157.005 164.231 156.764 165.632 156.387L166.345 156.879C162.03 160.194 157.381 163.049 152.472 165.398ZM107.634 295.372C108.794 296.175 109.961 297.008 111.106 297.848C111.819 301.937 112.448 304.822 112.493 305.027C111.185 301.661 109.558 298.428 107.634 295.372Z" fill="url(#paint2_linear)"/>
<path d="M132.7 288.556L132.018 292.259L131.494 295.091L130.539 300.271L121.276 306.745C121.276 306.745 120.442 306.033 119.063 304.905C115.272 301.785 107.29 295.454 101.431 292.032C99.9247 291.071 98.2952 290.32 96.5867 289.798L132.7 288.556Z" fill="#FFBDC6"/>
<path opacity="0.1" d="M132.697 288.556L132.015 292.259C129.973 292.372 127.925 292.268 125.905 291.948L104.293 292.259C103.27 292.198 102.315 292.115 101.42 292.024C99.9144 291.064 98.2849 290.312 96.5764 289.79L132.697 288.556Z" fill="black"/>
<path d="M125.906 291.344C125.906 291.344 136.716 293.191 137.33 288.564C137.944 283.938 131.773 281.499 126.535 281.151C121.297 280.803 89.7856 283.014 89.7856 283.014C89.7856 283.014 84.2291 290.412 104.294 291.646L125.906 291.344Z" fill="#7679B4"/>
<path opacity="0.1" d="M132.7 288.556L132.018 292.259L131.494 295.091L130.539 300.271L121.276 306.745C121.276 306.745 120.442 306.033 119.063 304.905C115.272 301.785 107.29 295.454 101.431 292.032C99.9247 291.071 98.2952 290.32 96.5867 289.798L132.7 288.556Z" fill="black"/>
<path opacity="0.1" d="M132.697 288.556L132.015 292.259C129.973 292.372 127.925 292.268 125.905 291.948L104.293 292.259C103.27 292.198 102.315 292.115 101.42 292.024C99.9144 291.064 98.2849 290.312 96.5764 289.79L132.697 288.556Z" fill="black"/>
<path opacity="0.1" d="M125.906 291.344C125.906 291.344 136.716 293.191 137.33 288.564C137.944 283.938 131.773 281.499 126.535 281.151C121.297 280.803 89.7856 283.014 89.7856 283.014C89.7856 283.014 84.2291 290.412 104.294 291.646L125.906 291.344Z" fill="black"/>
<path d="M149.516 139.28H93.0192V206.206H149.516V139.28Z" fill="#A66477"/>
<path opacity="0.1" d="M149.516 139.28H93.0192V206.206H149.516V139.28Z" fill="black"/>
<path d="M26.8021 253.859C25.8697 254.094 24.6872 254.987 23.3606 256.29C17.6525 261.924 9.51119 275.138 9.51119 275.138C-0.919438 262.734 10.6255 252.928 15.5755 249.558C16.7732 248.74 17.5767 248.301 17.5767 248.301L26.8021 253.859Z" fill="#FFBDC6"/>
<path d="M132.079 160.407C132.079 160.407 134.861 179.838 144.428 184.465C153.994 189.092 132.079 197.725 132.079 197.725L102.129 186.623C102.129 186.623 119.109 181.073 115.713 164.724L132.079 160.407Z" fill="#FFBDC6"/>
<path d="M100.004 277.297L99.3222 281L98.7991 283.832L97.8438 289.012L88.5806 295.486C88.5806 295.486 87.7468 294.775 86.3672 293.646C82.577 290.526 74.5948 284.196 68.7352 280.773C67.2294 279.813 65.5998 279.061 63.8913 278.539L100.004 277.297Z" fill="#FFBDC6"/>
<path opacity="0.1" d="M100.001 277.297L99.3192 281C97.2773 281.114 95.2292 281.01 93.2095 280.69L71.5978 281C70.5744 280.94 69.6193 280.856 68.7248 280.765C67.219 279.805 65.5894 279.053 63.8809 278.532L100.001 277.297Z" fill="black"/>
<path d="M93.1773 280.075C93.1773 280.075 103.987 281.923 104.601 277.296C105.215 272.669 99.0445 270.2 93.7911 269.897C88.5381 269.595 57.0491 271.745 57.0491 271.745C57.0491 271.745 51.4927 279.143 71.558 280.378L93.1773 280.075Z" fill="#7679B4"/>
<path opacity="0.1" d="M98.7612 283.838L97.8061 289.017L88.5428 295.492C88.5428 295.492 87.709 294.78 86.3293 293.652L98.5793 283.618L98.7612 283.838Z" fill="black"/>
<path d="M159.88 354.444C159.456 354.237 159.026 354.018 158.592 353.785L157.462 352.347L142.544 333.415V333.748C142.445 336.891 141.369 361.956 132.985 364.266C124.032 366.734 113.223 367.348 108.288 350.696C103.353 334.044 94.3932 297.65 85.1299 295.492L98.8656 284.232C98.8656 284.232 107.962 294.834 111.676 305.041C111.54 304.39 105.256 275.077 110.441 269.897H155.514C155.514 269.897 162.457 289.692 167.248 299.506C170.963 307.124 176.534 325.131 180.135 337.315C183.698 349.37 171.251 359.972 159.88 354.444Z" fill="#7679B4"/>
<path opacity="0.1" d="M158.626 275.441C151.674 279.553 121.11 277.879 111.149 277.213L108.443 277.016C108.148 277.016 108.489 276.849 108.489 276.849L108.769 274.048L116.175 255.238L155.851 232.278C155.047 234.693 154.775 238.396 154.843 242.645C155.04 256.26 158.626 275.441 158.626 275.441Z" fill="black"/>
<path d="M158.621 274.525C151.67 278.637 121.106 276.963 111.145 276.297L108.439 276.1H107.992L108.485 275.971L110.925 275.328L116.171 254.352L155.847 231.377C155.043 233.793 154.77 237.496 154.839 241.744C155.036 255.336 158.621 274.525 158.621 274.525Z" fill="#F2F1F2"/>
<path opacity="0.1" d="M154.849 241.713C146.784 243.568 129.03 249.028 122.208 262.159C117.66 270.928 113.87 274.691 111.163 276.266L108.457 276.07L108.503 275.903L110.944 275.259L116.189 254.283L155.865 231.309C155.046 233.792 154.781 237.465 154.849 241.713Z" fill="black"/>
<path opacity="0.1" d="M17.532 248.309L26.7953 253.859C25.8629 254.094 24.6803 254.988 23.3538 256.29C22.5957 254.018 17.7291 250.899 15.5308 249.566C16.7285 248.748 17.532 248.309 17.532 248.309Z" fill="black"/>
<path opacity="0.1" d="M106.826 276.456C106.723 276.514 106.603 276.537 106.485 276.522C106.368 276.507 106.258 276.454 106.172 276.372C106.385 276.432 106.605 276.461 106.826 276.456Z" fill="black"/>
<path d="M127.752 183.231C127.752 183.231 119.414 184.155 113.547 177.991C113.547 177.991 88.8496 185.087 80.5113 201.125C72.1728 217.163 15.3654 248.62 15.3654 248.62C15.3654 248.62 25.2199 254.17 24.3178 256.949L61.6741 235.36C61.6741 235.36 74.9472 225.796 78.6541 223.638C82.3608 221.48 102.737 208.221 107.058 244.303C111.379 280.386 107.058 276.108 107.058 276.108C107.058 276.108 113.236 278.266 122.219 260.963C131.201 243.66 158.961 239.684 158.961 239.684L160.477 221.51C160.477 221.51 165.988 209.455 161.765 204.427C160.478 202.947 159.623 201.142 159.294 199.209C158.589 194.59 159.294 186.889 169.149 180.49C184.31 170.646 190.146 162.604 190.146 162.604C190.146 162.604 190.457 156.743 181.194 153.971C171.931 151.2 134.264 136.085 134.264 136.085L133.028 141.325L162.668 162.301C162.668 162.301 147.848 174.326 136.136 174.023C136.091 173.97 138.251 182.921 127.752 183.231Z" fill="#565388"/>
<path opacity="0.1" d="M133.476 168.866C132.746 166.381 132.177 163.852 131.771 161.294L115.405 165.64C116.121 168.76 115.993 172.014 115.033 175.068C118.378 175.96 121.912 175.846 125.192 174.741C128.472 173.637 131.354 171.591 133.476 168.859V168.866Z" fill="black"/>
<path d="M119.886 174.749C129.607 174.749 137.487 166.877 137.487 157.166C137.487 147.455 129.607 139.583 119.886 139.583C110.164 139.583 102.284 147.455 102.284 157.166C102.284 166.877 110.164 174.749 119.886 174.749Z" fill="#FFBDC6"/>
<path opacity="0.1" d="M129.238 117.176C134.12 117.729 138.767 119.827 143.573 120.962C144.774 121.339 146.053 121.388 147.28 121.106C149.144 120.531 150.661 118.577 152.586 118.638C153.776 118.638 154.86 119.486 155.815 120.266C157.397 121.465 158.885 122.784 160.265 124.211C163.577 127.808 165.639 132.654 168.664 136.562C171.688 140.469 176.456 143.513 180.755 141.719C177.836 153.077 168.254 161.763 157.9 162.467C153.768 162.747 149.561 161.892 145.536 163.103C144.539 163.509 143.486 163.765 142.413 163.861C140.139 163.861 138.259 161.748 136.818 159.696C133.453 154.864 130.754 149.382 126.964 144.982C125.713 143.528 124.235 142.143 122.469 141.878C120.703 141.613 119.073 142.453 117.496 143.271C114.896 144.619 112.236 146.012 110.219 148.314C108.203 150.616 106.929 154.062 107.763 157.182C108.21 158.863 109.241 160.377 109.279 162.141C109.279 164.943 106.838 166.995 106.345 169.714C106.237 170.862 106.196 172.015 106.224 173.167C106.004 176.908 103.563 179.982 101.001 182.322C100.008 183.238 98.9015 184.215 98.6134 185.631C98.4163 186.593 98.6134 187.615 98.4846 188.592C98.1131 191.023 95.6874 192.25 93.5422 192.568C91.0367 192.934 88.4786 192.632 86.1285 191.689C89.1607 190.273 90.9724 186.237 90.275 182.602C89.3199 177.597 84.2865 174.008 84.711 168.904C84.9484 167.341 85.4185 165.822 86.1058 164.398C87.2042 161.645 88.0023 158.781 88.486 155.856C88.982 153.605 88.9326 151.269 88.342 149.041C87.6977 147.08 86.3863 145.52 85.2643 143.862C83.745 141.607 82.546 139.153 81.7016 136.569C81.3956 135.806 81.2786 134.98 81.3605 134.161C81.6049 133.196 82.1329 132.325 82.8765 131.662C85.6358 128.777 88.5922 125.771 92.2611 124.938C94.0141 124.646 95.797 124.578 97.5673 124.733C100.658 124.832 103.752 124.7 106.823 124.34C109.355 124.044 113.645 124.082 115.783 122.431C117.777 120.917 118.906 118.986 121.37 118.017C123.884 117.097 126.586 116.809 129.238 117.176Z" fill="black"/>
<path opacity="0.1" d="M139.022 298.733C139.022 298.733 149.21 318.778 146.125 324.949L139.022 298.733Z" fill="black"/>
<path opacity="0.1" d="M157.497 352.346L142.579 333.415V333.748C142.579 333.748 141.715 327.63 144.557 329.689C150.781 334.187 160.741 341.563 160.954 342.835C161.166 344.107 158.937 349.211 157.497 352.346Z" fill="black"/>
<g opacity="0.1">
<path opacity="0.1" d="M136.385 173.97C136.385 173.97 137.644 179.18 133.573 181.785C139.842 180.709 140.115 175.84 139.925 173.72C138.755 173.909 137.57 173.993 136.385 173.97Z" fill="black"/>
<path opacity="0.1" d="M19.0791 247.385C19.0791 247.385 75.8866 215.929 84.2251 199.891C90.2059 188.381 104.616 181.482 112.273 178.498C106.686 180.369 87.8863 187.54 80.8215 201.125C72.483 217.164 15.6755 248.62 15.6755 248.62L19.0791 247.385Z" fill="black"/>
<path opacity="0.1" d="M147.434 171.524C157.099 168.495 166.34 161.021 166.34 161.021L136.7 140.045L137.375 137.168L134.54 136.032L133.304 141.272L162.944 162.248C158.187 165.983 152.976 169.1 147.434 171.524Z" fill="black"/>
<path opacity="0.1" d="M147.625 242.599C151.412 241.308 155.299 240.328 159.246 239.669L159.299 239.071C155.322 239.943 151.419 241.123 147.625 242.599Z" fill="black"/>
<path opacity="0.1" d="M111.703 274.911H111.43C111.327 274.969 111.208 274.992 111.091 274.977C110.973 274.962 110.864 274.909 110.778 274.828C110.99 274.887 111.21 274.915 111.43 274.911C112.446 274.321 113.97 269.716 110.778 243.061C107.367 214.604 93.9801 216.838 86.6499 220.109C94.1393 218.049 104.449 219.829 107.382 244.296C110.574 270.951 109.05 275.563 108.034 276.146C109.351 276.097 110.625 275.668 111.703 274.911Z" fill="black"/>
<path opacity="0.1" d="M108.036 276.154C107.815 276.158 107.595 276.13 107.382 276.07C107.467 276.152 107.577 276.205 107.695 276.22C107.813 276.235 107.932 276.212 108.036 276.154Z" fill="black"/>
</g>
<path d="M129.238 116.578C134.12 117.131 138.767 119.228 143.573 120.364C144.774 120.741 146.053 120.79 147.28 120.508C149.144 119.933 150.661 117.979 152.586 118.04C153.776 118.04 154.86 118.888 155.815 119.668C157.397 120.867 158.885 122.186 160.265 123.613C163.577 127.21 165.639 132.056 168.664 135.964C171.688 139.871 176.456 142.915 180.755 141.121C177.836 152.479 168.254 161.165 157.9 161.869C153.768 162.149 149.561 161.294 145.536 162.505C144.539 162.911 143.486 163.167 142.413 163.263C140.139 163.263 138.259 161.15 136.818 159.097C133.453 154.266 130.754 148.784 126.964 144.384C125.713 142.93 124.235 141.545 122.469 141.28C120.703 141.015 119.073 141.855 117.496 142.673C114.896 144.021 112.236 145.414 110.219 147.716C108.203 150.018 106.929 153.464 107.763 156.584C108.21 158.265 109.241 159.779 109.279 161.543C109.279 164.345 106.838 166.397 106.345 169.116C106.237 170.264 106.196 171.417 106.224 172.569C106.004 176.31 103.563 179.384 101.001 181.724C100.008 182.64 98.9015 183.617 98.6134 185.033C98.4163 185.995 98.6134 187.017 98.4846 187.994C98.1131 190.425 95.6874 191.652 93.5422 191.97C91.0367 192.336 88.4786 192.034 86.1285 191.091C89.1607 189.675 90.9724 185.639 90.275 182.004C89.3199 176.999 84.2865 173.41 84.711 168.306C84.9484 166.743 85.4185 165.224 86.1058 163.8C87.2042 161.047 88.0023 158.183 88.486 155.258C88.982 153.007 88.9326 150.671 88.342 148.443C87.6977 146.482 86.3863 144.922 85.2643 143.264C83.745 141.009 82.546 138.555 81.7016 135.971C81.3956 135.208 81.2786 134.382 81.3605 133.563C81.6049 132.598 82.1329 131.727 82.8765 131.064C85.6358 128.179 88.5922 125.173 92.2611 124.34C94.0141 124.048 95.797 123.98 97.5673 124.135C100.658 124.234 103.752 124.102 106.823 123.742C109.355 123.446 113.645 123.484 115.783 121.833C117.777 120.319 118.906 118.388 121.37 117.419C123.884 116.499 126.586 116.21 129.238 116.578Z" fill="#A66477"/>
<path d="M631.839 77.1101C631.839 77.0117 631.839 76.9208 631.839 76.83C631.839 76.7391 631.839 76.6331 631.794 76.5422H631.672C631.672 76.3377 631.672 76.1333 631.672 75.9137C631.369 68.894 621.651 53.9535 617.755 58.3152C614.344 62.1469 619.491 71.8397 622.114 76.2014L622.348 76.5952L622.22 76.5119C622.22 76.5119 611.372 108.831 610.091 110.088C608.81 111.345 599.88 136.759 588.108 139.621C585.781 140.174 583.848 140.673 582.226 141.135L582.354 140.704C583.112 138.228 584.045 135.888 584.424 133.131C584.803 130.375 584.424 127.035 583.029 125.695C582.347 125.029 581.513 124.938 580.952 123.878C580.588 122.948 580.393 121.961 580.376 120.962L579.375 108.71L580.073 108.498C584.287 107.15 588.373 103.954 588.851 99.6535C588.704 99.7091 588.555 99.7571 588.404 99.7974C588.459 99.5472 588.502 99.2944 588.532 99.0399C584.992 100.433 581.71 96.7683 578.299 95.1251C572.682 92.3764 566.261 94.966 560.462 95.5944C553.89 96.314 547.651 93.5879 540.935 94.08C537.281 94.3602 533.218 96.8364 533.415 100.433C533.529 102.41 534.931 104.083 535.507 105.976C536.963 110.558 533.726 115.154 530.891 119.062C529.026 121.629 527.237 124.756 526.919 127.77C520.392 120.955 513.335 113.079 512.516 110.118L493.633 77.7992C493.633 77.7992 493.186 78.2763 492.466 78.9805C492.352 78.6322 492.216 78.2233 492.064 77.8144C489.654 71.0673 482.831 54.7183 474.182 57.717C465.533 60.7157 477.768 77.4736 483.089 84.1526L483.847 85.0765C483.401 85.1859 482.933 85.165 482.498 85.0158L503.556 121.099C503.556 121.099 507.384 128.005 510.894 129.883C510.894 129.883 537.054 162.831 537.372 169.419C537.691 176.007 549.137 193.582 549.137 193.582C549.137 193.582 552.965 222.138 546.264 227.159H546.347H546.401H546.484H546.56H546.711H546.81H546.908H547.037H547.143H547.295H547.371C547.053 227.469 546.726 227.81 546.393 228.181C541.428 233.679 535.083 245.462 543.755 265.498C556.513 295.031 558.431 306.602 558.431 306.602C558.431 306.602 534.173 307.859 529.398 308.798C525.168 309.631 508.726 310.214 504.966 310.312C503.624 308.752 499.66 305.299 494.308 310.312C487.607 316.59 482.824 337.574 482.824 337.574C482.824 337.574 480.269 354.521 488.888 350.121C488.888 350.121 499.099 335.997 501.964 335.369C503.389 335.059 504.898 332.963 506.05 330.94L506.111 330.977C506.179 330.977 506.459 330.826 506.914 330.643C509.037 329.803 514.881 327.781 519.49 328.788C522.015 329.342 532.839 329.469 544.187 329.44C541.625 335.573 537.031 351.401 537.031 351.401C537.031 351.401 535.113 366.158 541.481 365.554C546.029 365.106 553.003 353.498 556.642 346.872C559.28 344.942 566.837 338.019 572.424 338.542L610.068 324.11C610.068 324.11 618.998 319.089 614.215 302.46C610.424 289.238 599.638 262.174 595.378 251.625L595.249 251.353C594.218 248.801 593.596 247.287 593.596 247.287C591.846 242.471 590.698 237.458 590.177 232.361C590.14 231.96 590.109 231.551 590.079 231.15C590.606 230.929 591.103 230.641 591.557 230.294C591.557 230.294 588.047 194.84 591.557 191.068L591.618 191V190.955L591.678 190.879L591.815 190.705L591.981 190.493C592.171 190.243 592.398 189.932 592.656 189.554C594.665 186.616 598.41 179.907 597.333 171.986C597.288 171.642 597.232 171.297 597.166 170.948C596.754 168.8 596.018 166.727 594.983 164.799C594.832 163.997 594.738 163.185 594.703 162.369C594.703 161.907 594.703 161.399 594.703 160.854V160.763C594.703 160.617 594.703 160.471 594.703 160.324V160.218C594.703 159.862 594.763 159.461 594.817 159.128V158.991C594.817 158.855 594.839 158.716 594.885 158.575V158.401C594.885 158.264 594.945 158.128 594.976 157.992V157.848C595.021 157.666 595.067 157.484 595.127 157.303V157.212C595.173 157.06 595.223 156.911 595.279 156.765L595.347 156.591L595.499 156.227L595.574 156.046C595.635 155.909 595.703 155.773 595.772 155.637L595.825 155.523C595.916 155.356 596.012 155.192 596.113 155.031L596.196 154.902L596.446 154.546L596.568 154.387L596.833 154.069L596.954 153.933C597.091 153.789 597.227 153.645 597.379 153.509C601.525 149.723 620.029 121.818 620.029 121.818C620.029 121.818 624.494 115.541 624.494 111.466C624.744 111.376 632.635 85.099 631.839 77.1101ZM582.165 311.668C581.71 307.366 581.255 302.035 580.838 296.523L588.055 307.76C588.055 307.76 587.373 311.183 582.165 311.668Z" fill="url(#paint3_linear)"/>
<path d="M506.925 309.289C506.925 309.289 502.605 302.474 496.116 308.675C489.627 314.877 485.003 335.505 485.003 335.505C485.003 335.505 482.532 352.164 490.87 347.84C490.87 347.84 500.725 333.96 503.529 333.347C506.334 332.733 509.397 325.017 509.397 325.017L506.925 309.289Z" fill="#493545"/>
<path d="M553.233 325.942C553.233 325.942 547.366 323.163 545.516 325.329C543.666 327.494 537.488 349.076 537.488 349.076C537.488 349.076 535.639 363.267 541.809 362.646C547.98 362.025 558.789 339.807 558.789 339.807L553.233 325.942Z" fill="#493545"/>
<path opacity="0.05" d="M553.233 325.942C553.233 325.942 547.366 323.163 545.516 325.329C543.666 327.494 537.488 349.076 537.488 349.076C537.488 349.076 535.639 363.267 541.809 362.646C547.98 362.025 558.789 339.807 558.789 339.807L553.233 325.942Z" fill="black"/>
<path d="M573.602 283.998L586.876 304.663C586.876 304.663 585.951 309.29 577.923 308.366L550.444 325.639C550.444 325.639 548.056 346.668 555.69 344.76C556.926 344.449 565.544 335.506 571.745 336.127L608.184 321.936C608.184 321.936 616.826 316.999 612.194 300.658C607.563 284.316 592.25 246.423 592.25 246.423L568.046 259.948L573.602 283.998Z" fill="#3E3D77"/>
<path opacity="0.05" d="M573.602 283.998L586.876 304.663C586.876 304.663 585.951 309.29 577.923 308.366L550.444 325.639C550.444 325.639 548.056 346.668 555.69 344.76C556.926 344.449 565.544 335.506 571.745 336.127L608.184 321.936C608.184 321.936 616.826 316.999 612.194 300.658C607.563 284.316 592.25 246.423 592.25 246.423L568.046 259.948L573.602 283.998Z" fill="black"/>
<path d="M581.948 314.53C583.798 326.252 573.307 327.176 573.307 327.176C573.307 327.176 526.066 328.1 520.509 326.866C514.953 325.631 507.539 329.024 507.539 329.024C497.965 323.163 505.69 308.669 505.69 308.669C505.69 308.669 525.452 308.056 530.083 307.155C534.715 306.254 558.176 304.974 558.176 304.974C558.176 304.974 556.326 293.562 543.971 264.575C535.579 244.886 541.696 233.3 546.525 227.901C547.757 226.468 549.184 225.214 550.763 224.175L588.74 226.023C588.699 227.936 588.77 229.85 588.953 231.755C589.602 238.296 591.304 244.688 593.994 250.687C591.833 250.687 577.938 263.643 577.938 263.643C577.938 263.643 580.091 302.815 581.948 314.53Z" fill="#3E3D77"/>
<path opacity="0.1" d="M508.461 309.903C508.461 309.903 528.223 309.29 532.855 308.389C537.486 307.488 560.947 306.23 560.947 306.23C560.947 306.23 559.098 294.819 546.742 265.831C538.35 246.143 544.468 234.557 549.296 229.158C550.528 227.725 551.955 226.471 553.534 225.432L588.722 227.144C588.722 226.78 588.722 226.386 588.722 226.046L550.744 224.198C549.165 225.237 547.739 226.491 546.507 227.924C541.701 233.33 535.561 244.909 543.952 264.597C556.338 293.562 558.173 304.974 558.173 304.974C558.173 304.974 534.674 306.208 530.08 307.132C525.486 308.055 505.686 308.646 505.686 308.646C505.686 308.646 497.969 323.147 507.536 329.031C507.536 329.031 507.824 328.895 508.294 328.698C501.934 322.163 508.461 309.903 508.461 309.903Z" fill="black"/>
<path d="M564.961 110.974H545.821V159.393H564.961V110.974Z" fill="#493545"/>
<path opacity="0.1" d="M564.961 110.974H545.821V159.393H564.961V110.974Z" fill="black"/>
<path d="M575.905 103.872C576.564 104.053 577.307 104.076 577.754 104.985C578.032 105.711 578.183 106.479 578.202 107.256L579.407 122.22C579.424 123.199 579.614 124.168 579.968 125.082C580.476 126.097 581.317 126.218 581.977 126.869C583.303 128.187 583.69 131.488 583.326 134.177C582.962 136.865 582.045 139.167 581.325 141.598C580.294 145.081 579.611 148.996 578.164 151.934C576.716 154.872 574.085 156.478 572.387 154.009C570.689 151.54 570.917 146.558 570.598 142.476C570.068 135.661 567.407 129.784 567.225 122.924C567.073 117.373 568.567 112.194 569.499 106.931C570.166 103.319 570.204 98.9343 571.174 95.6857C571.986 99.5476 573.532 103.22 575.905 103.872Z" fill="#493545"/>
<path opacity="0.1" d="M575.905 103.872C576.564 104.053 577.307 104.076 577.754 104.985C578.032 105.711 578.183 106.479 578.202 107.256L579.407 122.22C579.424 123.199 579.614 124.168 579.968 125.082C580.476 126.097 581.317 126.218 581.977 126.869C583.303 128.187 583.69 131.488 583.326 134.177C582.962 136.865 582.045 139.167 581.325 141.598C580.294 145.081 579.611 148.996 578.164 151.934C576.716 154.872 574.085 156.478 572.387 154.009C570.689 151.54 570.917 146.558 570.598 142.476C570.068 135.661 567.407 129.784 567.225 122.924C567.073 117.373 568.567 112.194 569.499 106.931C570.166 103.319 570.204 98.9343 571.174 95.6857C571.986 99.5476 573.532 103.22 575.905 103.872Z" fill="black"/>
<path d="M494.883 82.6005L487.477 88.7721C487.477 88.7721 486.598 87.7422 485.286 86.0763C480.139 79.5109 468.306 63.0408 476.667 60.0951C485.028 57.1494 491.639 73.2106 493.973 79.8441C494.565 81.5252 494.883 82.6005 494.883 82.6005Z" fill="#C77485"/>
<path d="M628.564 80.442C625.479 85.0688 621.158 80.442 621.158 80.442C621.158 80.442 620.605 79.6166 619.824 78.2839C617.285 73.9903 612.304 64.4717 615.602 60.7006C619.392 56.3919 628.784 71.0976 629.072 77.9961C629.161 78.8444 628.984 79.6993 628.564 80.442Z" fill="#C77485"/>
<path d="M552.616 130.406C552.616 130.406 558.794 150.147 556.937 156.001C555.079 161.854 570.217 168.669 570.217 168.669H587.508C587.508 168.669 593.686 156.023 592.14 152.32C590.593 148.617 577.32 145.846 577.32 145.846C577.32 145.846 569.604 145.846 569.914 125.181L552.616 130.406Z" fill="#C77485"/>
<path opacity="0.1" d="M494.877 82.6005L487.471 88.7721C487.471 88.7721 486.591 87.7422 485.28 86.0763C487.971 85.5992 492.148 81.6767 493.975 79.8441C494.558 81.5252 494.877 82.6005 494.877 82.6005Z" fill="black"/>
<path opacity="0.1" d="M628.565 80.4421C625.48 85.0689 621.159 80.4421 621.159 80.4421C621.159 80.4421 620.605 79.6167 619.825 78.284L619.923 77.9735C621.924 79.4047 628.148 78.1855 629.073 77.9735C629.167 78.8292 628.989 79.6928 628.565 80.4421Z" fill="black"/>
<path opacity="0.1" d="M588.933 231.748C579.382 236.102 548.347 228.348 546.483 227.886C547.715 226.453 549.141 225.199 550.72 224.16L588.698 226.008C588.664 227.924 588.743 229.841 588.933 231.748Z" fill="black"/>
<path d="M556.634 147.368C556.634 147.368 549.228 149.836 538.729 140.273C538.729 140.273 515.23 117.139 513.713 111.588L495.521 79.7835C495.521 79.7835 487.804 88.1132 484.711 86.8789L505.087 122.348C505.087 122.348 508.794 129.163 512.19 130.981C512.19 130.981 537.508 163.369 537.811 169.843C538.115 176.317 549.22 193.658 549.22 193.658C549.22 193.658 552.927 221.722 546.438 226.659C546.438 226.659 582.559 235.913 590.275 229.741C590.275 229.741 586.879 194.908 590.275 191.19C590.275 191.19 600.774 178.854 593.672 165.284C593.672 165.284 592.155 157.886 596.143 154.183C600.13 150.48 618.065 123.03 618.065 123.03C618.065 123.03 622.386 116.858 622.386 112.853C622.386 112.853 630.414 85.7127 629.208 78.6173C629.208 78.6173 622.105 80.1318 619.945 78.6173C619.945 78.6173 609.446 110.422 608.211 111.618C606.975 112.815 598.356 137.834 586.91 140.613C575.463 143.392 573.636 144.619 573.636 144.619C573.636 144.619 595.862 158.499 585.06 164.663C574.258 170.827 556.634 147.368 556.634 147.368Z" fill="#FFAAC4"/>
<path opacity="0.1" d="M570.664 135.153C570.297 132.248 570.147 129.319 570.216 126.392L552.926 131.632C553.381 132.783 553.743 133.968 554.01 135.176C555.988 136.047 558.656 138.107 560.953 138.107C564.428 138.22 567.842 137.182 570.664 135.153Z" fill="black"/>
<path d="M560.635 137.19C569.502 137.19 576.69 130.01 576.69 121.152C576.69 112.294 569.502 105.113 560.635 105.113C551.768 105.113 544.579 112.294 544.579 121.152C544.579 130.01 551.768 137.19 560.635 137.19Z" fill="#C77485"/>
<path opacity="0.1" d="M541.54 96.4426C538.007 96.7152 534.065 99.1536 534.263 102.69C534.369 104.636 535.703 106.279 536.287 108.142C537.689 112.648 534.566 117.168 531.822 121.015C529.078 124.862 526.515 129.958 528.865 134.033C529.535 135.013 530.259 135.956 531.033 136.857C533.937 140.772 533.899 146.057 535.187 150.76C536.833 156.776 540.723 161.934 546.058 165.173C551.393 168.413 557.768 169.488 563.871 168.177C561.574 165.247 560.428 161.579 560.65 157.863C560.824 155.167 561.696 152.35 560.65 149.859C559.301 146.656 555.344 145.391 553.304 142.589C551.265 139.788 551.402 135.903 552.387 132.563C553.373 129.224 555.078 126.127 555.897 122.719C556.099 121.725 556.352 120.742 556.655 119.773C558.08 115.73 562.34 113.382 566.51 112.375C570.679 111.368 575.06 111.307 579.131 109.982C583.202 108.657 587.158 105.552 587.629 101.289C584.202 102.66 581.026 99.0854 577.721 97.4422C572.278 94.7464 566.07 97.2832 560.46 97.9041C554.07 98.6159 548.006 95.9731 541.54 96.4426Z" fill="black"/>
<path d="M541.219 95.8293C537.687 96.102 533.745 98.5403 533.942 102.077C534.048 104.023 535.383 105.666 535.966 107.529C537.369 112.034 534.245 116.555 531.501 120.402C528.757 124.249 526.195 129.345 528.545 133.419C529.215 134.4 529.939 135.343 530.713 136.244C533.616 140.159 533.578 145.444 534.867 150.147C536.513 156.163 540.403 161.321 545.738 164.56C551.073 167.799 557.448 168.874 563.551 167.563C561.254 164.633 560.108 160.965 560.33 157.25C560.504 154.554 561.376 151.737 560.33 149.246C558.98 146.042 555.023 144.778 552.984 141.976C550.945 139.174 551.082 135.29 552.067 131.95C553.052 128.611 554.758 125.513 555.577 122.106C555.779 121.112 556.032 120.128 556.335 119.16C557.76 115.116 562.02 112.769 566.189 111.762C570.358 110.755 574.74 110.694 578.811 109.369C582.881 108.044 586.838 104.939 587.308 100.676C583.882 102.046 580.706 98.4721 577.401 96.8289C571.958 94.1331 565.75 96.6699 560.14 97.2908C553.765 97.9951 547.723 95.322 541.219 95.8293Z" fill="#493545"/>
<path opacity="0.1" d="M576.543 156.781C576.543 156.781 582.971 162.513 584.237 165.042L576.543 156.781Z" fill="black"/>
<path opacity="0.1" d="M590.451 191.015C590.451 191.015 582.424 191.015 578.717 191.939C575.01 192.863 566.058 191.939 566.058 191.939" fill="black"/>
<g opacity="0.1">
<path opacity="0.1" d="M585.028 164.641C584.336 165.036 583.587 165.322 582.807 165.489C584.82 165.935 586.928 165.633 588.735 164.641C599.545 158.469 577.311 144.596 577.311 144.596H573.604C573.604 144.596 595.838 158.477 585.028 164.641Z" fill="black"/>
<path opacity="0.1" d="M629.244 79.1551C629.244 78.9582 629.199 78.7689 629.169 78.5947C627.899 78.8576 626.616 79.0522 625.325 79.1778C626.628 79.321 627.943 79.3133 629.244 79.1551Z" fill="black"/>
<path opacity="0.1" d="M550.139 226.637C556.62 221.699 552.921 193.636 552.921 193.636C552.921 193.636 541.808 176.363 541.497 169.888C541.186 163.414 515.876 131.026 515.876 131.026C512.479 129.179 508.773 122.394 508.773 122.394C508.773 122.394 487.775 88.1586 484.69 86.9243L505.066 122.394C505.066 122.394 508.773 129.209 512.169 131.026C512.169 131.026 537.487 163.414 537.79 169.888C538.094 176.363 549.206 193.658 549.206 193.658C549.206 193.658 552.913 221.722 546.424 226.659C546.424 226.659 568.627 232.346 581.939 231.831C568.597 231.362 550.139 226.637 550.139 226.637Z" fill="black"/>
<path opacity="0.1" d="M556.801 147.61L556.619 147.375C556.408 147.438 556.193 147.486 555.975 147.519C556.263 147.557 556.536 147.588 556.801 147.61Z" fill="black"/>
</g>
<g opacity="0.1">
<path opacity="0.1" d="M629.179 78.5566L628.989 78.5945C628.663 88.0677 622.083 110.323 622.083 110.323C622.083 114.329 617.762 120.501 617.762 120.501C617.762 120.501 599.858 147.951 595.84 151.654C591.822 155.357 593.369 162.755 593.369 162.755L593.407 162.831C593.285 160.34 593.589 156.477 596.143 154.115C600.153 150.412 618.066 122.962 618.066 122.962C618.066 122.962 622.387 116.79 622.387 112.784C622.387 112.83 630.414 85.6899 629.179 78.5566Z" fill="black"/>
<path opacity="0.1" d="M589.974 188.699C590.436 191.319 590.125 188.547 590.285 191.167C590.285 191.167 597.865 182.285 595.796 171.305C596.417 181.118 589.974 188.699 589.974 188.699Z" fill="black"/>
</g>
<path opacity="0.1" d="M356.131 500.92C535.175 500.92 680.322 486.993 680.322 469.812C680.322 452.632 535.175 438.705 356.131 438.705C177.086 438.705 31.9405 452.632 31.9405 469.812C31.9405 486.993 177.086 500.92 356.131 500.92Z" fill="#2C7BE5"/>
<path d="M230.462 438.249C230.462 438.249 219.425 400.803 232.531 373.247C238.106 361.722 239.787 348.702 237.322 336.142C236.105 330.188 234.344 324.358 232.062 318.725" stroke="#535461" stroke-width="2" stroke-miterlimit="10"/>
<path d="M240.242 301.325C240.242 305.914 231.903 319.219 231.903 319.219C231.903 319.219 223.565 305.914 223.565 301.325C223.48 300.182 223.632 299.035 224.012 297.953C224.391 296.872 224.99 295.881 225.771 295.042C226.551 294.202 227.496 293.533 228.548 293.075C229.599 292.617 230.734 292.38 231.88 292.38C233.027 292.38 234.162 292.617 235.213 293.075C236.264 293.533 237.21 294.202 237.99 295.042C238.771 295.881 239.37 296.872 239.749 297.953C240.129 299.035 240.281 300.182 240.196 301.325H240.242Z" fill="#2C7BE5"/>
<path d="M253.968 326.737C251.474 330.592 237.253 337.24 237.253 337.24C237.253 337.24 237.511 321.558 240.005 317.703C240.558 316.703 241.311 315.827 242.218 315.129C243.125 314.432 244.166 313.929 245.275 313.651C246.385 313.373 247.541 313.326 248.669 313.513C249.798 313.7 250.876 314.117 251.837 314.739C252.797 315.36 253.619 316.172 254.252 317.125C254.885 318.077 255.314 319.15 255.514 320.275C255.714 321.401 255.68 322.555 255.414 323.667C255.148 324.779 254.656 325.824 253.968 326.737Z" fill="#2C7BE5"/>
<path d="M253.364 370.18C249.263 372.247 233.655 370.816 233.655 370.816C233.655 370.816 241.803 357.406 245.904 355.338C246.888 354.749 247.982 354.368 249.119 354.22C250.256 354.072 251.411 354.16 252.513 354.478C253.614 354.796 254.639 355.338 255.521 356.069C256.404 356.8 257.125 357.706 257.642 358.729C258.158 359.751 258.458 360.87 258.522 362.013C258.586 363.157 258.414 364.302 258.015 365.376C257.616 366.45 257 367.43 256.205 368.255C255.41 369.081 254.453 369.733 253.394 370.173L253.364 370.18Z" fill="#2C7BE5"/>
<path d="M245.511 402.937C241.819 405.664 226.158 406.898 226.158 406.898C226.158 406.898 231.919 392.306 235.618 389.572C237.399 388.491 239.519 388.116 241.563 388.518C243.607 388.921 245.425 390.074 246.661 391.749C247.897 393.424 248.46 395.501 248.24 397.57C248.02 399.639 247.033 401.551 245.473 402.93L245.511 402.937Z" fill="#2C7BE5"/>
<path d="M219.771 338.133C223.068 341.329 238.418 344.646 238.418 344.646C238.418 344.646 234.628 329.417 231.361 326.214C230.599 325.36 229.668 324.673 228.628 324.194C227.588 323.715 226.461 323.456 225.316 323.431C224.171 323.407 223.033 323.619 221.974 324.053C220.914 324.487 219.956 325.135 219.158 325.955C218.36 326.776 217.739 327.752 217.336 328.822C216.932 329.893 216.753 331.035 216.811 332.177C216.868 333.32 217.161 334.439 217.67 335.463C218.179 336.488 218.894 337.397 219.771 338.133Z" fill="#2C7BE5"/>
<path d="M211.075 376.572C215.176 378.639 230.784 377.208 230.784 377.208C230.784 377.208 222.666 363.797 218.565 361.768C216.62 360.961 214.442 360.919 212.468 361.651C210.494 362.382 208.87 363.832 207.922 365.71C206.974 367.588 206.772 369.754 207.357 371.775C207.942 373.795 209.27 375.52 211.075 376.602V376.572Z" fill="#2C7BE5"/>
<path d="M207.742 415.086C211.434 417.812 227.095 419.046 227.095 419.046C227.095 419.046 221.334 404.454 217.635 401.721C216.768 400.954 215.75 400.377 214.648 400.025C213.545 399.673 212.381 399.555 211.23 399.677C210.079 399.799 208.966 400.159 207.962 400.734C206.958 401.309 206.085 402.087 205.398 403.018C204.711 403.949 204.226 405.013 203.973 406.141C203.72 407.269 203.706 408.438 203.93 409.573C204.154 410.707 204.612 411.782 205.275 412.73C205.938 413.678 206.791 414.478 207.78 415.078L207.742 415.086Z" fill="#2C7BE5"/>
<path opacity="0.1" d="M240.242 301.325C240.242 305.914 231.903 319.219 231.903 319.219C231.903 319.219 223.565 305.914 223.565 301.325C223.48 300.182 223.632 299.035 224.012 297.953C224.391 296.872 224.99 295.881 225.771 295.042C226.551 294.202 227.496 293.533 228.548 293.075C229.599 292.617 230.734 292.38 231.88 292.38C233.027 292.38 234.162 292.617 235.213 293.075C236.264 293.533 237.21 294.202 237.99 295.042C238.771 295.881 239.37 296.872 239.749 297.953C240.129 299.035 240.281 300.182 240.196 301.325H240.242Z" fill="#2C7BE5"/>
<path opacity="0.1" d="M253.968 326.737C251.474 330.592 237.253 337.24 237.253 337.24C237.253 337.24 237.511 321.558 240.005 317.703C240.558 316.703 241.311 315.827 242.218 315.129C243.125 314.432 244.166 313.929 245.275 313.651C246.385 313.373 247.541 313.326 248.669 313.513C249.798 313.7 250.876 314.117 251.837 314.739C252.797 315.36 253.619 316.172 254.252 317.125C254.885 318.077 255.314 319.15 255.514 320.275C255.714 321.401 255.68 322.555 255.414 323.667C255.148 324.779 254.656 325.824 253.968 326.737Z" fill="#2C7BE5"/>
<path opacity="0.1" d="M253.364 370.18C249.263 372.247 233.655 370.816 233.655 370.816C233.655 370.816 241.803 357.406 245.904 355.338C246.888 354.749 247.982 354.368 249.119 354.22C250.256 354.072 251.411 354.16 252.513 354.478C253.614 354.796 254.639 355.338 255.521 356.069C256.404 356.8 257.125 357.706 257.642 358.729C258.158 359.751 258.458 360.87 258.522 362.013C258.586 363.157 258.414 364.302 258.015 365.376C257.616 366.45 257 367.43 256.205 368.255C255.41 369.081 254.453 369.733 253.394 370.173L253.364 370.18Z" fill="#2C7BE5"/>
<path opacity="0.1" d="M245.511 402.937C241.819 405.664 226.158 406.898 226.158 406.898C226.158 406.898 231.919 392.306 235.618 389.572C237.399 388.491 239.519 388.116 241.563 388.518C243.607 388.921 245.425 390.074 246.661 391.749C247.897 393.424 248.46 395.501 248.24 397.57C248.02 399.639 247.033 401.551 245.473 402.93L245.511 402.937Z" fill="#2C7BE5"/>
<path opacity="0.1" d="M219.771 338.133C223.068 341.329 238.418 344.646 238.418 344.646C238.418 344.646 234.628 329.417 231.361 326.214C230.599 325.36 229.668 324.673 228.628 324.194C227.588 323.715 226.461 323.456 225.316 323.431C224.171 323.407 223.033 323.619 221.974 324.053C220.914 324.487 219.956 325.135 219.158 325.955C218.36 326.776 217.739 327.752 217.336 328.822C216.932 329.893 216.753 331.035 216.811 332.177C216.868 333.32 217.161 334.439 217.67 335.463C218.179 336.488 218.894 337.397 219.771 338.133Z" fill="#2C7BE5"/>
<path opacity="0.1" d="M211.075 376.572C215.176 378.639 230.784 377.208 230.784 377.208C230.784 377.208 222.666 363.797 218.565 361.768C216.62 360.961 214.442 360.919 212.468 361.651C210.494 362.382 208.87 363.832 207.922 365.71C206.974 367.588 206.772 369.754 207.357 371.775C207.942 373.795 209.27 375.52 211.075 376.602V376.572Z" fill="#2C7BE5"/>
<path opacity="0.1" d="M207.742 415.086C211.434 417.812 227.095 419.046 227.095 419.046C227.095 419.046 221.334 404.454 217.635 401.721C216.768 400.954 215.75 400.377 214.648 400.025C213.545 399.673 212.381 399.555 211.23 399.677C210.079 399.799 208.966 400.159 207.962 400.734C206.958 401.309 206.085 402.087 205.398 403.018C204.711 403.949 204.226 405.013 203.973 406.141C203.72 407.269 203.706 408.438 203.93 409.573C204.154 410.707 204.612 411.782 205.275 412.73C205.938 413.678 206.791 414.478 207.78 415.078L207.742 415.086Z" fill="#2C7BE5"/>
<path d="M453.818 438.787C453.818 438.787 442.781 401.341 455.888 373.785C461.462 362.26 463.143 349.24 460.679 336.68C459.461 330.726 457.7 324.896 455.418 319.263" stroke="#535461" stroke-width="2" stroke-miterlimit="10"/>
<path d="M463.575 301.853C463.575 306.442 455.236 319.746 455.236 319.746C455.236 319.746 446.898 306.442 446.898 301.853C447.053 299.756 447.997 297.795 449.539 296.364C451.081 294.933 453.108 294.138 455.213 294.138C457.318 294.138 459.345 294.933 460.888 296.364C462.43 297.795 463.374 299.756 463.529 301.853H463.575Z" fill="#2C7BE5"/>
<path d="M477.324 327.267C474.83 331.122 460.609 337.77 460.609 337.77C460.609 337.77 460.867 322.088 463.361 318.233C463.914 317.233 464.668 316.357 465.574 315.659C466.481 314.962 467.522 314.459 468.632 314.181C469.742 313.903 470.897 313.856 472.026 314.043C473.155 314.23 474.233 314.647 475.193 315.269C476.154 315.89 476.976 316.702 477.608 317.655C478.241 318.607 478.671 319.68 478.871 320.805C479.07 321.931 479.036 323.085 478.77 324.197C478.504 325.309 478.012 326.354 477.324 327.267Z" fill="#2C7BE5"/>
<path d="M476.75 370.71C472.649 372.777 457.041 371.346 457.041 371.346C457.041 371.346 465.19 357.935 469.291 355.868C470.275 355.273 471.372 354.887 472.513 354.736C473.653 354.585 474.813 354.672 475.918 354.99C477.024 355.308 478.051 355.852 478.936 356.586C479.821 357.32 480.545 358.229 481.061 359.256C481.577 360.284 481.875 361.406 481.936 362.554C481.996 363.702 481.819 364.849 481.414 365.925C481.009 367.001 480.386 367.981 479.583 368.805C478.78 369.628 477.816 370.277 476.75 370.71Z" fill="#2C7BE5"/>
<path d="M468.855 403.467C465.163 406.194 449.502 407.428 449.502 407.428C449.502 407.428 455.263 392.836 458.963 390.102C460.743 389.021 462.864 388.646 464.907 389.048C466.951 389.451 468.77 390.604 470.005 392.279C471.241 393.954 471.805 396.031 471.585 398.1C471.365 400.169 470.377 402.081 468.817 403.46L468.855 403.467Z" fill="#2C7BE5"/>
<path d="M443.137 338.663C446.434 341.859 461.784 345.176 461.784 345.176C461.784 345.176 457.994 329.947 454.727 326.744C453.965 325.89 453.034 325.203 451.994 324.724C450.954 324.245 449.827 323.986 448.682 323.961C447.537 323.937 446.399 324.149 445.34 324.583C444.28 325.017 443.322 325.665 442.524 326.485C441.726 327.306 441.105 328.282 440.702 329.352C440.298 330.423 440.119 331.565 440.177 332.708C440.234 333.85 440.527 334.968 441.036 335.993C441.545 337.018 442.26 337.927 443.137 338.663Z" fill="#2C7BE5"/>
<path d="M434.419 377.103C438.52 379.17 454.128 377.739 454.128 377.739C454.128 377.739 445.98 364.328 441.879 362.261C439.934 361.454 437.756 361.412 435.782 362.144C433.808 362.875 432.184 364.325 431.236 366.203C430.288 368.08 430.086 370.247 430.671 372.267C431.256 374.288 432.584 376.012 434.389 377.095L434.419 377.103Z" fill="#2C7BE5"/>
<path d="M431.094 415.614C434.786 418.34 450.447 419.575 450.447 419.575C450.447 419.575 444.686 404.982 440.986 402.249C439.206 401.168 437.086 400.792 435.042 401.195C432.998 401.598 431.18 402.75 429.944 404.426C428.708 406.101 428.145 408.177 428.365 410.246C428.584 412.316 429.572 414.228 431.132 415.607L431.094 415.614Z" fill="#2C7BE5"/>
<path opacity="0.1" d="M463.575 301.853C463.575 306.442 455.236 319.746 455.236 319.746C455.236 319.746 446.898 306.442 446.898 301.853C447.053 299.756 447.997 297.795 449.539 296.364C451.081 294.933 453.108 294.138 455.213 294.138C457.318 294.138 459.345 294.933 460.888 296.364C462.43 297.795 463.374 299.756 463.529 301.853H463.575Z" fill="#2C7BE5"/>
<path opacity="0.1" d="M477.324 327.267C474.83 331.122 460.609 337.77 460.609 337.77C460.609 337.77 460.867 322.088 463.361 318.233C463.914 317.233 464.668 316.357 465.574 315.659C466.481 314.962 467.522 314.459 468.632 314.181C469.742 313.903 470.897 313.856 472.026 314.043C473.155 314.23 474.233 314.647 475.193 315.269C476.154 315.89 476.976 316.702 477.608 317.655C478.241 318.607 478.671 319.68 478.871 320.805C479.07 321.931 479.036 323.085 478.77 324.197C478.504 325.309 478.012 326.354 477.324 327.267Z" fill="#2C7BE5"/>
<path opacity="0.1" d="M476.75 370.71C472.649 372.777 457.041 371.346 457.041 371.346C457.041 371.346 465.19 357.935 469.291 355.868C470.275 355.273 471.372 354.887 472.513 354.736C473.653 354.585 474.813 354.672 475.918 354.99C477.024 355.308 478.051 355.852 478.936 356.586C479.821 357.32 480.545 358.229 481.061 359.256C481.577 360.284 481.875 361.406 481.936 362.554C481.996 363.702 481.819 364.849 481.414 365.925C481.009 367.001 480.386 367.981 479.583 368.805C478.78 369.628 477.816 370.277 476.75 370.71Z" fill="#2C7BE5"/>
<path opacity="0.1" d="M468.855 403.467C465.163 406.194 449.502 407.428 449.502 407.428C449.502 407.428 455.263 392.836 458.963 390.102C460.743 389.021 462.864 388.646 464.907 389.048C466.951 389.451 468.77 390.604 470.005 392.279C471.241 393.954 471.805 396.031 471.585 398.1C471.365 400.169 470.377 402.081 468.817 403.46L468.855 403.467Z" fill="#2C7BE5"/>
<path opacity="0.1" d="M443.137 338.663C446.434 341.859 461.784 345.176 461.784 345.176C461.784 345.176 457.994 329.947 454.727 326.744C453.965 325.89 453.034 325.203 451.994 324.724C450.954 324.245 449.827 323.986 448.682 323.961C447.537 323.937 446.399 324.149 445.34 324.583C444.28 325.017 443.322 325.665 442.524 326.485C441.726 327.306 441.105 328.282 440.702 329.352C440.298 330.423 440.119 331.565 440.177 332.708C440.234 333.85 440.527 334.968 441.036 335.993C441.545 337.018 442.26 337.927 443.137 338.663Z" fill="#2C7BE5"/>
<path opacity="0.1" d="M434.419 377.103C438.52 379.17 454.128 377.739 454.128 377.739C454.128 377.739 445.98 364.328 441.879 362.261C439.934 361.454 437.756 361.412 435.782 362.144C433.808 362.875 432.184 364.325 431.236 366.203C430.288 368.08 430.086 370.247 430.671 372.267C431.256 374.288 432.584 376.012 434.389 377.095L434.419 377.103Z" fill="#2C7BE5"/>
<path opacity="0.1" d="M431.094 415.614C434.786 418.34 450.447 419.575 450.447 419.575C450.447 419.575 444.686 404.982 440.986 402.249C439.206 401.168 437.086 400.792 435.042 401.195C432.998 401.598 431.18 402.75 429.944 404.426C428.708 406.101 428.145 408.177 428.365 410.246C428.584 412.316 429.572 414.228 431.132 415.607L431.094 415.614Z" fill="#2C7BE5"/>
<path opacity="0.5" d="M507.826 11.5783H503.065C503.516 11.5998 503.967 11.5296 504.39 11.3721C504.812 11.2145 505.199 10.9729 505.526 10.6617C505.852 10.3506 506.113 9.9764 506.29 9.56188C506.468 9.14739 506.559 8.70115 506.559 8.25021C506.559 7.79931 506.468 7.35308 506.29 6.93857C506.113 6.52406 505.852 6.14989 505.526 5.83873C505.199 5.52757 504.812 5.2859 504.39 5.12834C503.967 4.97079 503.516 4.90063 503.065 4.92212H464.466C463.61 4.96293 462.802 5.33138 462.211 5.95105C461.619 6.57072 461.289 7.39404 461.289 8.25021C461.289 9.10642 461.619 9.92973 462.211 10.5494C462.802 11.1691 463.61 11.5375 464.466 11.5783H469.226C468.37 11.6191 467.563 11.9876 466.971 12.6073C466.38 13.2269 466.05 14.0502 466.05 14.9065C466.05 15.7626 466.38 16.5859 466.971 17.2056C467.563 17.8253 468.37 18.1937 469.226 18.2345H462.563C462.112 18.213 461.662 18.2832 461.239 18.4408C460.816 18.5983 460.429 18.84 460.103 19.1511C459.776 19.4623 459.516 19.8365 459.338 20.251C459.16 20.6655 459.069 21.1117 459.069 21.5626C459.069 22.0136 459.16 22.4598 459.338 22.8743C459.516 23.2888 459.776 23.663 460.103 23.9741C460.429 24.2853 460.816 24.527 461.239 24.6845C461.662 24.8421 462.112 24.9122 462.563 24.8908H501.132C501.583 24.9122 502.034 24.8421 502.456 24.6845C502.879 24.527 503.266 24.2853 503.593 23.9741C503.92 23.663 504.179 23.2888 504.357 22.8743C504.535 22.4598 504.627 22.0136 504.627 21.5626C504.627 21.1117 504.535 20.6655 504.357 20.251C504.179 19.8365 503.92 19.4623 503.593 19.1511C503.266 18.84 502.879 18.5983 502.456 18.4408C502.034 18.2832 501.583 18.213 501.132 18.2345H507.826C508.682 18.1937 509.489 17.8253 510.081 17.2056C510.672 16.5859 511.002 15.7626 511.002 14.9065C511.002 14.0502 510.672 13.2269 510.081 12.6073C509.489 11.9876 508.682 11.6191 507.826 11.5783Z" fill="#DEE3F3"/>
<path opacity="0.5" d="M284.797 30.9937H281.174C281.518 31.0125 281.863 30.961 282.187 30.8422C282.511 30.7234 282.808 30.5399 283.058 30.3028C283.309 30.0658 283.508 29.7802 283.645 29.4634C283.781 29.1467 283.852 28.8055 283.852 28.4607C283.852 28.1159 283.781 27.7748 283.645 27.458C283.508 27.1413 283.309 26.8557 283.058 26.6186C282.808 26.3816 282.511 26.198 282.187 26.0792C281.863 25.9605 281.518 25.9089 281.174 25.9277H251.822C251.174 25.9632 250.564 26.2455 250.117 26.7166C249.671 27.1878 249.422 27.8119 249.422 28.4607C249.422 29.1095 249.671 29.7337 250.117 30.2048C250.564 30.676 251.174 30.9583 251.822 30.9937H255.446C255.101 30.9749 254.756 31.0264 254.432 31.1452C254.108 31.264 253.812 31.4475 253.561 31.6846C253.311 31.9217 253.111 32.2073 252.974 32.524C252.838 32.8407 252.768 33.1819 252.768 33.5267C252.768 33.8715 252.838 34.2127 252.974 34.5294C253.111 34.8461 253.311 35.1318 253.561 35.3688C253.812 35.6059 254.108 35.7894 254.432 35.9082C254.756 36.027 255.101 36.0785 255.446 36.0597H250.375C250.03 36.0409 249.685 36.0924 249.361 36.2112C249.037 36.33 248.741 36.5135 248.49 36.7506C248.239 36.9877 248.04 37.2733 247.903 37.59C247.767 37.9067 247.696 38.2479 247.696 38.5927C247.696 38.9375 247.767 39.2787 247.903 39.5954C248.04 39.9121 248.239 40.1978 248.49 40.4348C248.741 40.6719 249.037 40.8554 249.361 40.9742C249.685 41.093 250.03 41.1445 250.375 41.1257H279.726C280.07 41.1445 280.415 41.093 280.739 40.9742C281.063 40.8554 281.36 40.6719 281.611 40.4348C281.861 40.1978 282.061 39.9121 282.197 39.5954C282.333 39.2787 282.404 38.9375 282.404 38.5927C282.404 38.2479 282.333 37.9067 282.197 37.59C282.061 37.2733 281.861 36.9877 281.611 36.7506C281.36 36.5135 281.063 36.33 280.739 36.2112C280.415 36.0924 280.07 36.0409 279.726 36.0597H284.797C285.446 36.0243 286.056 35.742 286.503 35.2708C286.949 34.7997 287.198 34.1755 287.198 33.5267C287.198 32.8779 286.949 32.2537 286.503 31.7826C286.056 31.3115 285.446 31.0292 284.797 30.9937Z" fill="#DEE3F3"/>
<path d="M38.4302 389.787C38.4302 389.787 51.6959 415.798 40.8863 430.027C30.0767 444.255 41.8717 483.034 41.8717 483.034" stroke="#2C7BE5" stroke-miterlimit="10"/>
<path d="M42.39 381.654C42.39 386.667 38.706 390.741 38.706 390.741C38.706 390.741 35.0219 386.675 35.0219 381.654C35.0219 376.634 38.706 372.567 38.706 372.567C38.706 372.567 42.39 376.641 42.39 381.654Z" fill="#2C7BE5"/>
<path d="M45.3067 389.787C45.3067 389.787 32.041 415.798 42.8506 430.027C53.6603 444.255 41.8652 483.034 41.8652 483.034" stroke="#2C7BE5" stroke-miterlimit="10"/>
<path d="M41.3809 381.654C41.3809 386.667 45.065 390.741 45.065 390.741C45.065 390.741 48.7491 386.675 48.7491 381.654C48.7491 376.634 45.065 372.567 45.065 372.567C45.065 372.567 41.3809 376.641 41.3809 381.654Z" fill="#2C7BE5"/>
<path opacity="0.1" d="M41.3809 381.654C41.3809 386.667 45.065 390.741 45.065 390.741C45.065 390.741 48.7491 386.675 48.7491 381.654C48.7491 376.634 45.065 372.567 45.065 372.567C45.065 372.567 41.3809 376.641 41.3809 381.654Z" fill="black"/>
<path d="M50.7245 389.787C50.7245 389.787 63.9902 415.798 53.1805 430.027C42.3709 444.255 54.166 483.034 54.166 483.034" stroke="#2C7BE5" stroke-miterlimit="10"/>
<path d="M54.643 381.654C54.643 386.667 50.959 390.741 50.959 390.741C50.959 390.741 47.2749 386.675 47.2749 381.654C47.2749 376.634 50.959 372.567 50.959 372.567C50.959 372.567 54.643 376.641 54.643 381.654Z" fill="#2C7BE5"/>
<path d="M52.5745 402.491C49.0951 406.103 43.6145 406.482 43.6145 406.482C43.6145 406.482 43.7813 401 47.2607 397.395C50.7401 393.791 56.2207 393.404 56.2207 393.404C56.2207 393.404 56.0312 398.872 52.5745 402.491Z" fill="#2C7BE5"/>
<path d="M52.9261 420.44C49.4467 424.052 43.9661 424.43 43.9661 424.43C43.9661 424.43 44.1328 418.948 47.6122 415.343C51.0916 411.739 56.5723 411.353 56.5723 411.353C56.5723 411.353 56.4055 416.82 52.9261 420.44Z" fill="#2C7BE5"/>
<path d="M34.0532 430.306C37.3431 434.092 37.2293 439.575 37.2293 439.575C37.2293 439.575 31.7791 438.916 28.4892 435.13C25.1993 431.343 25.313 425.861 25.313 425.861C25.313 425.861 30.7633 426.52 34.0532 430.306Z" fill="#2C7BE5"/>
<path d="M37.0855 392.056C41.2699 394.827 42.6268 400.143 42.6268 400.143C42.6268 400.143 37.1992 400.969 33.0148 398.197C28.8305 395.426 27.4736 390.11 27.4736 390.11C27.4736 390.11 32.9239 389.269 37.0855 392.056Z" fill="#2C7BE5"/>
<path opacity="0.1" d="M37.0855 392.056C41.2699 394.827 42.6268 400.143 42.6268 400.143C42.6268 400.143 37.1992 400.969 33.0148 398.197C28.8305 395.426 27.4736 390.11 27.4736 390.11C27.4736 390.11 32.9239 389.269 37.0855 392.056Z" fill="black"/>
<path d="M57.5909 389.787C57.5909 389.787 44.3252 415.798 55.1349 430.027C65.9445 444.255 54.1494 483.034 54.1494 483.034" stroke="#2C7BE5" stroke-miterlimit="10"/>
<path d="M53.6649 381.654C53.6649 386.667 57.349 390.741 57.349 390.741C57.349 390.741 61.0331 386.675 61.0331 381.654C61.0331 376.634 57.349 372.567 57.349 372.567C57.349 372.567 53.6649 376.641 53.6649 381.654Z" fill="#2C7BE5"/>
<path opacity="0.1" d="M53.6649 381.654C53.6649 386.667 57.349 390.741 57.349 390.741C57.349 390.741 61.0331 386.675 61.0331 381.654C61.0331 376.634 57.349 372.567 57.349 372.567C57.349 372.567 53.6649 376.641 53.6649 381.654Z" fill="black"/>
<path d="M54.7254 402.879C51.2006 406.453 50.9352 411.966 50.9352 411.966C50.9352 411.966 56.4159 411.655 59.9407 408.081C63.4656 404.507 63.7309 398.994 63.7309 398.994C63.7309 398.994 58.2503 399.304 54.7254 402.879Z" fill="#2C7BE5"/>
<path opacity="0.1" d="M54.7254 402.879C51.2006 406.453 50.9352 411.966 50.9352 411.966C50.9352 411.966 56.4159 411.655 59.9407 408.081C63.4656 404.507 63.7309 398.994 63.7309 398.994C63.7309 398.994 58.2503 399.304 54.7254 402.879Z" fill="black"/>
<path d="M61.6327 427.723C58.1078 431.298 57.8425 436.81 57.8425 436.81C57.8425 436.81 63.3231 436.5 66.848 432.926C70.3728 429.351 70.6382 423.839 70.6382 423.839C70.6382 423.839 65.1348 424.149 61.6327 427.723Z" fill="#2C7BE5"/>
<path d="M51.4832 422.265C51.4832 422.265 59.4653 409.694 70.6767 409.391L51.4832 422.265Z" stroke="#2C7BE5" stroke-miterlimit="10"/>
<path d="M45.2506 414.669C45.2506 414.669 37.2684 402.098 26.057 401.795L45.2506 414.669Z" stroke="#2C7BE5" stroke-miterlimit="10"/>
<path d="M44.2141 432.614C44.2141 432.614 52.1962 420.044 63.4076 419.741L44.2141 432.614Z" stroke="#2C7BE5" stroke-miterlimit="10"/>
<path d="M70.2932 411.39C71.4361 411.39 72.3626 410.464 72.3626 409.323C72.3626 408.181 71.4361 407.255 70.2932 407.255C69.1503 407.255 68.2238 408.181 68.2238 409.323C68.2238 410.464 69.1503 411.39 70.2932 411.39Z" fill="#2C7BE5"/>
<path d="M26.2549 403.969C27.3978 403.969 28.3243 403.043 28.3243 401.902C28.3243 400.76 27.3978 399.834 26.2549 399.834C25.1119 399.834 24.1854 400.76 24.1854 401.902C24.1854 403.043 25.1119 403.969 26.2549 403.969Z" fill="#2C7BE5"/>
<path d="M50.0794 436.736C50.0794 436.736 42.0973 424.165 30.8859 423.862L50.0794 436.736Z" stroke="#2C7BE5" stroke-miterlimit="10"/>
<path d="M31.0836 426.049C32.2265 426.049 33.1531 425.123 33.1531 423.982C33.1531 422.84 32.2265 421.914 31.0836 421.914C29.9407 421.914 29.0142 422.84 29.0142 423.982C29.0142 425.123 29.9407 426.049 31.0836 426.049Z" fill="#2C7BE5"/>
<path d="M63.5516 421.914C64.6945 421.914 65.6211 420.989 65.6211 419.847C65.6211 418.705 64.6945 417.78 63.5516 417.78C62.4087 417.78 61.4822 418.705 61.4822 419.847C61.4822 420.989 62.4087 421.914 63.5516 421.914Z" fill="#2C7BE5"/>
<path d="M94.2207 467.897C94.2207 467.897 74.9816 464.05 69.8421 458.924C64.7028 453.797 41.628 444.831 39.0583 451.237C36.4885 457.644 4.42346 479.43 26.2322 483.277C48.0409 487.123 77.544 488.403 83.957 485.836C90.37 483.269 94.2207 467.897 94.2207 467.897Z" fill="#A8A8A8"/>
<path opacity="0.2" d="M26.2338 480.891C48.0425 484.738 77.5453 486.018 83.9583 483.451C88.8403 481.497 92.2362 472.092 93.578 467.76L94.2223 467.897C94.2223 467.897 90.3714 483.277 83.9583 485.836C77.5453 488.396 48.0425 487.116 26.2338 483.277C19.942 482.163 18.1379 479.558 18.8201 476.264C19.3508 478.385 21.5491 480.066 26.2338 480.891Z" fill="black"/>
<path d="M678.33 395.678C678.33 395.678 684.682 404.008 675.396 416.503C666.11 428.997 658.454 439.606 661.555 447.421C661.555 447.421 675.563 424.151 686.964 423.825C698.365 423.5 690.875 409.665 678.33 395.678Z" fill="#2C7BE5"/>
<path opacity="0.1" d="M678.333 395.678C678.887 396.481 679.323 397.358 679.63 398.283C690.758 411.338 696.678 423.522 685.99 423.833C676.029 424.121 664.082 441.909 661.217 446.406C661.311 446.753 661.425 447.095 661.558 447.429C661.558 447.429 675.566 424.158 686.967 423.833C698.368 423.507 690.879 409.665 678.333 395.678Z" fill="black"/>
<path d="M690.143 406.249C690.143 409.172 689.817 411.55 689.385 411.55C688.953 411.55 688.627 409.18 688.627 406.249C688.627 403.319 689.036 404.735 689.438 404.735C689.84 404.735 690.143 403.334 690.143 406.249Z" fill="#FFD037"/>
<path d="M694.194 409.74C691.624 411.141 689.388 412.012 689.199 411.625C689.009 411.239 690.927 409.846 693.497 408.453C696.066 407.059 695.051 408.074 695.248 408.453C695.445 408.831 696.756 408.339 694.194 409.74Z" fill="#FFD037"/>
<path d="M644.784 395.678C644.784 395.678 638.431 404.008 647.717 416.503C657.003 428.997 664.659 439.606 661.559 447.421C661.559 447.421 647.551 424.151 636.15 423.825C624.749 423.5 632.238 409.665 644.784 395.678Z" fill="#2C7BE5"/>
<path opacity="0.1" d="M644.784 395.678C644.23 396.481 643.794 397.358 643.487 398.283C632.359 411.338 626.439 423.522 637.127 423.833C647.088 424.121 659.035 441.909 661.9 446.406C661.806 446.753 661.692 447.095 661.559 447.429C661.559 447.429 647.551 424.158 636.15 423.833C624.749 423.507 632.238 409.665 644.784 395.678Z" fill="black"/>
<path d="M632.967 406.249C632.967 409.172 633.293 411.55 633.725 411.55C634.157 411.55 634.483 409.18 634.483 406.249C634.483 403.319 634.074 404.735 633.672 404.735C633.271 404.735 632.967 403.334 632.967 406.249Z" fill="#FFD037"/>
<path d="M628.92 409.74C631.489 411.141 633.726 412.012 633.915 411.625C634.105 411.239 632.187 409.846 629.617 408.453C627.047 407.059 628.063 408.074 627.866 408.453C627.669 408.831 626.35 408.339 628.92 409.74Z" fill="#FFD037"/>
<path d="M634.995 446.329C634.995 446.329 652.756 445.784 658.108 441.975C663.459 438.166 685.397 433.645 686.754 439.703C688.111 445.761 713.445 470.077 693.394 470.236C673.344 470.395 646.805 467.116 641.461 463.867C636.117 460.618 634.995 446.329 634.995 446.329Z" fill="#A8A8A8"/>
<path opacity="0.2" d="M693.751 468.138C673.701 468.297 647.162 465.018 641.817 461.769C637.747 459.293 636.124 450.41 635.586 446.314H634.995C634.995 446.314 636.117 460.626 641.461 463.874C646.805 467.123 673.344 470.409 693.394 470.243C699.186 470.197 701.179 468.138 701.073 465.093C700.27 466.949 698.094 468.1 693.751 468.138Z" fill="black"/>
<path opacity="0.5" d="M134.821 56.5057H130.06C130.511 56.5272 130.961 56.457 131.384 56.2995C131.807 56.1419 132.194 55.9002 132.521 55.5891C132.847 55.2779 133.107 54.9038 133.285 54.4893C133.463 54.0747 133.554 53.6285 133.554 53.1776C133.554 52.7267 133.463 52.2804 133.285 51.8659C133.107 51.4514 132.847 51.0773 132.521 50.7661C132.194 50.4549 131.807 50.2133 131.384 50.0557C130.961 49.8982 130.511 49.828 130.06 49.8495H91.491C90.6349 49.8903 89.8274 50.2588 89.236 50.8784C88.6445 51.4981 88.3146 52.3214 88.3146 53.1776C88.3146 54.0338 88.6445 54.8571 89.236 55.4768C89.8274 56.0964 90.6349 56.4649 91.491 56.5057H96.2515C95.3954 56.5465 94.5879 56.9149 93.9965 57.5346C93.405 58.1543 93.0751 58.9776 93.0751 59.8338C93.0751 60.69 93.405 61.5133 93.9965 62.133C94.5879 62.7526 95.3954 63.1211 96.2515 63.1619H89.5883C88.7322 63.2027 87.9247 63.5712 87.3333 64.1908C86.7419 64.8105 86.4119 65.6338 86.4119 66.49C86.4119 67.3462 86.7419 68.1695 87.3333 68.7892C87.9247 69.4089 88.7322 69.7773 89.5883 69.8181H128.157C128.608 69.8396 129.059 69.7695 129.482 69.6119C129.905 69.4543 130.291 69.2126 130.618 68.9015C130.945 68.5903 131.205 68.2162 131.382 67.8017C131.56 67.3872 131.652 66.9409 131.652 66.49C131.652 66.0391 131.56 65.5929 131.382 65.1783C131.205 64.7638 130.945 64.3897 130.618 64.0785C130.291 63.7674 129.905 63.5257 129.482 63.3681C129.059 63.2106 128.608 63.1404 128.157 63.1619H134.821C135.677 63.1211 136.484 62.7526 137.076 62.133C137.667 61.5133 137.997 60.69 137.997 59.8338C137.997 58.9776 137.667 58.1543 137.076 57.5346C136.484 56.9149 135.677 56.5465 134.821 56.5057Z" fill="#DEE3F3"/>
</g>
<defs>
<linearGradient id="paint0_linear" x1="192.18" y1="411.746" x2="192.18" y2="98.2452" gradientUnits="userSpaceOnUse">
<stop stop-color="#808080" stop-opacity="0.25"/>
<stop offset="0.54" stop-color="#808080" stop-opacity="0.12"/>
<stop offset="1" stop-color="#808080" stop-opacity="0.1"/>
</linearGradient>
<linearGradient id="paint1_linear" x1="290.847" y1="358.862" x2="290.847" y2="358.825" gradientUnits="userSpaceOnUse">
<stop stop-color="#808080" stop-opacity="0.25"/>
<stop offset="0.54" stop-color="#808080" stop-opacity="0.12"/>
<stop offset="1" stop-color="#808080" stop-opacity="0.1"/>
</linearGradient>
<linearGradient id="paint2_linear" x1="16535.6" y1="153115" x2="16535.6" y2="68648.9" gradientUnits="userSpaceOnUse">
<stop stop-color="#808080" stop-opacity="0.25"/>
<stop offset="0.54" stop-color="#808080" stop-opacity="0.12"/>
<stop offset="1" stop-color="#808080" stop-opacity="0.1"/>
</linearGradient>
<linearGradient id="paint3_linear" x1="104804" y1="185604" x2="104804" y2="60159.7" gradientUnits="userSpaceOnUse">
<stop stop-color="#808080" stop-opacity="0.25"/>
<stop offset="0.54" stop-color="#808080" stop-opacity="0.12"/>
<stop offset="1" stop-color="#808080" stop-opacity="0.1"/>
</linearGradient>
<clipPath id="clip0">
<rect width="720" height="500.919" fill="white"/>
</clipPath>
</defs>
</svg>
