<svg width="720" height="1024" viewBox="0 0 720 1024" fill="none" xmlns="http://www.w3.org/2000/svg">
<g clip-path="url(#clip0)">
<path d="M72.1244 347.19C91.5874 347.19 107.365 331.429 107.365 311.986C107.365 292.543 91.5874 276.781 72.1244 276.781C52.6611 276.781 36.883 292.543 36.883 311.986C36.883 331.429 52.6611 347.19 72.1244 347.19Z" fill="#2C7BE5"/>
<path opacity="0.1" d="M67.821 383.652C82.6178 417.039 63.7427 455.484 41.5245 484.434C34.0881 494.142 25.8786 504.319 24.8476 516.496C23.6044 531.391 33.7015 545.083 45.6785 554.033C67.5253 570.344 97.3616 575.387 123.362 567.155C145.831 560.044 164.721 543.983 187.387 537.508C225.288 526.666 265.464 544.643 297.923 567.041C320.899 582.877 345.506 602.172 373.205 598.779C392.693 596.394 409.234 582.723 420.461 566.633C425.882 558.865 430.596 550.156 438.487 544.916C443.18 541.797 448.691 540.145 454.2 538.963C504.529 528.219 557.938 554.441 607.597 540.954C641.141 531.868 667.884 505.364 684.515 474.87C701.147 444.375 708.911 409.943 715.375 375.829C719.97 351.597 723.782 325.419 713.223 303.133C702.049 279.538 676.185 265.233 650.191 262.553C624.199 259.872 598.131 267.27 574.183 277.705C544.264 290.775 514.934 309.07 482.28 309.131C460.037 309.176 438.829 300.65 417.565 294.145C382.012 283.278 345.043 277.879 308.201 272.897C272.931 268.126 237.311 263.688 201.827 266.505C176.721 268.497 154.548 278.084 130.185 282.521C114.304 285.414 98.3471 283.278 82.7618 288.125C63.5682 294.122 43.8289 308.018 42.7677 329.902C41.7671 350.734 59.9751 365.94 67.821 383.652Z" fill="#2C7BE5"/>
<path d="M456.281 413.381C453.044 404.953 444.698 385.144 439.202 389.074C432.259 394.042 446.146 415.987 446.146 415.987C446.54 420.015 438.732 428.398 434.548 432.578C434.548 432.245 434.548 432.055 434.548 432.055C434.508 432.214 434.447 432.367 434.366 432.51L434.017 432.32C433.924 432.654 433.755 432.963 433.524 433.221C433.524 432.654 433.487 432.32 433.487 432.32C432.683 435.72 418.659 440.029 418.659 440.029C418.659 440.029 418.28 440.029 417.629 440.029C413.732 440.029 403.59 439.151 398.89 431.639C396.459 427.569 393.349 423.945 389.695 420.924C388.443 419.944 386.923 419.368 385.336 419.273C372.351 418.44 361.837 411.874 359.737 410.474L359.35 410.209L359.267 410.451C358.774 409.747 358.297 408.997 357.85 408.225L357.622 407.808C360.765 406.232 363.41 403.817 365.263 400.831C367.116 397.845 368.106 394.405 368.121 390.891C368.121 390.762 368.121 390.626 368.121 390.497C369.263 388.525 369.864 386.287 369.864 384.008V381.736L372.828 379.101C374.185 377.897 375.588 376.625 376.278 374.966C376.554 374.295 376.679 373.571 376.641 372.846C376.708 372.225 376.615 371.597 376.37 371.022C376.126 370.447 375.74 369.944 375.246 369.56C372.972 367.992 369.182 369.56 367.537 367.379C366.779 366.394 366.916 365.054 366.544 363.895C365.786 361.54 363.057 360.268 360.533 360.23C358.009 360.192 355.59 361.109 353.165 361.798C348.068 363.243 342.75 363.741 337.473 363.267C336.046 363.013 334.581 363.065 333.175 363.418C332.316 363.773 331.554 364.324 330.948 365.028C330.342 365.732 329.911 366.568 329.688 367.47C329.501 368.147 329.389 368.843 329.355 369.544C327.24 371.927 326.07 375 326.065 378.185V384.008C326.069 387.117 327.185 390.122 329.211 392.481C329.45 395.221 330.284 397.877 331.654 400.262C333.025 402.647 334.899 404.706 337.147 406.294C337.147 406.445 337.147 406.599 337.147 406.756L337.246 406.816C337.123 408.621 336.844 410.413 336.412 412.17V411.784C336.412 411.784 325.8 417.425 314.429 417.562H313.178C310.935 417.486 308.754 418.303 307.114 419.833C303.748 422.999 297.851 428.004 294.227 428.004C293.469 428.004 274.336 431.737 271.168 432.358L265.247 426.565L265.065 426.906L264.717 426.565C264.069 426.615 263.426 426.709 262.791 426.845C259.759 423.256 253.695 414.911 252.293 403.711C252.293 403.711 265.384 388.816 260.57 374.936C256.462 363.108 245.144 388.461 241.93 396.101C241.368 397.434 241.298 398.924 241.733 400.304L252.368 434.547C251.356 437.2 251.065 440.074 251.527 442.876H251.406L259.153 452.804C259.153 452.804 264.982 455.288 274.101 455.242C280.785 455.253 287.409 453.983 293.613 451.501H295.41L295.069 451.63H304.294L310.161 469.357C309.964 470.97 307.129 493.483 304.855 498.519C304.18 500.201 303.875 502.009 303.96 503.82C304.08 507.298 304.648 510.747 305.651 514.08L310.79 513.891L310.593 514.292C306.242 523.205 298.973 539.085 294.675 553.927L287.193 569.072L292.802 636.996H293.03L293.462 637.065C294.068 637.155 294.978 637.293 296.175 637.444L295.736 638.2L283.372 658.647C283.372 658.647 274.556 676.678 294.06 673.277C294.06 673.277 301.269 671.186 304.211 658.888L317.037 646.872C317.037 646.872 317.635 638.889 314.004 635.703C313.777 632.014 313.201 621.246 314.088 618.656C315.157 615.521 309.54 579.469 309.54 579.469C309.54 579.469 329.84 537.404 342.135 536.359C343.037 536.295 343.942 536.414 344.796 536.707C354.901 539.993 367.143 564.4 370.744 571.995L370.911 572.343V572.411L371.047 572.706V572.79L371.168 573.047V573.115L371.274 573.35V573.403L371.365 573.592V573.668L371.434 573.812V573.873L371.479 573.979V574.039V574.107L371.517 574.198L373.116 621.488L373.275 621.572H373.351L373.215 622.549L372.518 627.434C372.518 627.434 381.333 645.986 380.795 648.332C380.257 650.68 386.67 660.092 395.751 657.481C404.833 654.868 399.428 640.14 399.428 640.14L390.68 622.132L390.294 621.329C391.165 620.795 391.987 620.185 392.75 619.504C392.75 619.504 390.081 600.172 392.75 595.992C395.418 591.812 396.222 572.737 396.222 572.737C396.222 572.737 394.349 559.674 391.143 553.927L377.71 506.031C381.735 509.772 384.866 511.233 387.481 511.135H387.913C389.063 511.156 390.198 510.874 391.203 510.317C391.743 510.013 392.251 509.655 392.719 509.249C392.809 509.172 392.892 509.089 392.969 508.999C396.706 505.864 388.694 493.582 384.153 486.282C379.78 479.239 385.806 460.104 386.261 458.68C386.665 458.383 387.1 458.13 387.557 457.923C388.497 457.52 389.506 457.302 390.528 457.279C394.88 457.431 400.232 459.93 406.857 461.187C411.461 461.969 416.127 462.331 420.797 462.27H421.07C422.927 462.27 424.61 462.232 425.974 462.179C427.219 462.13 428.437 461.801 429.537 461.217C430.48 460.668 431.334 459.978 432.069 459.172L443.698 446.049L443.394 446.193C443.958 444.705 443.958 443.062 443.394 441.574L455.682 420.371C456.302 419.326 456.678 418.155 456.782 416.945C456.886 415.734 456.714 414.516 456.281 413.381Z" fill="url(#paint0_linear)"/>
<path d="M318.229 645.077L305.85 656.928C303.015 669.044 296.049 671.096 296.049 671.096C277.226 674.443 285.732 656.709 285.732 656.709L297.671 636.528L299.141 634.037C299.141 634.037 307.654 631.462 313.324 633.007C314.04 633.203 314.702 633.56 315.257 634.052C318.813 637.134 318.229 645.077 318.229 645.077Z" fill="#444176"/>
<path d="M394.555 655.639C385.784 658.214 379.599 648.945 380.152 646.62C380.705 644.296 372.139 626.038 372.139 626.038L372.807 621.222L373.428 616.762L387.831 617.792L389.188 620.639L397.632 638.397C397.632 638.397 403.325 653.065 394.555 655.639Z" fill="#444176"/>
<path opacity="0.1" d="M315.396 636.064C314.039 638.389 303.04 637.215 297.68 636.488L299.151 633.997C299.151 633.997 307.664 631.422 313.334 632.967C314.05 633.163 314.711 633.521 315.267 634.012C315.343 635.269 315.396 636.064 315.396 636.064Z" fill="black"/>
<path opacity="0.1" d="M389.202 620.626C381.826 625.533 373.973 621.822 372.791 621.209L373.412 616.749L387.815 617.779L389.202 620.626Z" fill="black"/>
<path d="M391.196 594.848C388.619 598.968 391.196 618.035 391.196 618.035C382.683 625.766 372.632 620.095 372.632 620.095L371.116 573.471C371.116 573.471 354.356 535.086 342.492 536.116C330.629 537.146 311.034 578.62 311.034 578.62C311.034 578.62 316.446 614.166 315.415 617.24C314.384 620.314 315.415 635.27 315.415 635.27C313.611 638.36 294.789 635.27 294.789 635.27L289.376 568.291L296.563 553.343C300.694 538.713 307.713 523.053 311.913 514.269C313.998 509.9 315.392 507.234 315.392 507.234L329.113 504.38L373.648 495.156L389.65 553.343C392.743 559.007 394.547 571.888 394.547 571.888C394.547 571.888 393.774 590.729 391.196 594.848Z" fill="#565387"/>
<g opacity="0.1">
<path opacity="0.1" d="M376.751 620.095L375.235 573.471C375.235 573.471 358.475 535.086 346.611 536.116C346.081 536.168 345.559 536.285 345.057 536.464C356.625 540.303 371.111 573.471 371.111 573.471L372.627 620.095C375.79 621.704 379.355 622.354 382.884 621.965C380.745 621.708 378.669 621.075 376.751 620.095Z" fill="black"/>
<path opacity="0.1" d="M298.884 635.293L293.471 568.314L300.688 553.343C304.819 538.713 311.838 523.053 316.038 514.269C318.122 509.9 319.517 507.235 319.517 507.235L333.238 504.38L373.892 495.936L373.672 495.126L329.114 504.38L315.394 507.235C315.394 507.235 313.999 509.9 311.914 514.269C307.7 523.053 300.695 538.744 296.564 553.343L289.347 568.284L294.76 635.262C294.76 635.262 305.039 636.951 311.133 636.58C307.031 636.358 302.942 635.928 298.884 635.293Z" fill="black"/>
</g>
<path d="M267.532 427.799C267.532 427.799 252.833 428.556 254.895 444.027L259.019 444.542L265.204 437.848L268.297 432.184V430.896L267.532 427.799Z" fill="#CED2DF"/>
<path opacity="0.1" d="M267.532 427.799C267.532 427.799 252.833 428.556 254.895 444.027L259.019 444.542L265.204 437.848L268.297 432.184V430.896L267.532 427.799Z" fill="black"/>
<path d="M431.043 433.464C431.043 433.464 443.172 439.9 440.071 447.374L436.205 448.889L431.051 446.057L430.293 439.363L430.808 434.728L431.043 433.464Z" fill="#CED2DF"/>
<path opacity="0.1" d="M431.043 433.464C431.043 433.464 443.172 439.9 440.071 447.374L436.205 448.889L431.051 446.057L430.293 439.363L430.808 434.728L431.043 433.464Z" fill="black"/>
<path d="M353.173 367H342.856C334.027 367 326.869 374.15 326.869 382.97C326.869 391.791 334.027 398.941 342.856 398.941H353.173C362.003 398.941 369.16 391.791 369.16 382.97C369.16 374.15 362.003 367 353.173 367Z" fill="#88455E"/>
<path d="M267.425 429.988L258.397 444.375L257.639 441.816L245.373 401.894C244.954 400.533 245.021 399.069 245.563 397.752C248.663 390.225 259.594 365.19 263.559 376.89C268.198 390.52 255.562 405.226 255.562 405.226C257.002 417.16 263.71 425.808 266.348 428.806C267.015 429.586 267.425 429.988 267.425 429.988Z" fill="#EC8C9C"/>
<path d="M429.112 436.167C429.112 436.167 443.295 422.771 442.757 417.365C442.757 417.365 429.347 395.73 436.056 390.861C441.362 386.984 449.42 406.521 452.543 414.828C452.956 415.934 453.122 417.118 453.029 418.295C452.936 419.472 452.586 420.615 452.005 421.643L435.055 451.623L429.112 436.167Z" fill="#EC8C9C"/>
<path d="M337.303 398.819C337.303 398.819 339.881 415.304 332.406 421.491C324.932 427.678 353.813 427.64 353.813 427.64L364.13 418.106C364.13 418.106 352.267 407.028 355.875 398.789L337.303 398.819Z" fill="#EC8C9C"/>
<path opacity="0.1" d="M336.787 417.622C336.787 417.622 347.877 425.868 358.96 416.592L377.009 453.947L375.978 499.541C375.978 499.541 338.584 518.858 323.112 507.015C307.641 495.172 320.535 488.985 320.535 488.985L316.927 453.955L320.793 431.283C320.793 431.283 327.751 420.462 328.274 420.462C328.797 420.462 336.787 417.622 336.787 417.622Z" fill="black"/>
<path d="M336.788 417.107C336.788 417.107 347.878 425.369 358.968 416.077L377.017 453.432L375.986 499.026C375.986 499.026 338.592 518.343 323.12 506.5C307.649 494.657 320.543 488.47 320.543 488.47L316.935 453.44L320.801 430.768C320.801 430.768 327.759 419.947 328.282 419.947C328.805 419.947 336.788 417.107 336.788 417.107Z" fill="#EBF1F6"/>
<path opacity="0.1" d="M336.786 413.253C336.786 413.253 326.272 419.235 314.855 418.94C313.785 418.906 312.718 419.086 311.717 419.468C310.716 419.85 309.802 420.427 309.026 421.166C305.774 424.286 300.081 429.223 296.556 429.223C295.799 429.223 273.861 433.6 273.861 433.6L268.062 427.807C268.062 427.807 259.42 444.679 255.296 443.906L262.778 453.697C262.778 453.697 276.961 459.876 295.526 452.41H306.358L312.028 469.925C312.028 469.925 309.193 493.627 306.873 498.776C304.554 503.925 307.631 513.974 307.631 513.974L328 513.217C328 513.217 329.031 503.168 330.577 501.858C332.124 500.548 325.165 456.264 325.165 456.264C325.165 456.264 320.526 431.275 337.544 422.264L336.786 413.253Z" fill="black"/>
<path opacity="0.1" d="M329.111 504.41C328.361 507.466 327.827 510.571 327.512 513.702L311.919 514.292C314.003 509.923 315.398 507.257 315.398 507.257L329.111 504.41Z" fill="black"/>
<path opacity="0.1" d="M267.43 429.988L258.402 444.376L257.644 441.816C260.956 438.53 264.837 431.661 266.384 428.799C267.02 429.586 267.43 429.988 267.43 429.988Z" fill="black"/>
<path d="M336.786 413.253C336.786 413.253 325.749 419.235 314.341 418.94C313.27 418.906 312.203 419.086 311.202 419.468C310.201 419.85 309.287 420.427 308.511 421.166C305.259 424.286 299.567 429.223 296.041 429.223C295.284 429.223 273.346 433.6 273.346 433.6L267.524 427.799C267.524 427.799 258.882 444.671 254.759 443.899L262.241 453.69C262.241 453.69 276.423 459.869 294.988 452.402H305.82L311.49 469.91C311.49 469.91 308.655 493.612 306.336 498.761C304.016 503.91 307.094 513.959 307.094 513.959L327.462 513.202C327.462 513.202 328.493 503.153 330.039 501.843C331.586 500.533 324.627 456.249 324.627 456.249C324.627 456.249 319.988 431.26 337.006 422.249L336.786 413.253Z" fill="#CED2DF"/>
<path opacity="0.1" d="M358.965 411.693C358.965 411.693 369.487 419.704 383.533 420.628C385.07 420.725 386.54 421.293 387.74 422.256C391.283 425.258 394.285 428.844 396.617 432.858C402.287 442.134 416.212 441.104 416.212 441.104C416.212 441.104 429.751 436.856 430.524 433.532C430.524 433.532 430.911 451.706 439.423 447.314L428.227 460.202C427.521 461.016 426.656 461.677 425.685 462.145C424.714 462.612 423.657 462.876 422.58 462.921C418.373 463.087 411.065 463.14 404.895 461.944C395.609 460.141 388.908 455.765 384.011 459.626C384.011 459.626 377.568 479.716 381.949 486.933C386.331 494.149 394.078 506.25 390.462 509.347C386.846 512.445 382.465 512.179 375.248 504.713C368.031 497.247 367.251 484.623 367.251 484.623L369.055 452.167C369.055 452.167 362.096 427.693 355.41 422.802L358.965 411.693Z" fill="black"/>
<path opacity="0.1" d="M440.449 446.988L429.223 459.929C428.477 460.788 427.554 461.475 426.517 461.943C425.595 462.359 424.601 462.593 423.591 462.632C419.384 462.807 412.076 462.86 405.906 461.656C397.218 459.967 390.79 456.029 385.984 458.687C385.644 458.875 385.319 459.09 385.014 459.331C385.014 459.331 378.571 479.421 382.952 486.637C387.334 493.854 395.081 505.955 391.465 509.052C390.86 509.583 390.181 510.025 389.449 510.362C386.204 511.823 382.179 510.559 376.251 504.417C369.035 496.943 368.254 484.328 368.254 484.328L370.058 451.872C370.058 451.872 363.099 427.398 356.413 422.506L359.362 411.942C361.394 413.321 371.536 419.795 384.074 420.62C385.611 420.717 387.081 421.285 388.281 422.248C391.823 425.251 394.826 428.837 397.158 432.85C402.828 442.126 416.753 441.096 416.753 441.096C420.091 440.033 423.352 438.737 426.509 437.219C428.488 436.25 430.231 435.19 431.057 434.19C431.289 433.929 431.458 433.618 431.55 433.282C431.55 433.282 431.944 451.365 440.449 446.988Z" fill="black"/>
<path d="M439.932 447.245L428.713 460.202C428.096 460.913 427.357 461.508 426.53 461.959C425.471 462.534 424.293 462.857 423.089 462.905C418.881 463.08 411.574 463.133 405.403 461.929C397.027 460.301 390.743 456.575 386.005 458.703C385.464 458.938 384.955 459.241 384.489 459.604C384.489 459.604 378.046 479.694 382.427 486.91C386.809 494.127 394.556 506.228 390.94 509.325C390.472 509.727 389.964 510.08 389.424 510.377C386.089 512.217 381.965 511.135 375.711 504.69C368.495 497.216 367.714 484.601 367.714 484.601L369.518 452.145C369.518 452.145 362.559 427.671 355.873 422.779L358.966 411.7L359.337 411.958C361.369 413.336 371.512 419.81 384.05 420.636C385.586 420.732 387.056 421.301 388.257 422.264C391.799 425.267 394.801 428.852 397.133 432.865C402.803 442.142 416.729 441.112 416.729 441.112C420.067 440.048 423.327 438.752 426.485 437.235C428.827 436.038 430.737 434.728 431.033 433.532C431.033 433.532 431.033 433.767 431.033 434.183C431.26 437.311 432.397 451.115 439.932 447.245Z" fill="#CED2DF"/>
<path opacity="0.1" d="M356.099 399.206H337.148C337.565 402.216 337.684 405.259 337.504 408.293C340.397 410.326 343.79 411.535 347.318 411.788C350.846 412.042 354.377 411.331 357.532 409.732C355.712 406.369 354.606 402.553 356.099 399.206Z" fill="black"/>
<path d="M348.651 411.435C359.046 411.435 367.473 403.017 367.473 392.633C367.473 382.249 359.046 373.83 348.651 373.83C338.256 373.83 329.829 382.249 329.829 392.633C329.829 403.017 338.256 411.435 348.651 411.435Z" fill="#EC8C9C"/>
<path opacity="0.1" d="M344.745 389.285C346.845 389.036 348.945 388.293 351.014 388.71C352.894 389.089 354.494 390.383 356.374 390.777C359.997 391.535 363.363 388.869 366.099 386.385L372.012 381.009C373.323 379.82 374.673 378.57 375.347 376.935C376.022 375.299 375.787 373.148 374.347 372.119C372.186 370.604 368.464 372.119 366.903 369.968C366.198 368.999 366.304 367.696 365.94 366.538C365.182 364.221 362.574 362.956 360.133 362.926C357.693 362.895 355.358 363.789 353.023 364.44C348.105 365.865 342.962 366.356 337.862 365.886C336.486 365.635 335.071 365.684 333.716 366.03C332.881 366.386 332.142 366.933 331.558 367.626C330.973 368.319 330.56 369.139 330.35 370.021C329.183 374.14 331.176 380.782 333.178 384.469C335.179 388.157 340.75 389.778 344.745 389.285Z" fill="black"/>
<path d="M344.745 388.77C346.845 388.521 348.945 387.778 351.014 388.195C352.894 388.574 354.494 389.869 356.374 390.262C359.997 391.02 363.363 388.354 366.099 385.87L372.012 380.494C373.323 379.305 374.673 378.055 375.347 376.42C376.022 374.784 375.787 372.634 374.347 371.604C372.186 370.089 368.464 371.604 366.903 369.453C366.198 368.484 366.304 367.181 365.94 366.023C365.182 363.706 362.574 362.441 360.133 362.411C357.693 362.38 355.358 363.274 353.023 363.925C348.105 365.35 342.962 365.841 337.862 365.372C336.486 365.12 335.071 365.169 333.716 365.515C332.881 365.871 332.142 366.418 331.558 367.111C330.973 367.804 330.56 368.624 330.35 369.506C329.183 373.626 331.176 380.267 333.178 383.954C335.179 387.642 340.75 389.225 344.745 388.77Z" fill="#88455E"/>
<path opacity="0.1" d="M311.908 470.046C311.908 470.046 316.032 470.561 318.094 473.136C320.156 475.71 323.764 476.483 323.764 476.483" fill="black"/>
<path opacity="0.1" d="M274.769 436.038C274.769 436.038 278.134 443.542 276.057 444.299C273.98 445.056 274.769 450.478 274.769 450.478" fill="black"/>
<g opacity="0.1">
<path opacity="0.1" d="M275.931 433.464C275.931 433.464 297.846 429.087 298.604 429.087C302.137 429.087 307.822 424.15 311.074 421.03C312.063 420.083 313.28 419.408 314.607 419.069H314.326C313.255 419.035 312.188 419.215 311.188 419.597C310.187 419.979 309.272 420.556 308.497 421.295C305.245 424.415 299.552 429.352 296.027 429.352C295.413 429.352 281.389 432.131 275.696 433.259L275.931 433.464Z" fill="black"/>
<path opacity="0.1" d="M336.814 414.336V413.374C331.542 416.059 325.869 417.872 320.016 418.743C325.824 418.226 331.502 416.736 336.814 414.336Z" fill="black"/>
<path opacity="0.1" d="M309.717 513.83C309.717 513.83 306.624 503.782 308.959 498.632C311.294 493.483 314.114 469.781 314.114 469.781L308.459 452.266H297.596L296.936 452.524H305.843L311.491 470.046C311.491 470.046 308.656 493.748 306.336 498.897C304.017 504.047 307.094 514.095 307.094 514.095L327.463 513.338V513.179L309.717 513.83Z" fill="black"/>
</g>
<g opacity="0.1">
<path opacity="0.1" d="M391.199 505.205C390.732 505.607 390.224 505.96 389.683 506.257C386.348 508.097 382.224 507.015 375.97 500.57C370.239 494.641 368.572 485.425 368.125 481.935L367.973 484.6C367.973 484.6 368.731 497.223 375.97 504.69C382.224 511.157 386.348 512.217 389.683 510.377C390.224 510.079 390.732 509.726 391.199 509.324C392.283 508.393 392.344 506.643 391.775 504.463C391.635 504.746 391.439 504.998 391.199 505.205Z" fill="black"/>
<path opacity="0.1" d="M436.292 447.631L428.992 456.06C428.375 456.771 427.635 457.366 426.809 457.816C425.749 458.391 424.572 458.715 423.367 458.763C419.16 458.937 411.852 458.99 405.682 457.786C397.306 456.158 391.021 452.432 386.284 454.56C385.742 454.796 385.233 455.098 384.768 455.461C384.768 455.461 380.606 468.441 381.243 477.278C381.735 469.016 384.768 459.581 384.768 459.581C385.233 459.218 385.742 458.915 386.284 458.68C391.029 456.552 397.306 460.277 405.682 461.906C411.852 463.102 419.152 463.049 423.367 462.882C424.572 462.834 425.749 462.511 426.809 461.936C427.633 461.492 428.373 460.905 428.992 460.202L440.218 447.26C439.637 447.622 438.98 447.843 438.299 447.908C437.617 447.972 436.93 447.878 436.292 447.631Z" fill="black"/>
</g>
<path d="M106.627 540.387C106.717 540.474 106.833 540.53 106.958 540.547C107.082 540.563 107.209 540.539 107.319 540.478C107.085 540.482 106.852 540.451 106.627 540.387Z" fill="url(#paint1_linear)"/>
<path d="M183.878 414.949C182.513 414.555 180.565 413.911 178.223 413.094C180.657 409.965 182.438 406.381 183.461 402.553L183.264 402.628C183.332 402.394 183.4 402.166 183.461 401.924C178.966 403.749 173.993 400.66 170.824 396.692C167.656 392.724 165.518 387.801 162.046 384.152C160.6 382.7 159.044 381.36 157.392 380.146C156.369 379.388 155.27 378.533 154.019 378.495C151.995 378.434 150.411 380.418 148.462 381.001C147.18 381.29 145.846 381.24 144.589 380.857C139.563 379.706 134.734 377.579 129.602 377.018C126.857 376.679 124.07 376.993 121.468 377.935C118.891 378.911 117.716 380.857 115.632 382.417C113.358 384.091 108.915 384.053 106.27 384.348C103.06 384.715 99.8269 384.849 96.5973 384.75C94.7414 384.589 92.8726 384.658 91.0334 384.954C87.1901 385.795 84.1047 388.846 81.2242 391.769C80.438 392.431 79.8721 393.316 79.6021 394.306C79.565 394.585 79.565 394.868 79.6021 395.147C79.573 395.91 79.7048 396.671 79.9886 397.381C80.8753 400.009 82.1284 402.5 83.7106 404.779C84.8856 406.46 86.2576 408.043 86.9246 410.034C87.241 411.013 87.4069 412.035 87.4175 413.063C87.3847 414.156 87.2706 415.244 87.0763 416.319C86.5678 419.293 85.7313 422.201 84.5825 424.99C83.8691 426.422 83.3784 427.954 83.1269 429.533C83.1052 429.856 83.1052 430.18 83.1269 430.503C82.9374 435.5 87.9861 439.097 88.9639 444.065C89.0441 444.477 89.0923 444.895 89.1079 445.314C89.0018 448.412 87.2354 451.44 84.6278 452.645C84.8552 452.735 85.0902 452.811 85.3253 452.887C85.1011 453.028 84.8681 453.154 84.6278 453.266C85.1053 453.447 85.5905 453.606 86.0834 453.735C83.1198 456.314 80.6289 459.389 78.7227 462.822C69.9522 479.133 10.5523 511.081 10.5523 511.081L11.4316 511.581L10.7191 512.043C5.57955 515.458 -6.48087 525.416 4.41974 538.009C4.41974 538.009 12.9325 524.591 18.8983 518.874C19.1636 518.616 19.4289 518.381 19.6563 518.162C19.7874 518.363 19.8753 518.59 19.9144 518.827C19.9535 519.064 19.9431 519.307 19.8837 519.54L58.9378 497.618C58.9378 497.618 72.8177 487.91 76.6911 485.721C79.4176 484.024 82.3847 482.748 85.4921 481.935L85.0373 482.124C86.4974 481.723 88.0028 481.509 89.5172 481.488C96.4305 481.594 103.92 486.653 106.384 506.682C109.689 533.504 108.157 538.342 107.096 539.001C106.965 538.991 106.836 538.969 106.71 538.933C106.742 538.962 106.778 538.987 106.816 539.009C106.672 538.999 106.53 538.973 106.391 538.933C106.468 539.003 106.561 539.052 106.661 539.076C106.762 539.1 106.868 539.098 106.967 539.069C107.039 539.091 107.115 539.098 107.189 539.088C107.263 539.079 107.335 539.055 107.399 539.016C107.574 539.026 107.748 539.026 107.922 539.016C107.922 539.264 107.905 539.516 107.869 539.773C107.816 539.773 107.558 539.917 107.869 539.933C107.786 541.447 107.794 543.09 107.869 544.809C104.435 544.999 101.001 545.203 98.0148 545.385L98.2803 543.969L98.4015 543.333C101.039 543.121 103.541 542.348 103.837 540.213C104.481 535.518 98.0301 533.011 92.5417 532.701C87.0536 532.39 54.1395 534.579 54.1395 534.579C54.1395 534.579 49.2046 540.962 64.8582 542.909C65.3231 543.151 65.8059 543.403 66.3062 543.666C72.4386 547.157 80.7543 553.586 84.7416 556.751L85.2948 557.19L83.506 558.644C93.1863 560.833 102.548 597.786 107.71 614.681C112.872 631.575 124.167 630.961 133.529 628.455C142.3 626.107 143.383 600.664 143.527 597.468V597.143L159.128 616.392L160.31 617.853C160.765 618.091 161.215 618.313 161.66 618.52C173.47 624.131 186.516 613.37 182.809 601.103C179.057 588.737 173.235 570.45 169.354 562.718C166.102 556.244 161.902 545.491 159.355 538.759C159.686 538.626 160.008 538.472 160.318 538.297C160.318 538.297 160.257 537.994 160.159 537.441L160.318 537.358C160.318 537.358 156.528 517.881 156.361 504.039C156.361 503.797 156.361 503.544 156.361 503.282C156.361 503.13 156.361 502.979 156.361 502.835C159.181 502.191 160.97 501.941 160.97 501.941L161.023 501.336L160.697 501.404L162.266 483.465C162.266 483.465 168.027 471.22 163.615 466.124C162.274 464.633 161.379 462.797 161.031 460.823C160.273 456.136 161.031 448.313 171.302 441.816C187.115 431.798 193.285 423.642 193.285 423.642C193.285 423.642 193.558 417.796 183.878 414.949ZM152.472 427.398V419.106C155.406 418.962 158.4 419.303 161.349 419.106C162.796 419.005 164.231 418.764 165.632 418.387L166.345 418.879C162.03 422.194 157.381 425.049 152.472 427.398ZM107.634 557.372C108.794 558.175 109.961 559.008 111.106 559.848C111.819 563.937 112.448 566.822 112.493 567.027C111.185 563.661 109.558 560.428 107.634 557.372Z" fill="url(#paint2_linear)"/>
<path d="M132.7 550.556L132.018 554.259L131.495 557.091L130.539 562.271L121.276 568.745C121.276 568.745 120.442 568.033 119.063 566.905C115.272 563.785 107.29 557.454 101.431 554.032C99.9248 553.071 98.2952 552.32 96.5867 551.798L132.7 550.556Z" fill="#FFBDC6"/>
<path opacity="0.1" d="M132.697 550.556L132.015 554.259C129.973 554.372 127.925 554.268 125.905 553.948L104.293 554.259C103.27 554.198 102.315 554.115 101.42 554.024C99.9144 553.064 98.2849 552.312 96.5764 551.79L132.697 550.556Z" fill="black"/>
<path d="M125.906 553.344C125.906 553.344 136.716 555.191 137.33 550.564C137.944 545.938 131.773 543.499 126.535 543.151C121.297 542.803 89.7856 545.014 89.7856 545.014C89.7856 545.014 84.2291 552.412 104.294 553.646L125.906 553.344Z" fill="#7679B4"/>
<path opacity="0.1" d="M132.7 550.556L132.018 554.259L131.495 557.091L130.539 562.271L121.276 568.745C121.276 568.745 120.442 568.033 119.063 566.905C115.272 563.785 107.29 557.454 101.431 554.032C99.9248 553.071 98.2952 552.32 96.5867 551.798L132.7 550.556Z" fill="black"/>
<path opacity="0.1" d="M132.697 550.556L132.015 554.259C129.973 554.372 127.925 554.268 125.905 553.948L104.293 554.259C103.27 554.198 102.315 554.115 101.42 554.024C99.9144 553.064 98.2849 552.312 96.5764 551.79L132.697 550.556Z" fill="black"/>
<path opacity="0.1" d="M125.906 553.344C125.906 553.344 136.716 555.191 137.33 550.564C137.944 545.938 131.773 543.499 126.535 543.151C121.297 542.803 89.7856 545.014 89.7856 545.014C89.7856 545.014 84.2291 552.412 104.294 553.646L125.906 553.344Z" fill="black"/>
<path d="M149.516 401.28H93.0192V468.206H149.516V401.28Z" fill="#A66477"/>
<path opacity="0.1" d="M149.516 401.28H93.0192V468.206H149.516V401.28Z" fill="black"/>
<path d="M26.8021 515.859C25.8697 516.094 24.6872 516.987 23.3606 518.29C17.6526 523.924 9.51121 537.138 9.51121 537.138C-0.919423 524.734 10.6255 514.928 15.5755 511.558C16.7732 510.74 17.5767 510.301 17.5767 510.301L26.8021 515.859Z" fill="#FFBDC6"/>
<path d="M132.079 422.407C132.079 422.407 134.861 441.838 144.428 446.465C153.994 451.092 132.079 459.724 132.079 459.724L102.129 448.623C102.129 448.623 119.109 443.073 115.713 426.724L132.079 422.407Z" fill="#FFBDC6"/>
<path d="M100.004 539.297L99.3222 543L98.7991 545.832L97.8438 551.012L88.5806 557.486C88.5806 557.486 87.7468 556.774 86.3671 555.646C82.5769 552.526 74.5948 546.196 68.7352 542.773C67.2293 541.812 65.5998 541.061 63.8913 540.539L100.004 539.297Z" fill="#FFBDC6"/>
<path opacity="0.1" d="M100.001 539.297L99.3192 543C97.2773 543.114 95.2293 543.01 93.2096 542.69L71.5978 543C70.5744 542.94 69.6193 542.856 68.7248 542.765C67.219 541.805 65.5895 541.053 63.8809 540.532L100.001 539.297Z" fill="black"/>
<path d="M93.1773 542.075C93.1773 542.075 103.987 543.923 104.601 539.296C105.215 534.669 99.0445 532.2 93.7911 531.897C88.538 531.595 57.0491 533.745 57.0491 533.745C57.0491 533.745 51.4927 541.143 71.5579 542.378L93.1773 542.075Z" fill="#7679B4"/>
<path opacity="0.1" d="M98.7612 545.838L97.8061 551.017L88.5428 557.492C88.5428 557.492 87.709 556.78 86.3293 555.652L98.5793 545.618L98.7612 545.838Z" fill="black"/>
<path d="M159.88 616.444C159.456 616.237 159.026 616.018 158.592 615.785L157.462 614.347L142.544 595.415V595.748C142.445 598.891 141.369 623.956 132.985 626.266C124.032 628.734 113.223 629.348 108.288 612.696C103.353 596.044 94.3932 559.65 85.1299 557.492L98.8656 546.232C98.8656 546.232 107.962 556.834 111.676 567.041C111.54 566.39 105.256 537.077 110.441 531.897H155.514C155.514 531.897 162.457 551.692 167.248 561.506C170.963 569.124 176.534 587.131 180.135 599.315C183.698 611.37 171.251 621.972 159.88 616.444Z" fill="#7679B4"/>
<path opacity="0.1" d="M158.626 537.441C151.674 541.553 121.11 539.879 111.149 539.213L108.443 539.016C108.148 539.016 108.489 538.849 108.489 538.849L108.769 536.048L116.175 517.238L155.851 494.278C155.047 496.693 154.775 500.396 154.843 504.645C155.04 518.26 158.626 537.441 158.626 537.441Z" fill="black"/>
<path d="M158.621 536.525C151.67 540.637 121.106 538.963 111.145 538.297L108.439 538.1H107.992L108.485 537.971L110.925 537.328L116.171 516.352L155.847 493.377C155.043 495.793 154.77 499.495 154.839 503.744C155.036 517.336 158.621 536.525 158.621 536.525Z" fill="#F2F1F2"/>
<path opacity="0.1" d="M154.849 503.713C146.784 505.568 129.03 511.028 122.208 524.159C117.66 532.928 113.87 536.691 111.163 538.266L108.457 538.07L108.503 537.903L110.943 537.259L116.189 516.283L155.865 493.309C155.046 495.792 154.781 499.465 154.849 503.713Z" fill="black"/>
<path opacity="0.1" d="M17.532 510.309L26.7952 515.859C25.8629 516.094 24.6803 516.988 23.3537 518.29C22.5957 516.018 17.7291 512.899 15.5308 511.566C16.7285 510.748 17.532 510.309 17.532 510.309Z" fill="black"/>
<path opacity="0.1" d="M106.826 538.456C106.723 538.514 106.603 538.537 106.485 538.522C106.368 538.507 106.258 538.454 106.172 538.372C106.385 538.432 106.605 538.461 106.826 538.456Z" fill="black"/>
<path d="M127.752 445.231C127.752 445.231 119.414 446.155 113.547 439.991C113.547 439.991 88.8496 447.086 80.5113 463.125C72.1728 479.163 15.3654 510.619 15.3654 510.619C15.3654 510.619 25.2199 516.17 24.3178 518.949L61.6741 497.36C61.6741 497.36 74.9472 487.796 78.6541 485.638C82.3608 483.48 102.737 470.22 107.058 506.303C111.379 542.386 107.058 538.108 107.058 538.108C107.058 538.108 113.236 540.266 122.219 522.963C131.201 505.66 158.961 501.684 158.961 501.684L160.477 483.51C160.477 483.51 165.988 471.455 161.765 466.426C160.478 464.947 159.623 463.142 159.294 461.209C158.589 456.59 159.294 448.889 169.149 442.49C184.31 432.646 190.146 424.604 190.146 424.604C190.146 424.604 190.457 418.743 181.194 415.971C171.931 413.2 134.264 398.085 134.264 398.085L133.028 403.325L162.668 424.301C162.668 424.301 147.848 436.326 136.136 436.023C136.091 435.97 138.251 444.921 127.752 445.231Z" fill="#565388"/>
<path opacity="0.1" d="M133.476 430.866C132.746 428.381 132.177 425.852 131.771 423.294L115.405 427.64C116.121 430.76 115.993 434.014 115.033 437.068C118.378 437.96 121.912 437.846 125.192 436.742C128.472 435.637 131.354 433.591 133.476 430.859V430.866Z" fill="black"/>
<path d="M119.886 436.749C129.607 436.749 137.487 428.877 137.487 419.166C137.487 409.455 129.607 401.583 119.886 401.583C110.164 401.583 102.284 409.455 102.284 419.166C102.284 428.877 110.164 436.749 119.886 436.749Z" fill="#FFBDC6"/>
<path opacity="0.1" d="M129.238 379.176C134.12 379.729 138.767 381.826 143.573 382.962C144.774 383.339 146.053 383.388 147.28 383.106C149.144 382.531 150.661 380.577 152.586 380.638C153.776 380.638 154.86 381.486 155.815 382.266C157.397 383.465 158.885 384.784 160.265 386.211C163.577 389.808 165.639 394.654 168.664 398.562C171.688 402.469 176.456 405.513 180.755 403.718C177.836 415.077 168.254 423.763 157.9 424.467C153.768 424.747 149.561 423.892 145.536 425.103C144.539 425.509 143.486 425.765 142.413 425.86C140.139 425.86 138.259 423.748 136.819 421.696C133.453 416.864 130.754 411.382 126.964 406.982C125.713 405.528 124.235 404.143 122.469 403.878C120.703 403.612 119.073 404.453 117.496 405.271C114.896 406.619 112.236 408.012 110.219 410.314C108.203 412.616 106.929 416.062 107.763 419.182C108.21 420.863 109.241 422.377 109.279 424.141C109.279 426.943 106.838 428.995 106.345 431.714C106.237 432.862 106.196 434.015 106.224 435.167C106.004 438.908 103.563 441.982 101.001 444.322C100.008 445.238 98.9015 446.215 98.6134 447.631C98.4164 448.593 98.6135 449.615 98.4846 450.592C98.1131 453.023 95.6874 454.25 93.5422 454.568C91.0367 454.934 88.4786 454.632 86.1285 453.689C89.1607 452.273 90.9724 448.237 90.275 444.602C89.3199 439.597 84.2865 436.008 84.711 430.904C84.9484 429.341 85.4185 427.822 86.1058 426.398C87.2043 423.645 88.0023 420.781 88.4861 417.856C88.982 415.605 88.9326 413.269 88.342 411.041C87.6977 409.08 86.3863 407.52 85.2644 405.862C83.745 403.607 82.546 401.153 81.7016 398.569C81.3956 397.806 81.2786 396.98 81.3605 396.161C81.6049 395.196 82.1329 394.325 82.8766 393.662C85.6358 390.777 88.5922 387.771 92.2611 386.938C94.0141 386.646 95.797 386.577 97.5673 386.733C100.658 386.832 103.752 386.7 106.823 386.34C109.355 386.044 113.645 386.082 115.783 384.431C117.777 382.917 118.906 380.986 121.37 380.017C123.884 379.097 126.586 378.808 129.238 379.176Z" fill="black"/>
<path opacity="0.1" d="M139.022 560.733C139.022 560.733 149.21 580.778 146.125 586.949L139.022 560.733Z" fill="black"/>
<path opacity="0.1" d="M157.497 614.346L142.579 595.415V595.748C142.579 595.748 141.715 589.63 144.557 591.689C150.781 596.187 160.741 603.563 160.954 604.835C161.166 606.107 158.937 611.211 157.497 614.346Z" fill="black"/>
<g opacity="0.1">
<path opacity="0.1" d="M136.385 435.97C136.385 435.97 137.644 441.18 133.573 443.785C139.842 442.709 140.115 437.84 139.925 435.72C138.755 435.909 137.57 435.993 136.385 435.97Z" fill="black"/>
<path opacity="0.1" d="M19.0791 509.385C19.0791 509.385 75.8866 477.929 84.2251 461.891C90.2059 450.38 104.616 443.482 112.273 440.498C106.686 442.369 87.8863 449.54 80.8215 463.125C72.483 479.164 15.6756 510.62 15.6756 510.62L19.0791 509.385Z" fill="black"/>
<path opacity="0.1" d="M147.434 433.524C157.099 430.495 166.34 423.021 166.34 423.021L136.7 402.045L137.375 399.168L134.54 398.032L133.304 403.272L162.944 424.248C158.187 427.983 152.976 431.1 147.434 433.524Z" fill="black"/>
<path opacity="0.1" d="M147.625 504.599C151.412 503.308 155.299 502.328 159.246 501.669L159.299 501.071C155.322 501.943 151.419 503.123 147.625 504.599Z" fill="black"/>
<path opacity="0.1" d="M111.703 536.911H111.43C111.327 536.969 111.208 536.992 111.091 536.977C110.973 536.962 110.864 536.909 110.778 536.828C110.99 536.887 111.21 536.915 111.43 536.911C112.446 536.321 113.97 531.716 110.778 505.061C107.367 476.604 93.9801 478.838 86.6499 482.109C94.1393 480.049 104.449 481.829 107.382 506.296C110.574 532.951 109.05 537.563 108.034 538.146C109.351 538.097 110.625 537.668 111.703 536.911Z" fill="black"/>
<path opacity="0.1" d="M108.036 538.154C107.815 538.158 107.595 538.13 107.382 538.07C107.467 538.152 107.577 538.205 107.695 538.22C107.813 538.235 107.932 538.212 108.036 538.154Z" fill="black"/>
</g>
<path d="M129.238 378.578C134.12 379.131 138.767 381.229 143.573 382.364C144.774 382.741 146.053 382.79 147.28 382.508C149.144 381.933 150.661 379.979 152.586 380.04C153.776 380.04 154.86 380.888 155.815 381.668C157.397 382.867 158.885 384.186 160.265 385.613C163.577 389.21 165.639 394.056 168.664 397.964C171.688 401.871 176.456 404.915 180.755 403.121C177.836 414.479 168.254 423.165 157.9 423.869C153.768 424.149 149.561 423.294 145.536 424.505C144.539 424.911 143.486 425.167 142.413 425.263C140.139 425.263 138.259 423.15 136.819 421.097C133.453 416.266 130.754 410.784 126.964 406.384C125.713 404.93 124.235 403.545 122.469 403.28C120.703 403.015 119.073 403.855 117.496 404.673C114.896 406.021 112.236 407.414 110.219 409.716C108.203 412.018 106.929 415.464 107.763 418.584C108.21 420.265 109.241 421.779 109.279 423.544C109.279 426.345 106.838 428.397 106.345 431.116C106.237 432.264 106.196 433.417 106.224 434.569C106.004 438.31 103.563 441.384 101.001 443.724C100.008 444.64 98.9015 445.617 98.6134 447.033C98.4164 447.995 98.6135 449.017 98.4846 449.994C98.1131 452.425 95.6874 453.652 93.5422 453.97C91.0367 454.337 88.4786 454.034 86.1285 453.091C89.1607 451.675 90.9724 447.639 90.275 444.004C89.3199 438.999 84.2865 435.41 84.711 430.306C84.9484 428.743 85.4185 427.224 86.1058 425.8C87.2043 423.047 88.0023 420.183 88.4861 417.258C88.982 415.007 88.9326 412.671 88.342 410.443C87.6977 408.482 86.3863 406.922 85.2644 405.264C83.745 403.009 82.546 400.555 81.7016 397.971C81.3956 397.208 81.2786 396.382 81.3605 395.563C81.6049 394.598 82.1329 393.728 82.8766 393.064C85.6358 390.179 88.5922 387.173 92.2611 386.34C94.0141 386.048 95.797 385.98 97.5673 386.136C100.658 386.234 103.752 386.102 106.823 385.742C109.355 385.446 113.645 385.484 115.783 383.833C117.777 382.319 118.906 380.388 121.37 379.419C123.884 378.499 126.586 378.211 129.238 378.578Z" fill="#A66477"/>
<path d="M631.839 339.11C631.839 339.012 631.839 338.921 631.839 338.83C631.839 338.739 631.839 338.633 631.794 338.542H631.672C631.672 338.338 631.672 338.133 631.672 337.914C631.369 330.894 621.651 315.954 617.755 320.315C614.344 324.147 619.491 333.84 622.114 338.201L622.348 338.595L622.22 338.512C622.22 338.512 611.372 370.831 610.091 372.088C608.81 373.345 599.88 398.759 588.108 401.621C585.781 402.174 583.848 402.673 582.226 403.135L582.354 402.704C583.112 400.228 584.045 397.888 584.424 395.131C584.803 392.375 584.424 389.035 583.029 387.695C582.347 387.029 581.513 386.938 580.952 385.878C580.588 384.948 580.393 383.961 580.376 382.962L579.375 370.71L580.073 370.498C584.287 369.15 588.373 365.954 588.851 361.653C588.704 361.709 588.555 361.757 588.404 361.797C588.459 361.547 588.502 361.294 588.532 361.04C584.992 362.433 581.71 358.768 578.299 357.125C572.682 354.376 566.261 356.966 560.462 357.594C553.89 358.314 547.651 355.588 540.935 356.08C537.281 356.36 533.218 358.836 533.415 362.433C533.529 364.41 534.931 366.083 535.507 367.976C536.963 372.558 533.726 377.154 530.891 381.062C529.026 383.629 527.237 386.756 526.919 389.77C520.392 382.955 513.335 375.079 512.516 372.118L493.633 339.799C493.633 339.799 493.186 340.276 492.466 340.981C492.352 340.632 492.216 340.223 492.064 339.814C489.654 333.067 482.831 316.718 474.182 319.717C465.533 322.716 477.768 339.474 483.089 346.153L483.847 347.076C483.401 347.186 482.933 347.165 482.498 347.016L503.556 383.099C503.556 383.099 507.384 390.005 510.894 391.883C510.894 391.883 537.054 424.831 537.372 431.419C537.691 438.007 549.137 455.582 549.137 455.582C549.137 455.582 552.965 484.138 546.264 489.159H546.347H546.401H546.484H546.56H546.711H546.81H546.908H547.037H547.143H547.295H547.371C547.053 489.469 546.726 489.81 546.393 490.181C541.428 495.679 535.083 507.462 543.755 527.498C556.513 557.031 558.431 568.602 558.431 568.602C558.431 568.602 534.173 569.859 529.398 570.798C525.168 571.631 508.726 572.214 504.966 572.312C503.624 570.752 499.66 567.299 494.308 572.312C487.607 578.59 482.824 599.574 482.824 599.574C482.824 599.574 480.269 616.521 488.888 612.121C488.888 612.121 499.099 597.997 501.964 597.369C503.389 597.059 504.898 594.963 506.05 592.94L506.111 592.977C506.179 592.977 506.459 592.826 506.914 592.643C509.037 591.803 514.881 589.781 519.49 590.788C522.015 591.342 532.839 591.469 544.187 591.44C541.625 597.573 537.031 613.401 537.031 613.401C537.031 613.401 535.113 628.158 541.481 627.554C546.029 627.106 553.003 615.498 556.642 608.872C559.28 606.942 566.837 600.019 572.424 600.542L610.068 586.11C610.068 586.11 618.998 581.089 614.215 564.46C610.424 551.238 599.638 524.174 595.378 513.625L595.249 513.353C594.218 510.801 593.596 509.287 593.596 509.287C591.846 504.471 590.698 499.458 590.177 494.361C590.14 493.96 590.109 493.551 590.079 493.15C590.606 492.928 591.103 492.641 591.557 492.294C591.557 492.294 588.047 456.84 591.557 453.068L591.618 453V452.955L591.678 452.879L591.815 452.705L591.981 452.493C592.171 452.243 592.398 451.932 592.656 451.554C594.665 448.616 598.41 441.907 597.333 433.986C597.288 433.642 597.232 433.297 597.166 432.948C596.754 430.8 596.018 428.727 594.983 426.799C594.832 425.997 594.738 425.185 594.703 424.369C594.703 423.907 594.703 423.399 594.703 422.854V422.763C594.703 422.617 594.703 422.471 594.703 422.324V422.218C594.703 421.862 594.763 421.461 594.817 421.128V420.991C594.817 420.855 594.839 420.716 594.885 420.575V420.401C594.885 420.264 594.945 420.128 594.976 419.992V419.848C595.021 419.666 595.067 419.484 595.127 419.303V419.212C595.173 419.06 595.223 418.911 595.279 418.765L595.347 418.591L595.499 418.227L595.574 418.046C595.635 417.909 595.703 417.773 595.772 417.637L595.825 417.523C595.916 417.356 596.012 417.192 596.113 417.031L596.196 416.902L596.446 416.546L596.568 416.387L596.833 416.069L596.954 415.933C597.091 415.789 597.227 415.645 597.379 415.509C601.525 411.723 620.029 383.818 620.029 383.818C620.029 383.818 624.494 377.541 624.494 373.466C624.744 373.376 632.635 347.099 631.839 339.11ZM582.165 573.668C581.71 569.366 581.255 564.035 580.838 558.523L588.055 569.76C588.055 569.76 587.373 573.183 582.165 573.668Z" fill="url(#paint3_linear)"/>
<path d="M506.925 571.289C506.925 571.289 502.605 564.474 496.116 570.675C489.627 576.877 485.003 597.505 485.003 597.505C485.003 597.505 482.532 614.164 490.87 609.84C490.87 609.84 500.725 595.96 503.529 595.347C506.334 594.733 509.397 587.017 509.397 587.017L506.925 571.289Z" fill="#493545"/>
<path d="M553.233 587.942C553.233 587.942 547.366 585.163 545.516 587.329C543.666 589.494 537.488 611.076 537.488 611.076C537.488 611.076 535.639 625.267 541.809 624.646C547.98 624.025 558.789 601.807 558.789 601.807L553.233 587.942Z" fill="#493545"/>
<path opacity="0.05" d="M553.233 587.942C553.233 587.942 547.366 585.163 545.516 587.329C543.666 589.494 537.488 611.076 537.488 611.076C537.488 611.076 535.639 625.267 541.809 624.646C547.98 624.025 558.789 601.807 558.789 601.807L553.233 587.942Z" fill="black"/>
<path d="M573.602 545.998L586.876 566.663C586.876 566.663 585.951 571.29 577.923 570.366L550.444 587.639C550.444 587.639 548.056 608.668 555.69 606.76C556.926 606.449 565.544 597.506 571.745 598.127L608.184 583.936C608.184 583.936 616.826 578.999 612.194 562.658C607.563 546.316 592.25 508.423 592.25 508.423L568.046 521.948L573.602 545.998Z" fill="#3E3D77"/>
<path opacity="0.05" d="M573.602 545.998L586.876 566.663C586.876 566.663 585.951 571.29 577.923 570.366L550.444 587.639C550.444 587.639 548.056 608.668 555.69 606.76C556.926 606.449 565.544 597.506 571.745 598.127L608.184 583.936C608.184 583.936 616.826 578.999 612.194 562.658C607.563 546.316 592.25 508.423 592.25 508.423L568.046 521.948L573.602 545.998Z" fill="black"/>
<path d="M581.948 576.53C583.798 588.252 573.307 589.176 573.307 589.176C573.307 589.176 526.066 590.1 520.509 588.866C514.953 587.631 507.539 591.024 507.539 591.024C497.965 585.163 505.69 570.669 505.69 570.669C505.69 570.669 525.452 570.056 530.083 569.155C534.715 568.254 558.176 566.974 558.176 566.974C558.176 566.974 556.326 555.562 543.971 526.575C535.579 506.886 541.696 495.3 546.525 489.901C547.757 488.468 549.184 487.214 550.763 486.175L588.74 488.023C588.699 489.936 588.77 491.85 588.953 493.755C589.602 500.296 591.304 506.688 593.994 512.687C591.833 512.687 577.938 525.643 577.938 525.643C577.938 525.643 580.091 564.815 581.948 576.53Z" fill="#3E3D77"/>
<path opacity="0.1" d="M508.461 571.903C508.461 571.903 528.223 571.29 532.855 570.389C537.486 569.488 560.947 568.23 560.947 568.23C560.947 568.23 559.098 556.819 546.742 527.831C538.35 508.143 544.468 496.557 549.296 491.158C550.528 489.725 551.955 488.471 553.534 487.432L588.722 489.144C588.722 488.78 588.722 488.386 588.722 488.046L550.744 486.198C549.165 487.237 547.739 488.491 546.507 489.924C541.701 495.33 535.561 506.909 543.952 526.597C556.338 555.562 558.173 566.974 558.173 566.974C558.173 566.974 534.674 568.208 530.08 569.132C525.486 570.056 505.686 570.646 505.686 570.646C505.686 570.646 497.969 585.147 507.536 591.031C507.536 591.031 507.824 590.895 508.294 590.698C501.934 584.163 508.461 571.903 508.461 571.903Z" fill="black"/>
<path d="M564.961 372.974H545.821V421.393H564.961V372.974Z" fill="#493545"/>
<path opacity="0.1" d="M564.961 372.974H545.821V421.393H564.961V372.974Z" fill="black"/>
<path d="M575.905 365.871C576.564 366.053 577.307 366.076 577.754 366.985C578.032 367.711 578.183 368.479 578.202 369.256L579.407 384.219C579.424 385.199 579.614 386.168 579.968 387.082C580.476 388.097 581.317 388.218 581.977 388.869C583.303 390.187 583.69 393.488 583.326 396.177C582.962 398.865 582.045 401.167 581.325 403.598C580.294 407.081 579.611 410.996 578.164 413.934C576.716 416.872 574.085 418.478 572.387 416.009C570.689 413.54 570.917 408.558 570.598 404.476C570.068 397.661 567.407 391.784 567.225 384.924C567.073 379.373 568.567 374.194 569.499 368.931C570.166 365.319 570.204 360.934 571.174 357.686C571.986 361.548 573.532 365.22 575.905 365.871Z" fill="#493545"/>
<path opacity="0.1" d="M575.905 365.871C576.564 366.053 577.307 366.076 577.754 366.985C578.032 367.711 578.183 368.479 578.202 369.256L579.407 384.219C579.424 385.199 579.614 386.168 579.968 387.082C580.476 388.097 581.317 388.218 581.977 388.869C583.303 390.187 583.69 393.488 583.326 396.177C582.962 398.865 582.045 401.167 581.325 403.598C580.294 407.081 579.611 410.996 578.164 413.934C576.716 416.872 574.085 418.478 572.387 416.009C570.689 413.54 570.917 408.558 570.598 404.476C570.068 397.661 567.407 391.784 567.225 384.924C567.073 379.373 568.567 374.194 569.499 368.931C570.166 365.319 570.204 360.934 571.174 357.686C571.986 361.548 573.532 365.22 575.905 365.871Z" fill="black"/>
<path d="M494.883 344.601L487.477 350.772C487.477 350.772 486.598 349.742 485.286 348.076C480.139 341.511 468.306 325.041 476.667 322.095C485.028 319.149 491.639 335.211 493.973 341.844C494.565 343.525 494.883 344.601 494.883 344.601Z" fill="#C77485"/>
<path d="M628.564 342.442C625.479 347.069 621.158 342.442 621.158 342.442C621.158 342.442 620.605 341.617 619.824 340.284C617.285 335.99 612.304 326.472 615.602 322.701C619.392 318.392 628.784 333.098 629.072 339.996C629.161 340.844 628.984 341.699 628.564 342.442Z" fill="#C77485"/>
<path d="M552.616 392.406C552.616 392.406 558.794 412.147 556.937 418.001C555.079 423.854 570.217 430.669 570.217 430.669H587.508C587.508 430.669 593.686 418.023 592.14 414.32C590.593 410.617 577.32 407.846 577.32 407.846C577.32 407.846 569.604 407.846 569.914 387.181L552.616 392.406Z" fill="#C77485"/>
<path opacity="0.1" d="M494.877 344.601L487.471 350.772C487.471 350.772 486.591 349.742 485.28 348.076C487.971 347.599 492.148 343.677 493.975 341.844C494.558 343.525 494.877 344.601 494.877 344.601Z" fill="black"/>
<path opacity="0.1" d="M628.565 342.442C625.48 347.069 621.159 342.442 621.159 342.442C621.159 342.442 620.605 341.617 619.825 340.284L619.923 339.973C621.924 341.405 628.148 340.186 629.073 339.973C629.167 340.829 628.989 341.693 628.565 342.442Z" fill="black"/>
<path opacity="0.1" d="M588.933 493.748C579.382 498.102 548.347 490.348 546.483 489.886C547.715 488.453 549.141 487.199 550.72 486.16L588.698 488.008C588.664 489.924 588.743 491.841 588.933 493.748Z" fill="black"/>
<path d="M556.634 409.368C556.634 409.368 549.228 411.836 538.729 402.272C538.729 402.272 515.23 379.139 513.713 373.588L495.521 341.783C495.521 341.783 487.804 350.113 484.711 348.879L505.087 384.348C505.087 384.348 508.794 391.163 512.19 392.981C512.19 392.981 537.508 425.369 537.811 431.843C538.115 438.317 549.22 455.658 549.22 455.658C549.22 455.658 552.927 483.722 546.438 488.659C546.438 488.659 582.559 497.913 590.275 491.741C590.275 491.741 586.879 456.908 590.275 453.19C590.275 453.19 600.774 440.854 593.672 427.284C593.672 427.284 592.155 419.886 596.143 416.183C600.13 412.48 618.065 385.03 618.065 385.03C618.065 385.03 622.386 378.858 622.386 374.853C622.386 374.853 630.414 347.713 629.208 340.617C629.208 340.617 622.105 342.132 619.945 340.617C619.945 340.617 609.446 372.422 608.211 373.618C606.975 374.815 598.356 399.834 586.91 402.613C575.463 405.392 573.636 406.619 573.636 406.619C573.636 406.619 595.862 420.499 585.06 426.663C574.258 432.827 556.634 409.368 556.634 409.368Z" fill="#FFAAC4"/>
<path opacity="0.1" d="M570.664 397.153C570.297 394.248 570.147 391.319 570.216 388.392L552.926 393.632C553.381 394.783 553.743 395.968 554.01 397.176C555.988 398.047 558.656 400.107 560.953 400.107C564.428 400.22 567.842 399.182 570.664 397.153Z" fill="black"/>
<path d="M560.635 399.19C569.502 399.19 576.69 392.01 576.69 383.152C576.69 374.294 569.502 367.113 560.635 367.113C551.768 367.113 544.579 374.294 544.579 383.152C544.579 392.01 551.768 399.19 560.635 399.19Z" fill="#C77485"/>
<path opacity="0.1" d="M541.54 358.443C538.007 358.715 534.065 361.154 534.263 364.69C534.369 366.636 535.703 368.279 536.287 370.142C537.689 374.648 534.566 379.168 531.822 383.015C529.078 386.862 526.515 391.958 528.865 396.032C529.535 397.013 530.259 397.956 531.033 398.857C533.937 402.772 533.899 408.057 535.187 412.76C536.833 418.776 540.723 423.934 546.058 427.173C551.393 430.412 557.768 431.487 563.871 430.177C561.574 427.247 560.428 423.579 560.65 419.863C560.824 417.167 561.696 414.35 560.65 411.859C559.301 408.656 555.344 407.391 553.304 404.589C551.265 401.787 551.402 397.903 552.387 394.563C553.373 391.224 555.078 388.127 555.897 384.719C556.099 383.725 556.352 382.742 556.655 381.773C558.08 377.73 562.34 375.382 566.51 374.375C570.679 373.368 575.06 373.307 579.131 371.982C583.202 370.657 587.158 367.552 587.629 363.289C584.202 364.66 581.026 361.085 577.721 359.442C572.278 356.746 566.07 359.283 560.46 359.904C554.07 360.616 548.006 357.973 541.54 358.443Z" fill="black"/>
<path d="M541.219 357.829C537.687 358.102 533.745 360.54 533.942 364.077C534.048 366.023 535.383 367.666 535.966 369.529C537.369 374.034 534.245 378.555 531.501 382.402C528.757 386.249 526.195 391.345 528.545 395.419C529.215 396.4 529.939 397.343 530.713 398.244C533.616 402.159 533.578 407.444 534.867 412.147C536.513 418.163 540.403 423.321 545.738 426.56C551.073 429.799 557.448 430.874 563.551 429.563C561.254 426.633 560.108 422.965 560.33 419.25C560.504 416.554 561.376 413.737 560.33 411.246C558.98 408.042 555.023 406.778 552.984 403.976C550.945 401.174 551.082 397.29 552.067 393.95C553.052 390.611 554.758 387.513 555.577 384.106C555.779 383.112 556.032 382.128 556.335 381.16C557.76 377.116 562.02 374.769 566.189 373.762C570.358 372.755 574.74 372.694 578.811 371.369C582.881 370.044 586.838 366.939 587.308 362.676C583.882 364.046 580.706 360.472 577.401 358.829C571.958 356.133 565.75 358.67 560.14 359.291C553.765 359.995 547.723 357.322 541.219 357.829Z" fill="#493545"/>
<path opacity="0.1" d="M576.543 418.781C576.543 418.781 582.971 424.513 584.237 427.042L576.543 418.781Z" fill="black"/>
<path opacity="0.1" d="M590.451 453.015C590.451 453.015 582.424 453.015 578.717 453.939C575.01 454.863 566.058 453.939 566.058 453.939" fill="black"/>
<g opacity="0.1">
<path opacity="0.1" d="M585.028 426.641C584.336 427.036 583.587 427.322 582.807 427.489C584.82 427.935 586.928 427.633 588.735 426.641C599.545 420.469 577.311 406.596 577.311 406.596H573.604C573.604 406.596 595.838 420.477 585.028 426.641Z" fill="black"/>
<path opacity="0.1" d="M629.244 341.155C629.244 340.958 629.199 340.769 629.169 340.595C627.899 340.858 626.616 341.052 625.325 341.178C626.628 341.321 627.943 341.313 629.244 341.155Z" fill="black"/>
<path opacity="0.1" d="M550.139 488.637C556.62 483.699 552.921 455.636 552.921 455.636C552.921 455.636 541.808 438.363 541.497 431.888C541.186 425.414 515.876 393.026 515.876 393.026C512.479 391.179 508.773 384.394 508.773 384.394C508.773 384.394 487.775 350.159 484.69 348.924L505.066 384.394C505.066 384.394 508.773 391.209 512.169 393.026C512.169 393.026 537.487 425.414 537.79 431.888C538.094 438.363 549.206 455.658 549.206 455.658C549.206 455.658 552.913 483.722 546.424 488.659C546.424 488.659 568.627 494.346 581.939 493.831C568.597 493.362 550.139 488.637 550.139 488.637Z" fill="black"/>
<path opacity="0.1" d="M556.801 409.61L556.619 409.375C556.408 409.438 556.193 409.486 555.975 409.519C556.263 409.557 556.536 409.588 556.801 409.61Z" fill="black"/>
</g>
<g opacity="0.1">
<path opacity="0.1" d="M629.179 340.557L628.989 340.594C628.663 350.068 622.083 372.323 622.083 372.323C622.083 376.329 617.762 382.5 617.762 382.5C617.762 382.5 599.858 409.951 595.84 413.654C591.822 417.357 593.369 424.755 593.369 424.755L593.407 424.831C593.285 422.339 593.589 418.477 596.143 416.115C600.153 412.412 618.066 384.962 618.066 384.962C618.066 384.962 622.387 378.79 622.387 374.784C622.387 374.83 630.414 347.69 629.179 340.557Z" fill="black"/>
<path opacity="0.1" d="M589.974 450.699C590.436 453.319 590.125 450.547 590.285 453.167C590.285 453.167 597.865 444.285 595.796 433.305C596.417 443.118 589.974 450.699 589.974 450.699Z" fill="black"/>
</g>
<path opacity="0.1" d="M356.131 762.92C535.175 762.92 680.322 748.993 680.322 731.812C680.322 714.632 535.175 700.705 356.131 700.705C177.086 700.705 31.9405 714.632 31.9405 731.812C31.9405 748.993 177.086 762.92 356.131 762.92Z" fill="#2C7BE5"/>
<path d="M230.462 700.249C230.462 700.249 219.425 662.803 232.531 635.247C238.106 623.722 239.787 610.702 237.322 598.142C236.105 592.188 234.344 586.358 232.061 580.725" stroke="#535461" stroke-width="2" stroke-miterlimit="10"/>
<path d="M240.242 563.325C240.242 567.914 231.903 581.219 231.903 581.219C231.903 581.219 223.565 567.914 223.565 563.325C223.48 562.182 223.632 561.035 224.012 559.954C224.391 558.872 224.99 557.881 225.771 557.042C226.551 556.202 227.496 555.533 228.548 555.075C229.599 554.617 230.734 554.38 231.88 554.38C233.027 554.38 234.162 554.617 235.213 555.075C236.264 555.533 237.21 556.202 237.99 557.042C238.771 557.881 239.37 558.872 239.749 559.954C240.129 561.035 240.281 562.182 240.196 563.325H240.242Z" fill="#2C7BE5"/>
<path d="M253.968 588.737C251.474 592.592 237.253 599.24 237.253 599.24C237.253 599.24 237.511 583.558 240.005 579.703C240.558 578.703 241.311 577.827 242.218 577.129C243.125 576.432 244.166 575.929 245.275 575.651C246.385 575.373 247.541 575.326 248.669 575.513C249.798 575.7 250.876 576.117 251.837 576.739C252.797 577.36 253.619 578.172 254.252 579.125C254.885 580.077 255.314 581.15 255.514 582.275C255.714 583.401 255.68 584.555 255.414 585.667C255.148 586.779 254.656 587.824 253.968 588.737Z" fill="#2C7BE5"/>
<path d="M253.364 632.18C249.263 634.248 233.655 632.816 233.655 632.816C233.655 632.816 241.804 619.406 245.904 617.338C246.888 616.749 247.982 616.368 249.119 616.22C250.256 616.072 251.411 616.16 252.513 616.478C253.615 616.796 254.639 617.338 255.521 618.069C256.404 618.801 257.126 619.706 257.642 620.729C258.158 621.751 258.458 622.87 258.522 624.013C258.586 625.157 258.414 626.302 258.015 627.376C257.616 628.45 257 629.43 256.205 630.255C255.41 631.081 254.453 631.733 253.394 632.173L253.364 632.18Z" fill="#2C7BE5"/>
<path d="M245.511 664.937C241.819 667.664 226.158 668.898 226.158 668.898C226.158 668.898 231.919 654.306 235.618 651.572C237.399 650.491 239.519 650.116 241.563 650.518C243.607 650.921 245.425 652.074 246.661 653.749C247.897 655.424 248.46 657.501 248.24 659.57C248.02 661.639 247.033 663.551 245.473 664.93L245.511 664.937Z" fill="#2C7BE5"/>
<path d="M219.771 600.133C223.068 603.329 238.418 606.646 238.418 606.646C238.418 606.646 234.628 591.417 231.361 588.214C230.599 587.36 229.668 586.673 228.628 586.194C227.588 585.715 226.461 585.456 225.316 585.431C224.171 585.407 223.033 585.619 221.974 586.053C220.914 586.487 219.956 587.135 219.158 587.955C218.36 588.776 217.739 589.752 217.336 590.822C216.932 591.893 216.753 593.035 216.811 594.178C216.868 595.32 217.161 596.439 217.67 597.463C218.179 598.488 218.894 599.397 219.771 600.133Z" fill="#2C7BE5"/>
<path d="M211.075 638.572C215.176 640.639 230.784 639.208 230.784 639.208C230.784 639.208 222.665 625.797 218.565 623.768C216.62 622.961 214.442 622.919 212.468 623.651C210.494 624.382 208.87 625.832 207.922 627.71C206.974 629.588 206.772 631.754 207.357 633.775C207.942 635.795 209.27 637.52 211.075 638.602V638.572Z" fill="#2C7BE5"/>
<path d="M207.742 677.086C211.434 679.812 227.095 681.046 227.095 681.046C227.095 681.046 221.334 666.454 217.635 663.721C216.768 662.954 215.75 662.377 214.648 662.025C213.545 661.673 212.381 661.555 211.23 661.677C210.079 661.799 208.966 662.159 207.962 662.734C206.958 663.309 206.085 664.087 205.398 665.018C204.711 665.949 204.226 667.013 203.973 668.141C203.72 669.269 203.706 670.438 203.93 671.573C204.154 672.707 204.612 673.782 205.275 674.73C205.938 675.678 206.791 676.478 207.78 677.078L207.742 677.086Z" fill="#2C7BE5"/>
<path opacity="0.1" d="M240.242 563.325C240.242 567.914 231.903 581.219 231.903 581.219C231.903 581.219 223.565 567.914 223.565 563.325C223.48 562.182 223.632 561.035 224.012 559.954C224.391 558.872 224.99 557.881 225.771 557.042C226.551 556.202 227.496 555.533 228.548 555.075C229.599 554.617 230.734 554.38 231.88 554.38C233.027 554.38 234.162 554.617 235.213 555.075C236.264 555.533 237.21 556.202 237.99 557.042C238.771 557.881 239.37 558.872 239.749 559.954C240.129 561.035 240.281 562.182 240.196 563.325H240.242Z" fill="#2C7BE5"/>
<path opacity="0.1" d="M253.968 588.737C251.474 592.592 237.253 599.24 237.253 599.24C237.253 599.24 237.511 583.558 240.005 579.703C240.558 578.703 241.311 577.827 242.218 577.129C243.125 576.432 244.166 575.929 245.275 575.651C246.385 575.373 247.541 575.326 248.669 575.513C249.798 575.7 250.876 576.117 251.837 576.739C252.797 577.36 253.619 578.172 254.252 579.125C254.885 580.077 255.314 581.15 255.514 582.275C255.714 583.401 255.68 584.555 255.414 585.667C255.148 586.779 254.656 587.824 253.968 588.737Z" fill="#2C7BE5"/>
<path opacity="0.1" d="M253.364 632.18C249.263 634.248 233.655 632.816 233.655 632.816C233.655 632.816 241.804 619.406 245.904 617.338C246.888 616.749 247.982 616.368 249.119 616.22C250.256 616.072 251.411 616.16 252.513 616.478C253.615 616.796 254.639 617.338 255.521 618.069C256.404 618.801 257.126 619.706 257.642 620.729C258.158 621.751 258.458 622.87 258.522 624.013C258.586 625.157 258.414 626.302 258.015 627.376C257.616 628.45 257 629.43 256.205 630.255C255.41 631.081 254.453 631.733 253.394 632.173L253.364 632.18Z" fill="#2C7BE5"/>
<path opacity="0.1" d="M245.511 664.937C241.819 667.664 226.158 668.898 226.158 668.898C226.158 668.898 231.919 654.306 235.618 651.572C237.399 650.491 239.519 650.116 241.563 650.518C243.607 650.921 245.425 652.074 246.661 653.749C247.897 655.424 248.46 657.501 248.24 659.57C248.02 661.639 247.033 663.551 245.473 664.93L245.511 664.937Z" fill="#2C7BE5"/>
<path opacity="0.1" d="M219.771 600.133C223.068 603.329 238.418 606.646 238.418 606.646C238.418 606.646 234.628 591.417 231.361 588.214C230.599 587.36 229.668 586.673 228.628 586.194C227.588 585.715 226.461 585.456 225.316 585.431C224.171 585.407 223.033 585.619 221.974 586.053C220.914 586.487 219.956 587.135 219.158 587.955C218.36 588.776 217.739 589.752 217.336 590.822C216.932 591.893 216.753 593.035 216.811 594.178C216.868 595.32 217.161 596.439 217.67 597.463C218.179 598.488 218.894 599.397 219.771 600.133Z" fill="#2C7BE5"/>
<path opacity="0.1" d="M211.075 638.572C215.176 640.639 230.784 639.208 230.784 639.208C230.784 639.208 222.665 625.797 218.565 623.768C216.62 622.961 214.442 622.919 212.468 623.651C210.494 624.382 208.87 625.832 207.922 627.71C206.974 629.588 206.772 631.754 207.357 633.775C207.942 635.795 209.27 637.52 211.075 638.602V638.572Z" fill="#2C7BE5"/>
<path opacity="0.1" d="M207.742 677.086C211.434 679.812 227.095 681.046 227.095 681.046C227.095 681.046 221.334 666.454 217.635 663.721C216.768 662.954 215.75 662.377 214.648 662.025C213.545 661.673 212.381 661.555 211.23 661.677C210.079 661.799 208.966 662.159 207.962 662.734C206.958 663.309 206.085 664.087 205.398 665.018C204.711 665.949 204.226 667.013 203.973 668.141C203.72 669.269 203.706 670.438 203.93 671.573C204.154 672.707 204.612 673.782 205.275 674.73C205.938 675.678 206.791 676.478 207.78 677.078L207.742 677.086Z" fill="#2C7BE5"/>
<path d="M453.818 700.787C453.818 700.787 442.781 663.341 455.888 635.785C461.462 624.26 463.143 611.24 460.679 598.68C459.461 592.726 457.7 586.896 455.418 581.263" stroke="#535461" stroke-width="2" stroke-miterlimit="10"/>
<path d="M463.575 563.853C463.575 568.442 455.236 581.746 455.236 581.746C455.236 581.746 446.898 568.442 446.898 563.853C447.053 561.756 447.997 559.795 449.539 558.364C451.081 556.933 453.108 556.138 455.213 556.138C457.318 556.138 459.345 556.933 460.888 558.364C462.43 559.795 463.374 561.756 463.529 563.853H463.575Z" fill="#2C7BE5"/>
<path d="M477.324 589.267C474.83 593.122 460.609 599.77 460.609 599.77C460.609 599.77 460.867 584.088 463.361 580.233C463.914 579.233 464.668 578.357 465.574 577.659C466.481 576.962 467.522 576.459 468.632 576.181C469.742 575.903 470.897 575.856 472.026 576.043C473.155 576.23 474.233 576.647 475.193 577.269C476.154 577.89 476.976 578.702 477.608 579.655C478.241 580.607 478.671 581.68 478.871 582.805C479.07 583.931 479.036 585.085 478.77 586.197C478.504 587.309 478.012 588.354 477.324 589.267Z" fill="#2C7BE5"/>
<path d="M476.75 632.71C472.649 634.777 457.041 633.346 457.041 633.346C457.041 633.346 465.19 619.935 469.291 617.868C470.275 617.273 471.372 616.887 472.513 616.736C473.653 616.585 474.813 616.672 475.918 616.99C477.024 617.308 478.051 617.852 478.936 618.586C479.821 619.32 480.545 620.229 481.061 621.256C481.577 622.284 481.875 623.406 481.936 624.554C481.996 625.702 481.819 626.849 481.414 627.925C481.009 629.001 480.386 629.981 479.583 630.805C478.78 631.628 477.816 632.277 476.75 632.71Z" fill="#2C7BE5"/>
<path d="M468.855 665.467C465.163 668.194 449.502 669.428 449.502 669.428C449.502 669.428 455.263 654.836 458.963 652.102C460.743 651.021 462.864 650.646 464.907 651.048C466.951 651.451 468.77 652.604 470.005 654.279C471.241 655.954 471.805 658.031 471.585 660.1C471.365 662.169 470.377 664.081 468.817 665.46L468.855 665.467Z" fill="#2C7BE5"/>
<path d="M443.137 600.663C446.434 603.859 461.784 607.176 461.784 607.176C461.784 607.176 457.994 591.947 454.727 588.744C453.965 587.891 453.034 587.203 451.994 586.724C450.954 586.245 449.827 585.986 448.682 585.961C447.537 585.937 446.399 586.149 445.34 586.583C444.28 587.017 443.322 587.665 442.524 588.485C441.726 589.306 441.105 590.282 440.702 591.352C440.298 592.423 440.119 593.565 440.177 594.708C440.234 595.85 440.527 596.969 441.036 597.993C441.545 599.018 442.26 599.927 443.137 600.663Z" fill="#2C7BE5"/>
<path d="M434.419 639.103C438.52 641.17 454.128 639.739 454.128 639.739C454.128 639.739 445.98 626.328 441.879 624.261C439.934 623.454 437.756 623.412 435.782 624.144C433.808 624.875 432.184 626.325 431.236 628.203C430.288 630.081 430.086 632.247 430.671 634.268C431.256 636.288 432.584 638.012 434.389 639.095L434.419 639.103Z" fill="#2C7BE5"/>
<path d="M431.094 677.614C434.786 680.34 450.447 681.575 450.447 681.575C450.447 681.575 444.686 666.982 440.986 664.249C439.206 663.168 437.086 662.792 435.042 663.195C432.998 663.598 431.18 664.75 429.944 666.426C428.708 668.101 428.145 670.177 428.365 672.246C428.584 674.316 429.572 676.228 431.132 677.607L431.094 677.614Z" fill="#2C7BE5"/>
<path opacity="0.1" d="M463.575 563.853C463.575 568.442 455.236 581.746 455.236 581.746C455.236 581.746 446.898 568.442 446.898 563.853C447.053 561.756 447.997 559.795 449.539 558.364C451.081 556.933 453.108 556.138 455.213 556.138C457.318 556.138 459.345 556.933 460.888 558.364C462.43 559.795 463.374 561.756 463.529 563.853H463.575Z" fill="#2C7BE5"/>
<path opacity="0.1" d="M477.324 589.267C474.83 593.122 460.609 599.77 460.609 599.77C460.609 599.77 460.867 584.088 463.361 580.233C463.914 579.233 464.668 578.357 465.574 577.659C466.481 576.962 467.522 576.459 468.632 576.181C469.742 575.903 470.897 575.856 472.026 576.043C473.155 576.23 474.233 576.647 475.193 577.269C476.154 577.89 476.976 578.702 477.608 579.655C478.241 580.607 478.671 581.68 478.871 582.805C479.07 583.931 479.036 585.085 478.77 586.197C478.504 587.309 478.012 588.354 477.324 589.267Z" fill="#2C7BE5"/>
<path opacity="0.1" d="M476.75 632.71C472.649 634.777 457.041 633.346 457.041 633.346C457.041 633.346 465.19 619.935 469.291 617.868C470.275 617.273 471.372 616.887 472.513 616.736C473.653 616.585 474.813 616.672 475.918 616.99C477.024 617.308 478.051 617.852 478.936 618.586C479.821 619.32 480.545 620.229 481.061 621.256C481.577 622.284 481.875 623.406 481.936 624.554C481.996 625.702 481.819 626.849 481.414 627.925C481.009 629.001 480.386 629.981 479.583 630.805C478.78 631.628 477.816 632.277 476.75 632.71Z" fill="#2C7BE5"/>
<path opacity="0.1" d="M468.855 665.467C465.163 668.194 449.502 669.428 449.502 669.428C449.502 669.428 455.263 654.836 458.963 652.102C460.743 651.021 462.864 650.646 464.907 651.048C466.951 651.451 468.77 652.604 470.005 654.279C471.241 655.954 471.805 658.031 471.585 660.1C471.365 662.169 470.377 664.081 468.817 665.46L468.855 665.467Z" fill="#2C7BE5"/>
<path opacity="0.1" d="M443.137 600.663C446.434 603.859 461.784 607.176 461.784 607.176C461.784 607.176 457.994 591.947 454.727 588.744C453.965 587.891 453.034 587.203 451.994 586.724C450.954 586.245 449.827 585.986 448.682 585.961C447.537 585.937 446.399 586.149 445.34 586.583C444.28 587.017 443.322 587.665 442.524 588.485C441.726 589.306 441.105 590.282 440.702 591.352C440.298 592.423 440.119 593.565 440.177 594.708C440.234 595.85 440.527 596.969 441.036 597.993C441.545 599.018 442.26 599.927 443.137 600.663Z" fill="#2C7BE5"/>
<path opacity="0.1" d="M434.419 639.103C438.52 641.17 454.128 639.739 454.128 639.739C454.128 639.739 445.98 626.328 441.879 624.261C439.934 623.454 437.756 623.412 435.782 624.144C433.808 624.875 432.184 626.325 431.236 628.203C430.288 630.081 430.086 632.247 430.671 634.268C431.256 636.288 432.584 638.012 434.389 639.095L434.419 639.103Z" fill="#2C7BE5"/>
<path opacity="0.1" d="M431.094 677.614C434.786 680.34 450.447 681.575 450.447 681.575C450.447 681.575 444.686 666.982 440.986 664.249C439.206 663.168 437.086 662.792 435.042 663.195C432.998 663.598 431.18 664.75 429.944 666.426C428.708 668.101 428.145 670.177 428.365 672.246C428.584 674.316 429.572 676.228 431.132 677.607L431.094 677.614Z" fill="#2C7BE5"/>
<path opacity="0.5" d="M507.826 273.578H503.065C503.516 273.6 503.967 273.53 504.39 273.372C504.812 273.215 505.199 272.973 505.526 272.662C505.852 272.351 506.113 271.976 506.29 271.562C506.468 271.147 506.559 270.701 506.559 270.25C506.559 269.799 506.468 269.353 506.29 268.939C506.113 268.524 505.852 268.15 505.526 267.839C505.199 267.528 504.812 267.286 504.39 267.128C503.967 266.971 503.516 266.901 503.065 266.922H464.466C463.61 266.963 462.802 267.331 462.211 267.951C461.619 268.571 461.289 269.394 461.289 270.25C461.289 271.106 461.619 271.93 462.211 272.549C462.802 273.169 463.61 273.538 464.466 273.578H469.226C468.37 273.619 467.563 273.988 466.971 274.607C466.38 275.227 466.05 276.05 466.05 276.906C466.05 277.763 466.38 278.586 466.971 279.206C467.563 279.825 468.37 280.194 469.226 280.235H462.563C462.112 280.213 461.662 280.283 461.239 280.441C460.816 280.598 460.429 280.84 460.103 281.151C459.776 281.462 459.516 281.836 459.338 282.251C459.16 282.665 459.069 283.112 459.069 283.563C459.069 284.014 459.16 284.46 459.338 284.874C459.516 285.289 459.776 285.663 460.103 285.974C460.429 286.285 460.816 286.527 461.239 286.685C461.662 286.842 462.112 286.912 462.563 286.891H501.132C501.583 286.912 502.034 286.842 502.456 286.685C502.879 286.527 503.266 286.285 503.593 285.974C503.92 285.663 504.179 285.289 504.357 284.874C504.535 284.46 504.627 284.014 504.627 283.563C504.627 283.112 504.535 282.665 504.357 282.251C504.179 281.836 503.92 281.462 503.593 281.151C503.266 280.84 502.879 280.598 502.456 280.441C502.034 280.283 501.583 280.213 501.132 280.235H507.826C508.682 280.194 509.489 279.825 510.081 279.206C510.672 278.586 511.002 277.763 511.002 276.906C511.002 276.05 510.672 275.227 510.081 274.607C509.489 273.988 508.682 273.619 507.826 273.578Z" fill="#DEE3F3"/>
<path opacity="0.5" d="M284.797 292.994H281.174C281.518 293.012 281.863 292.961 282.187 292.842C282.511 292.723 282.807 292.54 283.058 292.303C283.309 292.066 283.508 291.78 283.645 291.463C283.781 291.147 283.852 290.805 283.852 290.461C283.852 290.116 283.781 289.775 283.645 289.458C283.508 289.141 283.309 288.856 283.058 288.619C282.807 288.382 282.511 288.198 282.187 288.079C281.863 287.96 281.518 287.909 281.174 287.928H251.822C251.174 287.963 250.564 288.245 250.117 288.717C249.67 289.188 249.422 289.812 249.422 290.461C249.422 291.109 249.67 291.734 250.117 292.205C250.564 292.676 251.174 292.958 251.822 292.994H255.446C255.101 292.975 254.756 293.026 254.432 293.145C254.108 293.264 253.812 293.447 253.561 293.685C253.311 293.922 253.111 294.207 252.974 294.524C252.838 294.841 252.768 295.182 252.768 295.527C252.768 295.871 252.838 296.213 252.974 296.529C253.111 296.846 253.311 297.132 253.561 297.369C253.812 297.606 254.108 297.789 254.432 297.908C254.756 298.027 255.101 298.078 255.446 298.06H250.374C250.03 298.041 249.685 298.092 249.361 298.211C249.037 298.33 248.741 298.513 248.49 298.751C248.239 298.988 248.04 299.273 247.903 299.59C247.767 299.907 247.696 300.248 247.696 300.593C247.696 300.937 247.767 301.279 247.903 301.595C248.04 301.912 248.239 302.198 248.49 302.435C248.741 302.672 249.037 302.855 249.361 302.974C249.685 303.093 250.03 303.144 250.374 303.126H279.726C280.07 303.144 280.415 303.093 280.739 302.974C281.063 302.855 281.36 302.672 281.61 302.435C281.861 302.198 282.061 301.912 282.197 301.595C282.333 301.279 282.404 300.937 282.404 300.593C282.404 300.248 282.333 299.907 282.197 299.59C282.061 299.273 281.861 298.988 281.61 298.751C281.36 298.513 281.063 298.33 280.739 298.211C280.415 298.092 280.07 298.041 279.726 298.06H284.797C285.446 298.024 286.056 297.742 286.503 297.271C286.949 296.8 287.198 296.175 287.198 295.527C287.198 294.878 286.949 294.254 286.503 293.783C286.056 293.311 285.446 293.029 284.797 292.994Z" fill="#DEE3F3"/>
<path d="M38.4302 651.787C38.4302 651.787 51.6959 677.798 40.8863 692.027C30.0766 706.255 41.8717 745.034 41.8717 745.034" stroke="#2C7BE5" stroke-miterlimit="10"/>
<path d="M42.39 643.654C42.39 648.667 38.706 652.741 38.706 652.741C38.706 652.741 35.0219 648.675 35.0219 643.654C35.0219 638.634 38.706 634.567 38.706 634.567C38.706 634.567 42.39 638.641 42.39 643.654Z" fill="#2C7BE5"/>
<path d="M45.3067 651.787C45.3067 651.787 32.041 677.798 42.8506 692.027C53.6603 706.255 41.8652 745.034 41.8652 745.034" stroke="#2C7BE5" stroke-miterlimit="10"/>
<path d="M41.3809 643.654C41.3809 648.667 45.065 652.741 45.065 652.741C45.065 652.741 48.7491 648.675 48.7491 643.654C48.7491 638.634 45.065 634.567 45.065 634.567C45.065 634.567 41.3809 638.641 41.3809 643.654Z" fill="#2C7BE5"/>
<path opacity="0.1" d="M41.3809 643.654C41.3809 648.667 45.065 652.741 45.065 652.741C45.065 652.741 48.7491 648.675 48.7491 643.654C48.7491 638.634 45.065 634.567 45.065 634.567C45.065 634.567 41.3809 638.641 41.3809 643.654Z" fill="black"/>
<path d="M50.7245 651.787C50.7245 651.787 63.9902 677.798 53.1805 692.027C42.3709 706.255 54.166 745.034 54.166 745.034" stroke="#2C7BE5" stroke-miterlimit="10"/>
<path d="M54.643 643.654C54.643 648.667 50.959 652.741 50.959 652.741C50.959 652.741 47.2749 648.675 47.2749 643.654C47.2749 638.634 50.959 634.567 50.959 634.567C50.959 634.567 54.643 638.641 54.643 643.654Z" fill="#2C7BE5"/>
<path d="M52.5746 664.491C49.0952 668.104 43.6145 668.482 43.6145 668.482C43.6145 668.482 43.7813 663 47.2607 659.395C50.7401 655.791 56.2207 655.404 56.2207 655.404C56.2207 655.404 56.0312 660.872 52.5746 664.491Z" fill="#2C7BE5"/>
<path d="M52.9261 682.44C49.4467 686.052 43.9661 686.43 43.9661 686.43C43.9661 686.43 44.1328 680.948 47.6122 677.343C51.0916 673.739 56.5723 673.353 56.5723 673.353C56.5723 673.353 56.4055 678.82 52.9261 682.44Z" fill="#2C7BE5"/>
<path d="M34.0532 692.306C37.3431 696.092 37.2293 701.575 37.2293 701.575C37.2293 701.575 31.7791 700.916 28.4892 697.13C25.1993 693.343 25.313 687.861 25.313 687.861C25.313 687.861 30.7633 688.52 34.0532 692.306Z" fill="#2C7BE5"/>
<path d="M37.0855 654.056C41.2699 656.827 42.6268 662.143 42.6268 662.143C42.6268 662.143 37.1992 662.969 33.0148 660.197C28.8305 657.426 27.4736 652.11 27.4736 652.11C27.4736 652.11 32.9239 651.269 37.0855 654.056Z" fill="#2C7BE5"/>
<path opacity="0.1" d="M37.0855 654.056C41.2699 656.827 42.6268 662.143 42.6268 662.143C42.6268 662.143 37.1992 662.969 33.0148 660.197C28.8305 657.426 27.4736 652.11 27.4736 652.11C27.4736 652.11 32.9239 651.269 37.0855 654.056Z" fill="black"/>
<path d="M57.5909 651.787C57.5909 651.787 44.3252 677.798 55.1349 692.027C65.9445 706.255 54.1494 745.034 54.1494 745.034" stroke="#2C7BE5" stroke-miterlimit="10"/>
<path d="M53.6649 643.654C53.6649 648.667 57.349 652.741 57.349 652.741C57.349 652.741 61.033 648.675 61.033 643.654C61.033 638.634 57.349 634.567 57.349 634.567C57.349 634.567 53.6649 638.641 53.6649 643.654Z" fill="#2C7BE5"/>
<path opacity="0.1" d="M53.6649 643.654C53.6649 648.667 57.349 652.741 57.349 652.741C57.349 652.741 61.033 648.675 61.033 643.654C61.033 638.634 57.349 634.567 57.349 634.567C57.349 634.567 53.6649 638.641 53.6649 643.654Z" fill="black"/>
<path d="M54.7254 664.879C51.2005 668.453 50.9352 673.966 50.9352 673.966C50.9352 673.966 56.4159 673.655 59.9407 670.081C63.4656 666.507 63.7309 660.994 63.7309 660.994C63.7309 660.994 58.2503 661.305 54.7254 664.879Z" fill="#2C7BE5"/>
<path opacity="0.1" d="M54.7254 664.879C51.2005 668.453 50.9352 673.966 50.9352 673.966C50.9352 673.966 56.4159 673.655 59.9407 670.081C63.4656 666.507 63.7309 660.994 63.7309 660.994C63.7309 660.994 58.2503 661.305 54.7254 664.879Z" fill="black"/>
<path d="M61.6327 689.723C58.1078 693.297 57.8425 698.81 57.8425 698.81C57.8425 698.81 63.3231 698.5 66.848 694.926C70.3728 691.351 70.6382 685.839 70.6382 685.839C70.6382 685.839 65.1348 686.149 61.6327 689.723Z" fill="#2C7BE5"/>
<path d="M51.4832 684.265C51.4832 684.265 59.4653 671.694 70.6767 671.391L51.4832 684.265Z" stroke="#2C7BE5" stroke-miterlimit="10"/>
<path d="M45.2505 676.669C45.2505 676.669 37.2684 664.098 26.057 663.795L45.2505 676.669Z" stroke="#2C7BE5" stroke-miterlimit="10"/>
<path d="M44.2141 694.614C44.2141 694.614 52.1962 682.044 63.4076 681.741L44.2141 694.614Z" stroke="#2C7BE5" stroke-miterlimit="10"/>
<path d="M70.2932 673.39C71.4361 673.39 72.3626 672.464 72.3626 671.323C72.3626 670.181 71.4361 669.255 70.2932 669.255C69.1502 669.255 68.2237 670.181 68.2237 671.323C68.2237 672.464 69.1502 673.39 70.2932 673.39Z" fill="#2C7BE5"/>
<path d="M26.2549 665.969C27.3978 665.969 28.3243 665.043 28.3243 663.902C28.3243 662.76 27.3978 661.834 26.2549 661.834C25.112 661.834 24.1854 662.76 24.1854 663.902C24.1854 665.043 25.112 665.969 26.2549 665.969Z" fill="#2C7BE5"/>
<path d="M50.0794 698.736C50.0794 698.736 42.0973 686.165 30.8859 685.862L50.0794 698.736Z" stroke="#2C7BE5" stroke-miterlimit="10"/>
<path d="M31.0836 688.049C32.2265 688.049 33.153 687.123 33.153 685.982C33.153 684.84 32.2265 683.914 31.0836 683.914C29.9407 683.914 29.0142 684.84 29.0142 685.982C29.0142 687.123 29.9407 688.049 31.0836 688.049Z" fill="#2C7BE5"/>
<path d="M63.5516 683.914C64.6945 683.914 65.6211 682.989 65.6211 681.847C65.6211 680.705 64.6945 679.78 63.5516 679.78C62.4087 679.78 61.4822 680.705 61.4822 681.847C61.4822 682.989 62.4087 683.914 63.5516 683.914Z" fill="#2C7BE5"/>
<path d="M94.2207 729.897C94.2207 729.897 74.9816 726.05 69.8421 720.924C64.7028 715.797 41.628 706.831 39.0582 713.238C36.4885 719.644 4.42344 741.43 26.2322 745.277C48.0409 749.123 77.544 750.403 83.957 747.836C90.37 745.269 94.2207 729.897 94.2207 729.897Z" fill="#A8A8A8"/>
<path opacity="0.2" d="M26.2338 742.891C48.0425 746.738 77.5453 748.018 83.9583 745.451C88.8403 743.497 92.2362 734.092 93.578 729.76L94.2223 729.897C94.2223 729.897 90.3714 745.277 83.9583 747.836C77.5453 750.396 48.0425 749.116 26.2338 745.276C19.942 744.163 18.1379 741.558 18.8201 738.264C19.3508 740.385 21.5491 742.066 26.2338 742.891Z" fill="black"/>
<path d="M678.33 657.678C678.33 657.678 684.682 666.008 675.396 678.503C666.11 690.997 658.454 701.606 661.555 709.421C661.555 709.421 675.563 686.151 686.964 685.825C698.365 685.5 690.875 671.665 678.33 657.678Z" fill="#2C7BE5"/>
<path opacity="0.1" d="M678.333 657.678C678.887 658.481 679.323 659.358 679.63 660.283C690.758 673.338 696.678 685.522 685.99 685.833C676.029 686.121 664.082 703.909 661.217 708.406C661.311 708.753 661.425 709.095 661.558 709.429C661.558 709.429 675.566 686.158 686.967 685.833C698.368 685.507 690.879 671.665 678.333 657.678Z" fill="black"/>
<path d="M690.143 668.249C690.143 671.172 689.817 673.55 689.385 673.55C688.953 673.55 688.627 671.18 688.627 668.249C688.627 665.319 689.036 666.735 689.438 666.735C689.84 666.735 690.143 665.334 690.143 668.249Z" fill="#FFD037"/>
<path d="M694.194 671.74C691.624 673.141 689.388 674.012 689.199 673.625C689.009 673.239 690.927 671.846 693.497 670.453C696.066 669.059 695.051 670.074 695.248 670.453C695.445 670.831 696.756 670.339 694.194 671.74Z" fill="#FFD037"/>
<path d="M644.784 657.678C644.784 657.678 638.431 666.008 647.717 678.503C657.003 690.997 664.659 701.606 661.559 709.421C661.559 709.421 647.551 686.151 636.15 685.825C624.749 685.5 632.238 671.665 644.784 657.678Z" fill="#2C7BE5"/>
<path opacity="0.1" d="M644.784 657.678C644.23 658.481 643.794 659.358 643.487 660.283C632.359 673.338 626.439 685.522 637.127 685.833C647.088 686.121 659.035 703.909 661.9 708.406C661.806 708.753 661.692 709.095 661.559 709.429C661.559 709.429 647.551 686.158 636.15 685.833C624.749 685.507 632.238 671.665 644.784 657.678Z" fill="black"/>
<path d="M632.967 668.249C632.967 671.172 633.293 673.55 633.725 673.55C634.157 673.55 634.483 671.18 634.483 668.249C634.483 665.319 634.074 666.735 633.672 666.735C633.271 666.735 632.967 665.334 632.967 668.249Z" fill="#FFD037"/>
<path d="M628.92 671.74C631.489 673.141 633.726 674.012 633.915 673.625C634.105 673.239 632.187 671.846 629.617 670.453C627.047 669.059 628.063 670.074 627.866 670.453C627.669 670.831 626.35 670.339 628.92 671.74Z" fill="#FFD037"/>
<path d="M634.995 708.329C634.995 708.329 652.756 707.784 658.108 703.975C663.459 700.166 685.397 695.645 686.754 701.703C688.111 707.761 713.445 732.077 693.394 732.236C673.344 732.395 646.805 729.116 641.461 725.867C636.117 722.618 634.995 708.329 634.995 708.329Z" fill="#A8A8A8"/>
<path opacity="0.2" d="M693.751 730.138C673.701 730.297 647.162 727.018 641.817 723.769C637.747 721.293 636.124 712.41 635.586 708.314H634.995C634.995 708.314 636.117 722.626 641.461 725.874C646.805 729.123 673.344 732.409 693.394 732.243C699.186 732.197 701.179 730.138 701.073 727.093C700.27 728.949 698.094 730.1 693.751 730.138Z" fill="black"/>
<path opacity="0.5" d="M134.821 318.506H130.06C130.511 318.527 130.961 318.457 131.384 318.299C131.807 318.142 132.194 317.9 132.52 317.589C132.847 317.278 133.107 316.904 133.285 316.489C133.463 316.075 133.554 315.629 133.554 315.178C133.554 314.727 133.463 314.28 133.285 313.866C133.107 313.451 132.847 313.077 132.52 312.766C132.194 312.455 131.807 312.213 131.384 312.056C130.961 311.898 130.511 311.828 130.06 311.849H91.491C90.6349 311.89 89.8274 312.259 89.236 312.878C88.6445 313.498 88.3146 314.321 88.3146 315.178C88.3146 316.034 88.6445 316.857 89.236 317.477C89.8274 318.096 90.6349 318.465 91.491 318.506H96.2515C95.3954 318.547 94.5879 318.915 93.9965 319.535C93.405 320.154 93.0751 320.978 93.0751 321.834C93.0751 322.69 93.405 323.513 93.9965 324.133C94.5879 324.753 95.3954 325.121 96.2515 325.162H89.5883C88.7322 325.203 87.9247 325.571 87.3333 326.191C86.7418 326.811 86.4119 327.634 86.4119 328.49C86.4119 329.346 86.7418 330.17 87.3333 330.789C87.9247 331.409 88.7322 331.777 89.5883 331.818H128.157C128.608 331.84 129.059 331.769 129.482 331.612C129.905 331.454 130.291 331.213 130.618 330.901C130.945 330.59 131.205 330.216 131.382 329.802C131.56 329.387 131.652 328.941 131.652 328.49C131.652 328.039 131.56 327.593 131.382 327.178C131.205 326.764 130.945 326.39 130.618 326.079C130.291 325.767 129.905 325.526 129.482 325.368C129.059 325.211 128.608 325.14 128.157 325.162H134.821C135.677 325.121 136.484 324.753 137.076 324.133C137.667 323.513 137.997 322.69 137.997 321.834C137.997 320.978 137.667 320.154 137.076 319.535C136.484 318.915 135.677 318.547 134.821 318.506Z" fill="#DEE3F3"/>
</g>
<defs>
<linearGradient id="paint0_linear" x1="192.18" y1="673.746" x2="192.18" y2="360.245" gradientUnits="userSpaceOnUse">
<stop stop-color="#808080" stop-opacity="0.25"/>
<stop offset="0.54" stop-color="#808080" stop-opacity="0.12"/>
<stop offset="1" stop-color="#808080" stop-opacity="0.1"/>
</linearGradient>
<linearGradient id="paint1_linear" x1="290.847" y1="620.862" x2="290.847" y2="620.825" gradientUnits="userSpaceOnUse">
<stop stop-color="#808080" stop-opacity="0.25"/>
<stop offset="0.54" stop-color="#808080" stop-opacity="0.12"/>
<stop offset="1" stop-color="#808080" stop-opacity="0.1"/>
</linearGradient>
<linearGradient id="paint2_linear" x1="16535.6" y1="153377" x2="16535.6" y2="68910.9" gradientUnits="userSpaceOnUse">
<stop stop-color="#808080" stop-opacity="0.25"/>
<stop offset="0.54" stop-color="#808080" stop-opacity="0.12"/>
<stop offset="1" stop-color="#808080" stop-opacity="0.1"/>
</linearGradient>
<linearGradient id="paint3_linear" x1="104804" y1="185866" x2="104804" y2="60421.7" gradientUnits="userSpaceOnUse">
<stop stop-color="#808080" stop-opacity="0.25"/>
<stop offset="0.54" stop-color="#808080" stop-opacity="0.12"/>
<stop offset="1" stop-color="#808080" stop-opacity="0.1"/>
</linearGradient>
<clipPath id="clip0">
<rect width="720" height="500.919" fill="white" transform="translate(0 262)"/>
</clipPath>
</defs>
</svg>
