<svg width="1023" height="426" viewBox="0 0 1023 426" fill="none" xmlns="http://www.w3.org/2000/svg">
<path d="M98.6074 252.422C98.6074 252.422 63.7245 267.617 57.3945 267.342C51.0627 267.068 12.0432 255.457 12.0432 255.457L13.0392 262.172C13.0392 262.172 43.1524 279.489 53.676 280.473C64.0392 281.438 99.4748 271.168 102.895 269.002C106.322 266.832 108.549 254.617 98.6074 252.422Z" fill="#ED985F"/>
<path d="M103.842 196.52C103.842 196.52 116.709 194.074 123.119 198.754C134.735 207.234 135.351 236.459 139.709 240.814C144.059 245.168 154.541 243.308 155.478 265.838C156.41 288.369 151.305 290.254 157.389 300.308C163.473 310.363 154.812 320.427 154.812 320.427C154.812 320.427 158.364 314.879 156.838 310.873C156.838 310.873 155.365 319.713 149.744 321.789C144.131 323.863 143.299 325.383 142.397 328.424C142.397 328.424 94.4651 303.864 94.4179 286.443C94.3635 269.017 84.9806 251.763 89.592 244.219C89.592 244.219 87.5389 247.443 87.2891 251.039C87.2891 251.039 84.5235 245.744 89.3126 240.814C94.1036 235.883 83.6936 225.683 85.2364 213.869C86.2931 205.758 91.9901 196.869 103.842 196.52" fill="#233862"/>
<path d="M94.365 269.018C97.4314 271.143 101.268 272.897 106.094 274.011C124.168 278.187 131.094 262.906 133.701 252.422C131.232 251.012 128.914 250.701 127.574 250.541C126.267 250.386 124.893 250.281 123.754 250.227C121.725 248.672 118.698 242.313 118.037 232.431L117.186 232.656L102.936 236.556C102.936 236.556 103.592 241.088 103.908 245.367C104.156 248.717 104.196 251.916 103.558 252.701C102.453 252.942 101.779 253.098 101.779 253.098L101.773 253.112C101.584 253.428 97.449 260.223 94.365 269.018" fill="#FFB27D"/>
<path d="M102.936 236.561C102.936 236.561 103.592 241.086 103.914 245.365C111.984 244.56 115.73 236.875 117.189 232.66L102.936 236.561Z" fill="#ED985F"/>
<path d="M100.524 240.814C100.524 240.814 119.682 239.758 118.838 227.838C117.998 215.918 119.903 207.754 107.637 207.924C95.367 208.094 93.3146 212.808 92.6291 216.859C91.9436 220.905 95.5196 240.78 100.524 240.814" fill="#FFB27D"/>
<path d="M92.7262 210.184C95.4262 206.389 97.7171 207.015 99.045 208.008C109.095 201.506 116.441 209.517 116.441 209.517C118.34 217.98 124.857 222.441 124.857 222.441C124.857 222.441 121.524 224.842 113.336 223.352C110.834 222.894 108.516 221.307 106.504 219.326C110.145 224.545 114.858 228.156 114.858 228.156C104.931 224.406 100.115 211.324 99.6311 209.94C98.5429 211.074 96.4005 213.516 95.8594 215.801C95.1251 218.906 91.9455 223.756 90.1095 223.676C90.1095 223.676 88.6796 215.881 92.7266 210.183" fill="#233862"/>
<path d="M139.152 307.969C140.885 299.129 146.526 263.793 140.885 252.424C138.86 248.338 130.906 247.969 122.187 248.328C119.47 250.078 109.131 256.703 104.883 255.873C104.842 255.864 104.754 255.848 104.649 255.819C102.646 255.318 101.886 253.914 103.56 252.703C103.566 252.699 99.24 252.283 93.8749 253.293C90.8441 253.863 82.674 258.094 82.674 258.094C82.674 258.094 86.787 265.53 92.8552 268.094C91.8259 277.328 93.3596 281.399 102.933 302.719C111.027 320.739 101.845 336.969 101.845 336.969C101.845 336.969 149.481 375.264 149.744 355.764C149.943 341.084 136.946 319.273 139.152 307.969" fill="#3D6988"/>
<path d="M99.4845 378.614C96.8884 378.318 94.5566 376.905 93.1133 374.732C92.883 374.388 92.6333 374.018 92.373 373.623C86.9509 365.414 84.8441 340.28 72.6484 313.498C69.672 306.978 59.01 305.805 56.1033 298.434C56.1033 298.434 48.9453 274.549 69.8044 273.844C90.6581 273.138 125.655 340.308 126.209 347.354C126.742 354.177 139.992 383.184 99.4845 378.614Z" fill="#3029F4"/>
<path d="M16.5975 378.06H46.2795C46.2795 378.06 47.3925 373.326 45.4433 370.105C43.7149 367.256 44.379 365.631 45.6581 363.271C44.3104 363.82 42.5704 364.323 40.6545 364.211C39.1759 364.127 37.6095 363.455 36.24 362.66C34.9613 364.115 29.4919 370.317 27.7796 371.547C25.842 372.942 17.1975 372.441 16.5975 378.061V378.06ZM136.033 261.68C136.033 261.68 139.894 296.83 114.84 304.195C89.7829 311.56 82.674 271.856 102.898 269C123.131 266.145 136.033 261.68 136.033 261.68Z" fill="#2E6084"/>
<path d="M55.4295 280.746C53.6385 294.147 46.6601 336.441 34.3515 357.072C30.3829 363.726 44.3516 367.457 44.4278 367.437C46.3009 366.948 49.4179 363.957 50.8635 362.662C60.8554 353.652 81.1466 328.143 81.1466 307.692C81.1466 297.723 81.3206 278.677 74.0704 273.836C69.6056 270.858 56.1424 275.422 55.4295 280.746Z" fill="#3029F4"/>
<path d="M117.186 378.06C117.186 378.06 116.088 376.531 114.168 373.621C111.891 370.166 109.357 363.362 106.291 354.636C103.072 345.48 99.258 334.217 94.4846 322.496C93.0079 318.881 91.449 315.217 89.7829 311.561C86.8106 305.041 78.6405 305.941 75.7346 298.57C75.7346 298.57 64.3905 273.022 85.2401 272.317C106.095 271.612 145.72 340.666 148.004 347.352C150.494 354.672 162.658 385.076 117.186 378.06" fill="#4E47FF"/>
<path d="M38.3865 378.06H68.0685C68.0685 378.06 69.1774 373.326 67.2323 370.105C65.508 367.256 66.1661 365.631 67.4415 363.271C66.0975 363.82 64.3616 364.32 62.4491 364.211C60.9649 364.127 59.4004 363.457 58.0294 362.662C56.7499 364.115 51.2809 370.317 49.5724 371.547C47.6329 372.942 38.9824 372.441 38.3865 378.061" fill="#3D6988"/>
<path d="M106.291 354.639C103.071 345.483 99.252 334.217 94.4764 322.498C95.7206 313.617 98.4139 305.847 102.936 302.717C102.936 302.717 113.904 336.703 106.291 354.639Z" fill="#3029F4"/>
<path d="M72.756 279.797C70.965 293.197 68.451 336.444 56.1386 357.072C52.1719 363.726 66.1406 367.457 66.213 367.437C68.088 366.948 71.211 363.957 72.6506 362.662C82.6425 353.652 102.933 328.143 102.933 307.693C102.933 297.722 91.2345 279.477 83.9786 274.636C79.5176 271.653 73.4629 274.473 72.756 279.797" fill="#4E47FF"/>
<path d="M8.50388 238.191L38.9025 234.961C39.3335 234.915 39.7676 235.013 40.1366 235.241C40.5056 235.468 40.7887 235.811 40.9414 236.217L51.8205 264.791C52.299 266.045 51.4061 267.395 50.0606 267.451L19.9024 268.67C19.5021 268.685 19.1066 268.578 18.7688 268.363C18.431 268.148 18.1668 267.834 18.0116 267.465L6.90263 240.896C6.39263 239.684 7.19551 238.332 8.50388 238.191" fill="#50748D"/>
<path d="M5.86125 238.465L36.2614 235.239C36.6925 235.191 37.1273 235.288 37.4972 235.514C37.8671 235.741 38.1511 236.084 38.3044 236.49L49.176 265.071C49.6579 266.321 48.7616 267.676 47.4221 267.726L17.2616 268.946C16.8611 268.961 16.4654 268.854 16.1274 268.639C15.7894 268.423 15.5255 268.11 15.3709 267.74L4.26563 241.176C3.75188 239.961 4.55851 238.605 5.86163 238.465" fill="#3D6988"/>
<path d="M22.7051 251.813C22.338 250.793 22.8634 249.963 23.883 249.963C24.9026 249.963 26.0329 250.793 26.4004 251.813C26.7735 252.832 26.2481 253.656 25.2285 253.656C24.2089 253.656 23.0779 252.832 22.7048 251.813H22.7051ZM6.77139 241.166C6.59214 240.666 6.84564 240.261 7.35152 240.261C7.85139 240.261 8.40601 240.666 8.58601 241.166C8.77164 241.666 8.51139 242.076 8.01152 242.076C7.50602 242.076 6.95702 241.666 6.77139 241.166" fill="#50748D"/>
<path d="M133.703 252.42C133.703 252.42 91.5724 267.936 85.242 267.615C81.1485 267.41 47.1465 255.455 47.1465 255.455C47.1465 255.455 44.6171 251.576 41.8729 250.765C41.8729 250.765 37.0369 248.545 35.658 248.135C34.281 247.72 34.5544 248.141 34.9669 249.449C35.1814 250.131 35.955 250.791 36.6465 251.33C34.3226 251.965 32.031 252.836 30.9551 253.041C29.166 253.385 24.0544 255.041 25.5724 257.53C27.0956 260.016 34.1351 260.571 37.176 260.016C40.2172 259.465 44.088 261.234 44.088 261.234C44.088 261.234 77.1892 282.51 86.2867 282.406C104.258 282.195 134.574 271.166 137.992 269C141.412 266.83 143.643 254.615 133.703 252.42ZM8.99211 252.975C8.99211 252.975 12.039 248.154 13.041 247.953C16.08 247.356 16.08 251.359 15.4354 253.939C14.7461 256.711 12.4024 259.323 11.754 259.096C11.1034 258.869 8.27774 255.519 8.99211 252.975" fill="#FFB27D"/>
<path d="M8.87511 253.938C8.87511 253.938 7.89636 259.345 13.0391 262.172L8.87511 253.938Z" fill="#FFB27D"/>
<path d="M96.9413 233.955C96.9413 233.955 98.7521 233.242 103.848 233.651C103.848 233.651 103.574 235.641 99.8205 235.836C97.6935 235.946 96.9416 233.955 96.9416 233.955" fill="white"/>
<path d="M112 260.07C112 260.07 115.764 272 128.705 274.715C128.705 274.715 150.074 268.131 139.434 253.571C139.434 253.571 128.916 245.756 112 260.07" fill="#3D6988"/>
<path d="M292.812 144.045C292.785 144.096 292.785 144.125 292.758 144.176C292.09 145.731 291.395 147.285 290.645 148.811C285.828 158.801 279.367 167.856 271.437 175.779C262.334 184.914 251.697 192.065 239.862 197.076C227.592 202.27 214.604 204.895 201.182 204.895C187.772 204.895 174.75 202.27 162.486 197.076C150.645 192.065 140.041 184.914 130.905 175.78C121.773 166.65 114.592 156.015 109.584 144.176C106.375 136.545 104.146 128.64 102.942 120.5C102.648 118.705 102.438 116.91 102.273 115.09C102.063 112.946 101.898 110.775 101.844 108.609C101.815 107.573 101.799 106.537 101.797 105.5C101.797 104.295 101.817 103.065 101.844 101.859C102.192 92.8301 103.717 84.0195 106.397 75.5021C106.849 74.06 107.342 72.6311 107.875 71.217C108.406 69.744 108.971 68.2657 109.584 66.8224C110.471 64.791 111.377 62.781 112.371 60.8261C113.31 58.9511 114.299 57.1331 115.342 55.3339C118.268 50.3485 121.621 45.6269 125.365 41.2226C126.916 39.3959 128.532 37.6253 130.209 35.9141C130.448 35.676 130.666 35.4589 130.905 35.2204C138.461 27.6701 147.053 21.4575 156.51 16.6875C158.467 15.6915 160.449 14.7851 162.486 13.9275C163.017 13.6894 163.582 13.4704 164.121 13.26C175.875 8.51738 188.352 6.10538 201.182 6.10538C214.604 6.10538 227.592 8.7285 239.862 13.9275C251.697 18.9356 262.334 26.0899 271.437 35.2204C280.574 44.3576 287.748 54.9866 292.758 66.8224C297.927 79.0665 300.552 92.0801 300.552 105.5C300.552 118.865 297.955 131.83 292.812 144.045ZM298.385 64.4374C293.078 51.879 285.473 40.5761 275.778 30.906C266.082 21.2111 254.813 13.6073 242.248 8.27963C229.226 2.787 215.408 0 201.182 0C186.939 0 173.123 2.787 160.101 8.27963C158.541 8.9475 156.994 9.6405 155.494 10.3635C153.002 11.5706 150.541 12.8572 148.178 14.2481C140.306 18.7991 133.071 24.3731 126.564 30.906C125.198 32.2536 123.878 33.647 122.606 35.0839C120.99 36.8554 119.471 38.7011 117.992 40.5761C115.643 43.5739 113.469 46.707 111.459 49.9241C110.334 51.7226 109.291 53.5624 108.275 55.416C106.695 58.332 105.271 61.3361 103.957 64.4374C102.969 66.7676 102.082 69.0975 101.285 71.4825C100.773 72.9274 100.319 74.379 99.8884 75.8494C97.7479 83.0861 96.4335 90.5546 95.9239 98.1386C95.7656 100.386 95.6835 102.635 95.6561 104.91V105.5C95.6561 107.78 95.7386 110.055 95.8751 112.305C95.9764 114.15 96.168 116 96.3866 117.849C97.5041 127.731 100.053 137.346 103.957 146.561C109.263 159.119 116.869 170.426 126.564 180.121C136.268 189.791 147.537 197.394 160.101 202.725C173.123 208.215 186.939 211 201.182 211C215.408 211 229.227 208.215 242.248 202.725C254.813 197.394 266.082 189.791 275.778 180.121C285.207 170.689 292.682 159.709 297.955 147.551C298.092 147.231 298.248 146.879 298.385 146.561C298.971 145.17 299.537 143.775 300.041 142.379C304.463 130.625 306.684 118.224 306.684 105.5C306.684 91.2499 303.897 77.4315 298.385 64.4374V64.4374ZM101.797 105.5C101.797 104.295 101.817 103.065 101.844 101.859C102.192 92.8301 103.717 84.0195 106.397 75.5021C104.147 75.5839 101.981 75.7204 99.8884 75.8494C97.7479 83.0861 96.4335 90.5546 95.9239 98.1386C95.7656 100.386 95.6835 102.635 95.6561 104.91V105.5C95.6561 107.78 95.7386 110.055 95.8751 112.305C97.9335 113.27 100.053 114.18 102.273 115.09C102.063 112.946 101.898 110.775 101.844 108.609C101.815 107.573 101.799 106.537 101.797 105.5" fill="#F7F7FF"/>
<path d="M318.013 126.768L309.846 126.582C312.472 129.982 313.053 133.117 311.426 135.768C309.789 138.471 305.879 140.697 300.043 142.381C297.904 143.028 295.488 143.562 292.812 144.047C285.658 145.332 276.738 146.082 266.322 146.187C239.969 146.508 207.234 142.922 174.183 136.143C151.927 131.562 131.355 125.912 114.136 119.697C111.584 118.787 109.047 117.831 106.528 116.832C105.08 116.271 103.666 115.682 102.271 115.092C100.043 114.182 97.9316 113.271 95.8691 112.307C94.422 111.662 93.0348 110.992 91.668 110.323C72.6761 101.057 63.9978 92.1116 67.8828 85.7655C71.0133 80.619 82.4238 77.1349 99.885 75.8517C101.974 75.7204 104.149 75.5899 106.396 75.5059C106.851 74.0584 107.328 72.6447 107.873 71.2227C105.59 71.2714 103.396 71.3809 101.277 71.4844C79.2633 72.8025 67.4823 76.6797 63.1976 83.6877C58.209 91.8634 65.0193 102.826 86.7911 113.487C89.7911 114.957 93.006 116.403 96.381 117.852C98.5591 118.756 100.746 119.64 102.942 120.502C103.99 120.903 105.031 121.307 106.072 121.707C108.646 122.672 111.274 123.636 113.979 124.572C130.9 130.435 150.617 135.742 171.775 140.107C201.371 146.162 230.779 149.752 255.926 150.336C259.623 150.447 263.217 150.447 266.694 150.418C275.724 150.31 283.754 149.778 290.638 148.812C293.091 148.485 295.53 148.065 297.951 147.552C308.694 145.332 315.763 141.847 318.578 137.242C320.531 134.051 320.289 130.515 318.013 126.768" fill="#F7F7FF"/>
<path d="M272.928 124.158C272.823 124.347 272.715 124.537 272.601 124.722C269.367 129.847 262.143 132.498 252.01 132.498C247.158 132.498 241.637 131.892 235.576 130.658C215.627 126.613 192.051 116.455 169.185 102.041C146.705 87.8809 127.635 71.328 115.347 55.3399C115.135 55.0605 114.922 54.7811 114.717 54.51C113.547 52.9612 112.457 51.4395 111.453 49.9376C102.496 36.6405 99.7991 25.3575 104.097 18.5471C107.326 13.416 114.543 10.7715 124.677 10.7715C129.528 10.7715 135.051 11.3771 141.117 12.6052C143.482 13.0902 145.833 13.64 148.168 14.2541C150.967 14.9871 153.743 15.8024 156.494 16.6991C158.459 15.7067 160.458 14.7823 162.486 13.9275C163.025 13.6978 163.566 13.474 164.109 13.2562C161.257 12.2214 158.378 11.26 155.477 10.3729C150.938 8.98986 146.52 7.85361 142.254 6.98998C120.731 2.62498 105.453 5.64036 99.246 15.4961C93.3398 24.8651 96.5546 38.967 108.278 55.4201C108.881 56.256 109.5 57.1076 110.136 57.957C110.869 58.9218 111.614 59.877 112.371 60.8224C125.076 76.7111 144.021 92.9651 166.129 106.885C189.573 121.658 213.826 132.094 234.434 136.278C240.873 137.582 246.746 138.226 251.996 138.226C264.289 138.226 273.094 134.677 277.448 127.773C278.16 126.636 278.746 125.423 279.194 124.158H272.927" fill="#F7F7FF"/>
<path d="M227.172 12.4631C215.721 12.4631 191.734 44.5309 172.945 96.3454C163.875 121.346 157.953 145.756 156.273 165.086C154.47 185.875 158.178 194.865 162.258 196.346C162.783 196.535 163.33 196.631 163.932 196.631C175.383 196.631 199.375 164.556 218.17 112.742C227.235 87.744 233.156 63.3341 234.83 44.0059C236.646 23.2151 232.926 14.2286 228.846 12.7459C228.326 12.5524 227.781 12.4631 227.172 12.4631V12.4631ZM163.932 202.215C162.687 202.215 161.483 202.011 160.353 201.602C142.25 195.035 150.621 141.49 167.685 94.4415C183.467 50.9276 208.965 6.87713 227.172 6.87713C228.422 6.87713 229.621 7.08188 230.75 7.49213C241.066 11.2324 241.687 29.676 240.405 44.4866C238.68 64.2911 232.648 89.205 223.418 114.648C207.636 158.166 182.139 202.215 163.932 202.215" fill="#F7F7FF"/>
<path d="M271.895 86.3299C251.735 86.3299 233.315 84.408 216.867 80.5939C197.196 76.0256 180.287 68.7364 166.604 58.9335C143.051 42.0604 137.267 23.7191 137.03 22.9455L142.379 21.3105C142.434 21.4868 148.026 38.9044 170.248 54.6641C190.905 69.3184 230.517 85.5079 301.965 79.3984L302.445 84.9724C291.871 85.875 281.684 86.3299 271.895 86.3299V86.3299ZM252.071 196.101C212.973 167.002 174.367 153.972 148.865 148.168C121.295 141.892 102.838 142.482 102.662 142.492L102.455 136.908C103.229 136.877 121.828 136.283 150.105 142.717C176.129 148.642 215.533 161.937 255.405 191.623L252.071 196.101Z" fill="#F7F7FF"/>
<path d="M994.614 403.666C994.614 409.756 992.144 415.271 988.147 419.267C984.156 423.261 978.649 425.727 972.547 425.727H792.821V382.947H973.9C975.03 382.947 976.153 383.037 977.235 383.211C987.085 384.812 994.614 393.357 994.614 403.666Z" fill="#4E47FF"/>
<path d="M826.194 404.096C826.194 410.035 823.804 415.416 819.924 419.326L819.866 419.396C815.946 423.306 810.536 425.724 804.57 425.724H600.365V382.945H805.039C810.983 382.945 816.364 385.4 820.204 389.345C823.907 393.156 826.194 398.355 826.194 404.096" fill="#FCECDB"/>
<path d="M843.162 422.527C843.162 423.412 842.806 424.211 842.223 424.785C841.926 425.084 841.573 425.321 841.185 425.482C840.796 425.644 840.379 425.727 839.958 425.726H593.094C591.326 425.726 589.89 424.295 589.89 422.527C589.89 421.64 590.241 420.842 590.83 420.261C591.127 419.964 591.48 419.728 591.868 419.567C592.257 419.407 592.674 419.325 593.094 419.326H839.958C841.726 419.326 843.162 420.761 843.162 422.527V422.527ZM843.162 386.146C843.162 387.031 842.806 387.825 842.223 388.406C841.926 388.704 841.573 388.941 841.185 389.102C840.796 389.263 840.379 389.346 839.958 389.345H593.094C591.326 389.345 589.89 387.916 589.89 386.146C589.89 385.261 590.241 384.461 590.83 383.881C591.127 383.584 591.48 383.348 591.869 383.188C592.257 383.028 592.674 382.946 593.094 382.947H839.958C841.726 382.947 843.162 384.381 843.162 386.146" fill="#3029F4"/>
<path d="M600.36 404.338L627.735 405.058L600.36 405.489V404.338ZM600.365 411.047L665.495 411.767L600.365 412.201V411.047" fill="#F4D2B8"/>
<path d="M977.238 383.211L918.142 425.727H792.821V382.945H973.902C975.027 382.945 976.152 383.037 977.238 383.211Z" fill="#3029F4"/>
<path d="M267.435 425.726H146.823V375.422H268.969C281.943 375.422 292.47 385.947 292.47 398.931V400.691C292.47 414.517 281.258 425.726 267.435 425.726" fill="#86D1CD"/>
<path d="M146.361 425.726H7.914V375.422H146.904C160.158 375.422 170.904 386.168 170.904 399.422V401.187C170.904 414.736 159.912 425.727 146.361 425.727" fill="#FCECDB"/>
<path d="M179.528 425.726H3.98064C1.97664 425.726 0.353638 424.101 0.353638 422.097V421.832C0.353638 419.826 1.97664 418.203 3.98064 418.203H179.528C181.531 418.203 183.155 419.826 183.155 421.832V422.097C183.155 424.101 181.531 425.727 179.528 425.727V425.726ZM179.528 382.947H3.98064C1.97664 382.947 0.353638 381.322 0.353638 379.317V379.053C0.353638 377.047 1.97664 375.422 3.98064 375.422H179.528C181.531 375.422 183.155 377.047 183.155 379.053V379.317C183.155 381.322 181.531 382.947 179.528 382.947Z" fill="#86D1CD"/>
<path d="M7.90797 400.578L27.6701 401.422L7.90797 401.933V400.578ZM7.9061 408.469L54.9221 409.313L7.9061 409.823V408.469" fill="#F4D2B8"/>
<path d="M340.086 194.283L321.735 412.463C321.735 412.463 319.812 425.688 329.644 425.713C345.82 425.748 410.16 425.713 410.16 425.713C410.16 425.713 397.985 422.957 398.125 416.762C398.305 409.463 419.58 192.219 419.58 192.219L340.086 194.283" fill="#1CA0DE"/>
<path d="M415.38 421.752C412.19 421.761 350.748 421.951 334.998 421.752C328.137 421.668 326.932 415.647 326.871 411.752C326.847 409.887 327.082 408.506 327.082 408.506L327.557 402.832L328.778 388.383L329.85 375.612L331.229 359.203L332.397 345.351L345.432 190.323L424.925 188.258C424.925 188.258 415.97 279.172 409.625 345.351C408.92 352.727 408.25 359.797 407.625 366.396L407.04 372.567C406.455 378.832 405.91 384.582 405.45 389.656C405.205 392.332 404.975 394.817 404.77 397.098C403.96 406.022 403.49 411.723 403.485 412.803C403.485 413.438 403.53 414.021 403.635 414.573C404.94 421.521 414.18 421.752 415.38 421.752" fill="#45BBF2"/>
<path d="M147.033 75.5546L191.727 255.09L197.85 279.676L218.66 363.301H605.415L528.685 75.5546H147.033" fill="#95D6F4"/>
<path d="M210.429 369.545H594.795L605.415 363.301H218.66L210.429 369.545Z" fill="#1CA0DE"/>
<path d="M345.406 425.793H428.625V421.838H345.406V425.793ZM586.67 310.281L523.925 79.3616H146.412V75.5565H528.68L591.225 309.768L586.67 310.281Z" fill="#95D6F4"/>
<path d="M407.475 369.545L407.045 372.564L328.778 388.381L329.856 375.609L330.367 369.545H407.475Z" fill="#1CA0DE"/>
<path d="M415.38 421.752C412.195 421.761 350.748 421.951 335.002 421.752C328.135 421.666 326.931 415.647 326.879 411.752L404.775 397.098C403.955 406.022 403.495 411.723 403.48 412.801C403.48 413.438 403.53 414.021 403.635 414.573C404.94 421.521 414.185 421.752 415.38 421.752V421.752ZM388.559 305.051L218.668 363.301L197.845 279.676L388.559 305.051" fill="#13A2E4"/>
<path d="M147.026 75.5565H528.68L590.605 306.813H202.637L147.026 75.5565Z" fill="#699DEE"/>
<path d="M422.295 336.047C421.185 330.377 415.695 325.777 410.03 325.777C404.35 325.777 400.655 330.377 401.75 336.047C402.86 341.717 408.345 346.317 414.02 346.317C419.69 346.317 423.395 341.717 422.295 336.047Z" fill="#1CA0DE"/>
<path d="M572.6 296.793H215.256L174.797 135.578L171.687 123.219L169.045 112.674L162.83 87.9435H515.025L521.84 112.674L524.75 123.219L528.155 135.578L572.6 296.793Z" fill="#E9F3FE"/>
<path d="M521.845 112.672H169.045L162.83 87.9435H515.03L521.845 112.672Z" fill="#AFCDFB"/>
<path d="M177.406 99.1151C176.982 97.4119 178.023 96.0236 179.727 96.0236C181.437 96.0236 183.17 97.4119 183.594 99.1151C184.02 100.824 182.976 102.213 181.273 102.213C179.565 102.213 177.836 100.824 177.406 99.1151ZM187.68 99.117C187.25 97.4081 188.293 96.0255 190 96.0255C191.709 96.0255 193.435 97.4081 193.865 99.117C194.287 100.826 193.246 102.211 191.545 102.211C189.836 102.211 188.107 100.826 187.68 99.117ZM198.735 99.1151C198.312 97.4119 199.353 96.0255 201.057 96.0255C202.765 96.0255 204.492 97.4119 204.92 99.1151C205.347 100.824 204.306 102.211 202.603 102.211C200.895 102.211 199.162 100.824 198.735 99.1151Z" fill="#E9F3FE"/>
<path d="M222.936 272.168C222.936 265.033 228.916 259.254 236.277 259.254C243.647 259.254 249.617 265.033 249.617 272.168C249.617 279.303 243.647 285.084 236.277 285.084C228.916 285.084 222.936 279.303 222.936 272.168Z" fill="#699DEE"/>
<path d="M235.211 264.557L242.871 271.182C243.03 271.317 243.157 271.485 243.244 271.674C243.33 271.863 243.375 272.069 243.374 272.277C243.373 272.485 243.326 272.691 243.237 272.879C243.149 273.067 243.02 273.234 242.86 273.367L235.326 279.723C234.363 280.537 232.845 279.881 232.834 278.637L232.705 265.656C232.692 264.392 234.234 263.713 235.211 264.557" fill="#E9F3FE"/>
<path d="M537.03 273.66C537.029 274.304 536.771 274.922 536.315 275.377C535.86 275.832 535.244 276.089 534.6 276.092H262.383C261.049 276.092 259.955 274.996 259.955 273.66C259.955 272.992 260.226 272.381 260.672 271.941C260.896 271.715 261.162 271.536 261.456 271.413C261.75 271.29 262.065 271.227 262.383 271.227H534.6C535.935 271.227 537.03 272.321 537.03 273.66Z" fill="#AFCDFB"/>
<path d="M292.682 271.228V276.094H262.381C261.041 276.094 259.945 274.998 259.945 273.664C259.945 272.994 260.22 272.383 260.664 271.944C260.889 271.717 261.157 271.538 261.451 271.415C261.746 271.292 262.062 271.229 262.381 271.228H292.682Z" fill="#699DEE"/>
<path d="M503.4 251.223H266.762L239.957 154.361L237.905 146.935L236.156 140.601L232.041 125.746H465.28L469.785 140.601L471.71 146.935L473.97 154.361L503.4 251.222" fill="#AFCDFB"/>
<path d="M467.22 179.486H389.416L380.612 147.641L379.926 145.196L379.356 143.115L378 138.231H454.69L456.165 143.115L456.805 145.196L457.545 147.641L467.22 179.487" fill="#E9F3FE"/>
<path d="M390.479 171.601H421.414V157.296H390.479V171.601Z" fill="#C6DCFC"/>
<path d="M455.77 171.594H428.8L425.74 160.553L425.51 159.703L425.305 158.985L424.835 157.289H451.43L451.94 158.985L452.16 159.703L452.42 160.553L455.77 171.594" fill="#C6DCFC"/>
<path d="M436.44 144.297H387.141C386.752 144.297 386.439 143.978 386.439 143.592C386.439 143.207 386.752 142.893 387.141 142.893H436.44C436.83 142.893 437.15 143.207 437.15 143.592C437.15 143.978 436.83 144.297 436.44 144.297ZM438.275 148.088H388.969C388.783 148.088 388.605 148.014 388.473 147.882C388.342 147.751 388.268 147.573 388.267 147.387C388.267 146.998 388.58 146.682 388.969 146.682H438.275C438.457 146.688 438.63 146.764 438.757 146.895C438.884 147.027 438.955 147.202 438.955 147.385C438.955 147.567 438.884 147.743 438.757 147.874C438.63 148.005 438.457 148.082 438.275 148.088V148.088ZM446.8 153.597H391.285C391.075 153.597 390.874 153.514 390.726 153.366C390.577 153.217 390.494 153.016 390.494 152.807C390.494 152.597 390.578 152.396 390.726 152.248C390.875 152.101 391.076 152.018 391.285 152.018H446.8C447.235 152.018 447.59 152.373 447.59 152.807C447.59 153.242 447.235 153.598 446.8 153.598" fill="#AFCDFB"/>
<path d="M481.76 229.285H403.955L395.14 197.436L394.47 194.996L393.895 192.916L392.545 188.031H469.22L470.705 192.916L471.34 194.996L472.085 197.436L481.76 229.285" fill="#E9F3FE"/>
<path d="M435.965 221.392H408.995L405.935 210.348L405.7 209.504L405.5 208.783L405.03 207.088H431.625L432.14 208.783L432.355 209.504L432.615 210.348L435.965 221.392ZM470.32 221.391H443.34L440.295 210.345L440.06 209.5L439.855 208.779L439.385 207.084H465.97L466.49 208.779L466.71 209.5L466.965 210.345L470.32 221.391Z" fill="#C6DCFC"/>
<path d="M450.99 194.09H401.69C401.305 194.09 400.98 193.776 400.98 193.391C400.98 193 401.305 192.686 401.69 192.686H450.99C451.375 192.686 451.69 193 451.69 193.391C451.69 193.776 451.375 194.09 450.99 194.09ZM452.815 197.886H403.5C403.115 197.886 402.805 197.568 402.805 197.184C402.805 196.797 403.115 196.482 403.5 196.482H452.815C453.2 196.482 453.515 196.797 453.515 197.184C453.515 197.568 453.2 197.886 452.815 197.886ZM454.14 201.678H404.84C404.455 201.678 404.135 201.363 404.135 200.979C404.135 200.594 404.455 200.274 404.84 200.274H454.14C454.53 200.274 454.845 200.594 454.845 200.979C454.845 201.363 454.53 201.678 454.14 201.678Z" fill="#AFCDFB"/>
<path d="M69.9026 398.771C69.9026 398.771 65.6036 400.832 64.1816 404.226C63.9203 404.826 63.7682 405.468 63.7323 406.121C63.4961 410.631 63.7323 420.832 63.7323 420.832L51.0431 415.731L38.3906 420.832V407.006C38.3906 404.391 39.4725 401.846 41.4885 400.182C42.4706 399.377 43.6545 398.772 44.994 398.772H69.9026" fill="#4E47FF"/>
<path d="M69.9026 398.771C69.9026 398.771 65.6036 400.832 64.1816 404.226L38.7499 404.426C38.7499 404.426 39.7459 399.573 44.994 398.772H69.9026" fill="#3029F4"/>
<path d="M693.616 383.326H841.182V318.243H691.636C674.842 318.243 661.227 331.858 661.227 348.657V350.938C661.227 368.823 675.721 383.326 693.616 383.326" fill="#3D6988"/>
<path d="M842.593 383.326H1012.82V318.242H841.899C825.073 318.242 811.423 331.883 811.423 348.714V352.162C811.423 369.373 825.382 383.326 842.593 383.326" fill="#FCECDB"/>
<path d="M800.989 383.326H1017.47C1020.07 383.326 1022.16 381.221 1022.16 378.627V378.287C1022.16 375.692 1020.07 373.592 1017.47 373.592H800.989C798.403 373.592 796.295 375.692 796.295 378.287V378.627C796.295 381.221 798.402 383.326 800.989 383.326ZM800.989 327.973H1017.47C1018.08 327.974 1018.69 327.853 1019.26 327.617C1019.83 327.382 1020.35 327.036 1020.79 326.6C1021.22 326.164 1021.57 325.646 1021.8 325.076C1022.04 324.506 1022.16 323.895 1022.16 323.278V322.938C1022.16 322.321 1022.04 321.71 1021.8 321.14C1021.57 320.57 1021.22 320.053 1020.79 319.616C1020.35 319.18 1019.83 318.834 1019.26 318.599C1018.69 318.363 1018.08 318.242 1017.47 318.243H800.989C798.403 318.243 796.295 320.342 796.295 322.938V323.278C796.295 325.874 798.402 327.973 800.989 327.973" fill="#3D6988"/>
<path d="M1012.82 350.783L988.403 351.877L1012.82 352.537V350.783ZM1012.82 335.803L954.731 336.897L1012.82 337.557V335.803Z" fill="#F4D2B8"/>
<path d="M955.337 336.682C955.337 336.682 959.16 338.746 960.432 342.137C960.667 342.733 960.807 343.368 960.841 344.037C961.049 348.541 960.841 358.742 960.841 358.742L972.144 353.641L983.44 358.742V344.916C983.44 342.301 982.476 339.756 980.675 338.092C979.797 337.285 978.746 336.682 977.541 336.682H955.337" fill="#3D6988"/>
<path d="M955.334 336.681C955.334 336.681 959.17 338.747 960.428 342.137L983.114 342.336C983.114 342.336 982.23 337.481 977.544 336.681H955.334Z" fill="#50748D"/>
<path d="M642.075 245.502C642.075 245.502 633.99 250.096 631.725 250.096C629.465 250.096 620.585 248.381 618.105 249.647C615.625 250.912 611.145 256.002 610.31 257.668C608.8 260.656 616.39 259.336 619.99 256.787C620.247 256.603 620.539 256.475 620.848 256.412C621.157 256.348 621.477 256.35 621.785 256.418C623.645 256.823 627.51 257.528 629.38 256.832C631.885 255.906 645.105 254.873 645.105 254.873L642.075 245.502" fill="#E49963"/>
<path d="M632.945 411.525C632.945 411.525 632.07 425.565 629.355 425.766C628.995 425.791 615.58 425.791 615.58 425.791L598.45 425.691C598.45 425.691 598.575 421.566 603.57 420.696C608.58 419.82 616.965 416.307 619.985 409.691C623.18 402.73 632.945 411.525 632.945 411.525" fill="#163560"/>
<path d="M703.59 182.897C703.59 182.897 695.2 242.455 681.33 247.791C674.485 250.42 644.22 256.391 635.27 256.99C635.27 256.99 633.08 255.211 633.615 247.971C633.615 247.971 665.32 236.33 669.82 230C676.53 220.58 665.66 191.516 674.07 182.666C682.485 173.814 696.655 170.016 703.59 182.897" fill="#3029F4"/>
<path d="M700.762 308.38C698.323 312.527 695.491 316.411 692.579 320.091C683.569 331.46 673.763 340.837 672.05 349.701C671.717 351.466 671.178 353.367 670.473 355.371C669.762 357.402 668.88 359.536 667.863 361.742C664.038 370.047 658.324 379.347 652.614 387.803C642.748 402.422 633.476 414.621 633.476 414.621L616.464 413.896C617.139 412.191 624.562 392.006 634.494 367.341C638.525 357.325 642.803 346.675 646.935 336.402C647.49 335.04 648.04 333.676 648.583 332.31C649.853 329.166 651.097 326.072 652.317 323.06C661.634 299.9 669.057 281.456 669.057 281.456C669.057 281.456 706.311 267.345 710.17 276.486C713.365 284.027 710.765 291.415 700.762 308.38" fill="#599DAD"/>
<path d="M672.335 371.42C672.335 371.42 684.17 379.028 683.02 381.492C682.87 381.821 676.325 393.537 676.325 393.537L667.89 408.436C667.89 408.436 664.34 406.326 666.02 401.531C667.705 396.737 668.71 387.705 664.42 381.836C659.895 375.656 672.335 371.42 672.335 371.42" fill="#163560"/>
<path d="M666.545 384.787C666.545 384.787 673.938 378.262 675.242 373.477C675.242 373.477 644.769 336.967 638.16 328.786C637.854 328.412 637.939 327.997 638.337 327.548C643.324 321.917 698.765 310.477 706.012 299.208C708.513 295.323 709.923 291.632 710.693 288.411C712.338 281.532 711.035 276.776 711.035 276.776L655.67 275.177C655.67 275.177 609.57 303.882 604.351 323.455C599.121 343.031 666.545 384.787 666.545 384.787Z" fill="#6BB7BF"/>
<path d="M638.331 327.548C643.323 321.917 698.768 310.478 706.011 299.208C708.507 295.323 709.918 291.634 710.692 288.413V281.403L687.166 277.701C687.166 277.701 680.481 298.237 660.722 305.939C642.208 313.154 638.707 325.954 638.331 327.548" fill="#5AA9AD"/>
<path d="M670.82 179.141C682.03 182.035 700.595 171.656 700.595 171.656C700.595 171.656 693.38 166.811 690.715 156.166C690.574 155.62 690.451 155.069 690.345 154.515C689.17 154.266 686.955 153.795 684.59 153.297L676.035 160.961C676.035 160.961 676.23 164.141 677.3 169.611C677.498 170.64 677.713 171.665 677.945 172.686C673.35 175.526 670.82 179.141 670.82 179.141" fill="#E49963"/>
<path d="M712.46 225.571C710.85 247.152 712.964 279.978 711.138 285.657C709.574 290.562 691.668 287.648 684.525 286.013C681.881 285.407 678.677 284.536 675.368 283.517C666.14 280.657 656.085 276.577 655.006 273.552C654.97 273.437 654.939 273.32 654.915 273.202C654.818 272.784 654.825 272.348 654.935 271.933C655.298 270.386 656.676 268.718 656.832 264.898C657.019 260.626 656.993 255.603 657.16 250.196C657.16 249.587 657.165 248.921 657.236 248.317L657.241 248.097V247.751C657.402 241.722 657.72 235.388 658.078 229.102C658.316 225.157 658.583 221.247 658.89 217.503C659.693 207.837 660.782 199.237 662.215 193.801C664.566 184.942 669.732 179.167 674.45 174.932L677.85 172.012C681.644 172.843 686.139 172.292 690.206 170.362C694.605 168.276 696.123 166.776 696.885 167.343C707.051 175.182 714.351 199.193 712.46 225.571" fill="#4E47FF"/>
<path d="M675.372 283.515C666.146 280.655 656.098 276.576 655.016 273.55C654.978 273.435 654.942 273.318 654.91 273.201L654.94 271.931C655.296 270.384 656.682 268.716 656.839 264.896C657.027 260.626 656.997 255.601 657.164 250.195C657.164 249.585 657.174 248.921 657.24 248.316L657.251 248.095V247.749L694.555 200.224C694.555 200.224 719.632 252.441 675.372 283.515Z" fill="#3029F4"/>
<path d="M676.04 160.961C676.04 160.961 676.23 164.14 677.305 169.611C685.66 166.912 689.445 159.365 690.715 156.166C690.574 155.62 690.451 155.069 690.345 154.515C689.17 154.266 686.955 153.797 684.595 153.297L676.04 160.961" fill="#D68D5D"/>
<path d="M674.91 165.787C674.91 165.787 693.135 162.74 691.065 151.426C689 140.106 689.955 132.092 678.235 133.557C666.515 135.021 665.045 139.75 664.825 143.696C664.595 147.641 670.115 166.285 674.91 165.787" fill="#E49963"/>
<path d="M603.19 262.621L601.585 263.147L587.91 221.073L589.515 220.547L603.19 262.621" fill="#4A75CB"/>
<path d="M647.935 259.375L601.53 260.365L601.58 263.147L648 262.151L647.935 259.375Z" fill="#4A75CB"/>
<path d="M647.07 264.371C647.07 264.371 632.16 268.301 626.57 267.891C620.97 267.474 616.32 264.816 615.62 263.426C614.915 262.041 613.44 259.576 617.25 260.031C621.05 260.487 626.25 261.295 626.41 260.567C626.57 259.83 623.3 259.901 623.3 259.901C623.3 259.901 622.32 258.465 623.56 258.416C624.805 258.362 628.43 257.381 629.775 258.051C631.115 258.726 632.365 261.211 633.35 261.105C634.33 261.006 645.82 255.93 645.82 255.93L647.07 264.371" fill="#E49963"/>
<path d="M699.89 185.336C699.89 185.336 698.125 245.461 684.925 252.291C678.41 255.66 648.99 264.93 640.16 266.511C640.16 266.511 637.78 264.987 637.51 257.73C637.51 257.73 667.745 242.666 671.52 235.881C677.145 225.775 663.145 198.086 670.53 188.365C677.91 178.645 691.575 173.301 699.89 185.336" fill="#4E47FF"/>
<path d="M690.705 156.168C690.705 156.168 690.92 152.283 688.53 150.059C688.53 150.059 689.355 146.168 687.81 145.524C686.275 144.883 685.95 148.155 685.25 147.642C684.545 147.127 681.4 144.687 680.045 141.098C678.705 137.502 666.37 141.854 664.925 142.504C663.49 143.149 658.875 140.774 657.97 138.848C657.97 138.848 660.535 136.797 661.695 135.258C662.845 133.719 670.94 123.318 682.235 126.273C693.53 129.222 695.065 134.613 694.42 139.233C693.78 143.857 695.335 154.617 690.705 156.168" fill="#2B478B"/>
<path d="M813.184 206.062C813.184 206.062 818.97 214.62 822.263 232.611C825.153 248.37 827.681 254.187 831.859 257.422C836.03 260.652 859.275 270.19 859.275 270.19L857.53 274.261C857.53 274.261 823.468 269.626 819.64 263.931C815.807 258.236 801.215 224.591 802.354 216.841C803.481 209.091 813.184 206.062 813.184 206.062Z" fill="#F4A269"/>
<path d="M896.616 394.017C896.305 397.342 900.928 398.153 906.29 398.418C911.645 398.681 910.029 399.781 917.375 401.111C924.708 402.441 927.653 400.431 928.187 399.437C928.664 398.562 925.249 397.181 921.604 395.627C921.147 395.432 920.691 395.233 920.237 395.031C916.141 393.232 913.845 389.556 910.646 386.153C907.625 382.928 904.757 372.607 904.757 372.607L894.778 370.472C894.778 370.472 897.583 379.767 898.549 383.732C899.122 386.067 898.276 388.676 897.532 390.662C897.125 391.742 896.724 392.845 896.616 394.017" fill="#FFB27D"/>
<path d="M906.29 398.418C911.645 398.681 910.029 399.781 917.375 401.111C924.708 402.441 927.653 400.431 928.187 399.437C928.664 398.562 925.249 397.181 921.604 395.627L921.553 395.687C921.553 395.687 916.39 397.441 910.43 395.822C905.577 394.502 900.877 391.601 897.532 390.662C897.125 391.742 896.724 392.845 896.616 394.017C896.305 397.342 900.928 398.153 906.29 398.418" fill="#50748D"/>
<path d="M797.245 275.696C797.245 275.696 863.55 270.705 876.042 278.581C888.508 286.462 908.533 378.221 908.533 378.221C908.533 378.221 907.292 379.218 904.542 379.512C901.979 379.791 896.316 378.281 896.316 378.281C896.316 378.281 867.547 337.221 865.521 326.882C863.494 316.537 863.987 307.307 859.378 307.061C854.763 306.811 797.232 314.051 788.532 298.721C779.832 283.397 787.023 268.221 787.023 268.221L797.245 275.696" fill="#163560"/>
<path d="M871.241 404.666C870.938 407.99 875.56 408.801 880.92 409.066C886.281 409.33 884.661 410.431 892.001 411.76C899.341 413.092 902.287 411.08 902.821 410.092C903.293 409.207 899.88 407.83 896.245 406.277C895.786 406.08 895.333 405.881 894.873 405.681C890.772 403.881 888.483 400.205 885.276 396.801C882.261 393.582 879.388 383.25 879.388 383.25L869.411 381.12C869.411 381.12 872.215 390.416 873.177 394.381C873.754 396.717 872.91 399.326 872.166 401.31C871.756 402.39 871.36 403.496 871.242 404.666" fill="#FFB27D"/>
<path d="M880.92 409.066C886.281 409.33 884.661 410.431 892.001 411.76C899.341 413.092 902.288 411.08 902.821 410.092C903.293 409.207 899.881 407.83 896.245 406.277L896.189 406.336C896.189 406.336 891.027 408.09 885.059 406.47C880.207 405.15 875.504 402.252 872.166 401.31C871.756 402.39 871.36 403.496 871.242 404.666C870.938 407.99 875.56 408.801 880.92 409.066" fill="#50748D"/>
<path d="M784.254 279.803C784.254 279.803 843.154 282.592 855.319 290.954C867.484 299.307 883.92 391.781 883.92 391.781C883.92 391.781 882.648 392.722 879.885 392.912C877.305 393.092 871.713 391.362 871.713 391.362C871.713 391.362 844.56 349.217 842.947 338.803C841.322 328.387 842.168 319.182 837.568 318.757C832.973 318.333 775.205 323.328 767.105 307.673C759.005 292.012 784.254 279.803 784.254 279.803" fill="#2C4251"/>
<path d="M805.252 150.185C802.638 148.46 799.401 148.075 797.115 148.059C797.739 147.489 798.901 147.351 798.901 147.351C797.512 147.044 794.263 148.233 794.263 148.233C775.117 139.355 770.104 168.069 770.071 174.82C770.037 181.566 769.572 189.3 759.36 194.675C739.272 205.245 754.173 227.03 754.173 227.03C754.326 227.13 767.565 244.661 767.565 244.661C767.423 239.2 788.979 210.241 802.621 202.53C806.119 198.053 807.797 189.861 807.928 189.21C806.941 195.735 805.569 199.339 804.429 201.345C816.177 191.9 812.18 154.759 805.252 150.185" fill="#3D6988"/>
<path d="M781.781 196.202C781.781 196.202 787.269 195.681 792.756 196.202C796.485 196.558 800.181 197.716 802.275 198.591C807.465 200.761 806.92 209.952 796.024 208.251C785.134 206.552 781.018 198.932 781.782 196.202" fill="#FFB27D"/>
<path d="M801.817 202.907C801.878 202.942 803.366 210.811 796.237 210.497C791.552 210.292 781.453 204.626 782.343 200.616C782.767 198.712 786.307 193.767 787.017 182.482L787.878 182.712L802.203 186.552C802.203 186.552 801.571 191.101 801.275 195.405C801.023 199.02 801.012 202.466 801.817 202.907" fill="#FFB27D"/>
<path d="M802.208 186.552C802.208 186.552 801.577 191.1 801.27 195.407C793.162 194.636 789.359 186.936 787.88 182.712L802.208 186.552" fill="#F4A269"/>
<path d="M786.486 181.025C786.486 181.025 782.677 174.014 782.037 168.19C781.578 164.034 784.689 148.95 799.84 152.159C799.84 152.159 804.256 152.893 808.251 155.995C811.42 158.46 815.892 163.626 809.652 176.555L807.951 180.95L786.486 181.025Z" fill="#3D6988"/>
<path d="M804.64 190.812C804.64 190.812 785.391 189.847 786.177 177.872C786.968 165.894 785.007 157.702 797.327 157.808C809.658 157.917 811.743 162.648 812.444 166.708C813.162 170.769 809.669 190.759 804.64 190.812" fill="#FFB27D"/>
<path d="M806.104 158.105C806.104 158.105 799.901 171.804 791.691 173.345C783.465 174.88 780.105 172.484 780.105 172.484C780.105 172.484 786.633 167.974 788.495 159.464C788.495 159.464 802.577 151.15 806.104 158.105" fill="#3D6988"/>
<path d="M804.734 159.154C804.734 159.154 808.448 162.554 809.202 165.667C809.962 168.782 809.968 175.087 811.823 174.997C811.823 174.997 816.422 165.714 812.327 160.013C807.983 153.968 804.734 159.154 804.734 159.154Z" fill="#3D6988"/>
<path d="M823.911 276.697C822.353 278.556 817.489 279.131 812.294 279.986C808.204 280.659 803.907 281.505 800.854 283.3C793.911 287.376 771.243 301.146 764.592 300.515C762.014 300.275 762.501 295.355 764.065 288.832C766.511 278.525 771.661 264.216 771.661 257.995C771.661 254.601 772.789 246.559 774.302 237.374C774.422 236.63 774.548 235.885 774.668 235.13C777.659 217.27 781.789 196.206 781.789 196.206C781.789 196.206 786.401 206.265 795.389 206.265C804.366 206.265 802.286 198.589 802.286 198.589C802.286 198.589 810.472 199.555 812.414 201.639C814.356 203.729 819.265 212.745 820.234 215.204C820.234 215.204 820.429 218.335 812.683 219.82C812.683 219.82 814.574 228.316 814.791 233.976C814.964 238.161 811.944 251.251 811.074 259.396C810.764 262.275 810.724 264.54 811.194 265.565C811.796 266.88 813.732 268.191 815.931 269.476C820.314 272.027 825.762 274.48 823.911 276.697" fill="#2C4251"/>
<path d="M815.929 269.477C820.904 277.958 802.446 280.507 799.391 282.301C792.456 286.371 771.234 301.147 764.595 300.516C762.013 300.276 762.492 295.356 764.053 288.831C766.509 278.528 771.649 264.216 771.649 257.997C771.649 254.602 772.789 246.561 774.294 237.376L782.289 229.696C782.289 229.696 790.86 251.847 799.032 255.477C803.312 257.378 807.774 258.632 811.068 259.397C810.755 262.276 810.715 264.541 811.188 265.567C811.786 266.881 813.73 268.192 815.929 269.477" fill="#163560"/>
<path d="M825.983 275.764H844.531V277.954H825.983" fill="#60839C"/>
<path d="M840.593 277.656C840.771 276.93 857.647 250.435 857.647 250.435H895.183L876.357 276.945L840.593 277.656" fill="#60839C"/>
<path d="M842.175 277.954C842.353 277.23 859.284 250.435 859.284 250.435H895.183L877.262 277.954H842.175" fill="#3D6988"/>
<path d="M873.816 264.286C873.448 265.363 872.273 266.232 871.2 266.232C870.134 266.232 869.567 265.363 869.935 264.286C870.297 263.211 871.472 262.341 872.538 262.341C873.623 262.341 874.189 263.211 873.816 264.286Z" fill="#60839C"/>
<path d="M831.482 266.347C830.435 265.896 822.297 267.376 819.977 267.812C812.618 266.367 788.405 261.532 787.237 260.017C785.836 258.226 782.801 203.741 779.331 202.837C779.331 202.837 772.488 198.681 765.884 206.562C759.269 214.437 770.582 270.757 780.371 273.646C791.26 276.863 822.686 273.132 822.686 273.132C825.279 274.011 829.784 274.511 832.185 275.312C835.353 276.361 838.167 275.486 838.87 274.257C839.568 273.027 832.708 266.872 831.482 266.347" fill="#FFB27D"/>
<path d="M781.793 196.2C781.793 196.2 767.736 197.469 763.662 202.091C759.583 206.71 758.399 219.225 758.399 219.225C758.399 219.225 770.762 229.212 785.664 225.337L781.793 196.2" fill="#2C4251"/>
<path d="M378.382 171.94C378.382 171.94 379.691 166.746 381.878 166.47C384.074 166.195 387.359 164.81 388.054 166.56C388.742 168.304 382.83 177.329 380.466 175.099C378.111 172.87 378.382 171.94 378.382 171.94Z" fill="#FFB27D"/>
<path d="M349.606 281.26C351.514 286.785 352.738 291.15 352.725 293.215C352.672 302.471 370.959 344.239 370.959 344.239C376.853 346.745 383.599 344.214 383.599 344.214C381.597 338.429 370.471 286.625 364.562 255.026C362.078 241.757 360.396 232.476 360.396 232.476L328.106 228.828C328.106 228.828 342.983 262.065 349.606 281.26Z" fill="#163560"/>
<path d="M328.103 228.828C328.103 228.828 342.977 262.067 349.602 281.262L364.562 255.028C362.074 241.757 360.391 232.478 360.391 232.478L328.103 228.828" fill="#163560"/>
<path d="M345.358 235.919C345.358 235.919 354.242 328.216 356.307 346.087C356.307 346.087 350.811 347.745 344.063 345.175C344.063 345.175 331.784 302.287 330.403 289.368C329.009 276.448 315.136 236.509 317.478 232.794C319.827 229.08 345.358 235.919 345.358 235.919Z" fill="#163560"/>
<path d="M322.645 157.212C322.645 157.212 326.063 165.413 326.183 167.869C326.308 170.314 318.52 171.647 314.56 169.622C310.615 167.599 311.24 165.792 311.24 165.792C311.24 165.792 309.443 157.458 309.742 156.788C310.041 156.119 322.645 157.212 322.645 157.212" fill="#FFB27D"/>
<path d="M377.466 170.983C377.466 170.983 363.516 188.329 362.941 190.563C354.926 181.229 342.6 169.524 342.047 169.064C340.465 167.785 337.639 167.005 334.768 166.535C330.842 165.884 326.843 165.804 325.938 165.8C325.808 165.785 325.743 165.781 325.743 165.788C326.114 167.175 324.606 169.733 321.298 169.97C317.38 170.22 311.851 168.099 311.229 165.788C311.202 165.675 302.037 166.255 303.646 183.368C303.662 183.599 303.683 183.854 303.728 184.108C304.347 189.854 306.154 197.373 309.839 207.268C311.165 210.824 315.528 237.187 316.825 237.212C316.825 237.212 317.948 237.786 320.446 238.503C321.751 238.872 323.448 239.286 325.538 239.683C329.983 240.513 336.249 241.247 344.67 241.247C360.055 241.247 363.961 236.869 363.961 236.869C364.783 236.869 355.4 215.658 350.482 197.438C355.598 200.412 361.018 203.254 361.592 203.604C364.172 205.174 365.978 205.819 367.238 205.899L367.246 205.903C367.246 205.903 367.312 205.909 367.422 205.909C368.156 205.918 368.695 205.729 369.074 205.409C370.24 204.799 371.82 203.457 373.423 200.504C375.537 196.608 378.05 188.729 380.207 183.474C381.402 180.569 382.326 177.384 383.542 174.765C383.542 174.765 380.57 171.579 377.466 170.983" fill="#3029F4"/>
<path d="M327.442 213.701C330.513 226.461 324.665 234.607 320.456 238.501C317.95 237.786 316.829 237.21 316.829 237.21C315.534 237.187 311.171 210.822 309.841 207.266C306.154 197.371 304.351 189.852 303.73 184.108C304.064 183.712 304.259 183.507 304.259 183.507C304.259 183.507 322.878 194.787 327.442 213.701" fill="#9491F1"/>
<path d="M323.022 158.138C323.022 158.138 321.06 162.593 317.72 162.632C314.394 162.673 309.789 158.208 309.789 158.208L323.022 158.138" fill="#E8945B"/>
<path d="M323.265 157.913C322.571 158.605 320.876 159.554 319.442 160.183C318.356 160.66 317.028 160.689 315.677 160.265C313.663 159.63 310.603 158.634 309.787 158.208C307.835 157.195 307.398 155.138 306.546 152.285C305.537 148.904 304.484 146.25 304.339 144.305C304.166 141.975 305.287 140.644 309.324 140.285C316.743 139.625 320.413 141.529 321.229 144.074C321.45 144.76 321.651 145.41 321.845 146.029C324.274 153.968 324.399 156.785 323.265 157.913" fill="#FFB27D"/>
<path d="M321.53 145.016C321.53 145.016 319.796 143.18 317.647 143.9C315.505 144.621 315.796 146.615 311.72 146.295C307.636 145.977 306.173 144.086 305.709 145.031C305.244 145.977 306.326 151.56 306.326 151.56C306.326 151.56 293.381 133.25 309.66 133.25C309.66 133.25 326.169 132.236 323.091 150.851L321.53 145.016" fill="#163560"/>
<path d="M355.752 162.361L355.73 162.371L355.752 162.361Z" fill="#FFB27D"/>
<path d="M357.518 136.187C357.576 135.883 357.619 135.687 357.619 135.687C357.555 135.826 357.525 135.998 357.518 136.187Z" fill="#D35C2B"/>
<path d="M383.415 192.139L380.748 191.739L388.23 149.32L383.415 192.139" fill="#163560"/>
<path d="M379.693 170.39C379.693 170.39 382.154 172.829 382.57 171.493C382.98 170.159 386.105 168.619 386.332 167.994C386.558 167.369 382.738 167.093 382.175 167.074C381.621 167.06 379.29 169.529 379.693 170.39" fill="#FFB27D"/>
<path d="M316.837 169.437C317.052 169.497 319.931 168.716 323.849 169.187C323.849 169.187 324.14 172.726 323.122 173.017C322.11 173.306 319.979 173.065 319.536 173.017C319.087 172.966 316.837 169.437 316.837 169.437Z" fill="#C7D8E3"/>
<path d="M319.53 173.018C319.53 173.018 331.397 222.857 334.555 226.027C337.713 229.203 340.19 230.193 340.19 230.193C340.19 230.193 342.68 227.182 342.637 225.742C342.596 224.297 323.116 173.018 323.116 173.018H319.53" fill="#C7D8E3"/>
<path d="M336.161 221.656C336.161 221.656 344.223 224.266 346.655 224.365C349.081 224.461 351.938 220.31 350.989 219.092C350.711 218.736 347.194 220.361 346.186 219.81C344.663 218.976 342.711 219.611 341.485 219.756C340.266 219.9 335.579 217.262 335.579 217.262L336.161 221.656" fill="#FFB27D"/>
<path d="M338.981 217.25C325.864 207.985 316.661 203.319 313.78 201.944C314.575 195.094 314.224 184.2 311.229 165.787C311.229 165.787 298.507 167.197 297.146 171.645C295.185 178.056 299.8 195.899 303.63 210.17C303.63 210.17 303.685 210.203 303.769 210.26C304.05 210.744 304.445 211.213 305 211.66C310.416 216.014 339.092 224.369 339.092 224.369C341.172 221.35 338.981 217.25 338.981 217.25" fill="#3029F4"/>
<path d="M344.834 218.523L323.323 212.123L322.645 215.203L345.688 221.689L344.834 218.523" fill="#FCECDB"/>
<path d="M355.717 210.223L344.838 218.523L345.686 221.687L358.213 213.142L355.717 210.223Z" fill="#F4D2B8"/>
<path d="M345.932 222.603L321.382 215.115L321.46 214.475L345.684 221.689L345.932 222.603V222.603ZM345.934 222.603L359.826 212.949L359.264 212.375L345.69 221.689L345.934 222.603Z" fill="#163560"/>
<path d="M316.833 169.439C316.833 169.439 311.212 163.599 310.751 163.984C310.298 164.369 309.72 165.658 309.988 166.023C310.255 166.388 317.52 170.483 317.52 170.483L316.833 169.439ZM323.851 169.187C323.851 169.187 324.976 163.369 325.163 163.593C325.351 163.812 327.161 165.423 327.231 165.822C327.294 166.228 324.962 169.513 323.878 169.763C322.796 170.013 323.851 169.187 323.851 169.187Z" fill="#C7D8E3"/>
</svg>
